<mxfile modified="2020-09-16T18:40:58.127Z" host="app.diagrams.net" agent="5.0 (Windows NT 10.0; Win64; x64) AppleWebKit/537.36 (KHTML, like Gecko) Chrome/87.0.4259.3 Safari/537.36" etag="euxVgBz9VKQ3fCp4h7ym" version="13.7.1" type="github">
  <diagram id="d1ab7348-05c3-a1e3-ca4d-12c340fd6b49" name="Page-1">
    <mxGraphModel dx="2433" dy="588" grid="1" gridSize="10" guides="1" tooltips="1" connect="1" arrows="1" fold="1" page="1" pageScale="1" pageWidth="1169" pageHeight="827" background="#ffffff" math="0" shadow="0">
      <root>
        <mxCell id="0" />
        <mxCell id="1" parent="0" />
        <mxCell id="6" value="&lt;font style=&quot;font-size: 14px&quot;&gt;&amp;nbsp; &amp;nbsp; &amp;nbsp; &amp;nbsp; &amp;nbsp;&lt;br&gt;&lt;br&gt;&lt;br&gt;&lt;br&gt;&lt;br&gt;&lt;br&gt;&lt;/font&gt;" style="rounded=1;absoluteArcSize=1;arcSize=2;html=1;strokeColor=none;gradientColor=none;shadow=0;dashed=0;fontSize=12;fontColor=#000000;align=left;verticalAlign=top;spacing=10;spacingTop=-4;fillColor=#E1F5FE;" parent="1" vertex="1">
          <mxGeometry x="340" y="90" width="840" height="480" as="geometry" />
        </mxCell>
        <mxCell id="8" value="&lt;font style=&quot;font-size: 18px&quot;&gt;&lt;b&gt;SAP S/4 HANA &lt;br&gt;ENVIRONMENTS&lt;/b&gt;&lt;/font&gt;" style="rounded=1;absoluteArcSize=1;arcSize=2;html=1;strokeColor=none;gradientColor=none;shadow=0;dashed=0;fontSize=12;fontColor=#000000;align=center;verticalAlign=top;spacing=10;spacingTop=-4;fillColor=#D4E1F5;" parent="1" vertex="1">
          <mxGeometry x="-10" y="90" width="190" height="480" as="geometry" />
        </mxCell>
        <mxCell id="9" value="&lt;font style=&quot;font-size: 24px&quot;&gt;&amp;nbsp; &amp;nbsp; &amp;nbsp; &amp;nbsp; Data Vault Load Achitecture SAEC&lt;/font&gt;" style="fillColor=#66B2FF;strokeColor=none;shadow=1;gradientColor=none;fontSize=14;align=left;spacingLeft=50;fontColor=#000000;html=1;" parent="1" vertex="1">
          <mxGeometry x="200" width="980" height="80" as="geometry" />
        </mxCell>
        <mxCell id="39" style="edgeStyle=orthogonalEdgeStyle;rounded=0;html=1;labelBackgroundColor=none;startFill=1;startSize=4;endArrow=blockThin;endFill=1;endSize=4;jettySize=auto;orthogonalLoop=1;strokeColor=#4284F3;strokeWidth=2;fontSize=12;fontColor=#000000;align=left;dashed=0;startArrow=blockThin;" parent="1" edge="1">
          <mxGeometry relative="1" as="geometry">
            <Array as="points">
              <mxPoint x="200" y="360" />
              <mxPoint x="200" y="215" />
            </Array>
            <mxPoint x="260" y="360" as="sourcePoint" />
            <mxPoint x="160" y="215" as="targetPoint" />
          </mxGeometry>
        </mxCell>
        <mxCell id="41" style="edgeStyle=orthogonalEdgeStyle;rounded=0;html=1;labelBackgroundColor=none;startFill=1;startSize=4;endArrow=blockThin;endFill=1;endSize=4;jettySize=auto;orthogonalLoop=1;strokeColor=#4284F3;strokeWidth=2;fontSize=12;fontColor=#000000;align=left;dashed=0;startArrow=blockThin;" parent="1" source="0KH5nl5nT1wfXX2kWhob-113" edge="1">
          <mxGeometry relative="1" as="geometry">
            <mxPoint x="180" y="360" as="sourcePoint" />
            <mxPoint x="160" y="359.5" as="targetPoint" />
            <Array as="points">
              <mxPoint x="180" y="360" />
            </Array>
          </mxGeometry>
        </mxCell>
        <mxCell id="42" style="edgeStyle=orthogonalEdgeStyle;rounded=0;html=1;labelBackgroundColor=none;startFill=1;startSize=4;endArrow=blockThin;endFill=1;endSize=4;jettySize=auto;orthogonalLoop=1;strokeColor=#4284F3;strokeWidth=2;fontSize=12;fontColor=#000000;align=left;dashed=0;startArrow=blockThin;" parent="1" edge="1">
          <mxGeometry relative="1" as="geometry">
            <Array as="points">
              <mxPoint x="200" y="360" />
              <mxPoint x="200" y="485" />
            </Array>
            <mxPoint x="260" y="360" as="sourcePoint" />
            <mxPoint x="160" y="485" as="targetPoint" />
          </mxGeometry>
        </mxCell>
        <mxCell id="43" style="edgeStyle=orthogonalEdgeStyle;rounded=0;html=1;labelBackgroundColor=none;startFill=1;startSize=4;endArrow=blockThin;endFill=1;endSize=4;jettySize=auto;orthogonalLoop=1;strokeColor=#B5739D;strokeWidth=2;fontSize=12;fontColor=#000000;align=left;dashed=0;exitX=-0.005;exitY=0.487;exitDx=0;exitDy=0;exitPerimeter=0;" parent="1" source="6" target="22" edge="1">
          <mxGeometry relative="1" as="geometry">
            <mxPoint x="370" y="360" as="sourcePoint" />
            <Array as="points">
              <mxPoint x="524" y="324" />
            </Array>
          </mxGeometry>
        </mxCell>
        <mxCell id="0KH5nl5nT1wfXX2kWhob-57" value="" style="shape=image;verticalLabelPosition=bottom;labelBackgroundColor=#ffffff;verticalAlign=top;aspect=fixed;imageAspect=0;image=data:image/svg+xml,PHN2ZyB4bWxuczpjYz0iaHR0cDovL2NyZWF0aXZlY29tbW9ucy5vcmcvbnMjIiB4bWxuczpkYz0iaHR0cDovL3B1cmwub3JnL2RjL2VsZW1lbnRzLzEuMS8iIHhtbG5zOmlua3NjYXBlPSJodHRwOi8vd3d3Lmlua3NjYXBlLm9yZy9uYW1lc3BhY2VzL2lua3NjYXBlIiB4bWxuczpyZGY9Imh0dHA6Ly93d3cudzMub3JnLzE5OTkvMDIvMjItcmRmLXN5bnRheC1ucyMiIHhtbG5zOnNvZGlwb2RpPSJodHRwOi8vc29kaXBvZGkuc291cmNlZm9yZ2UubmV0L0RURC9zb2RpcG9kaS0wLmR0ZCIgeG1sbnM6c3ZnPSJodHRwOi8vd3d3LnczLm9yZy8yMDAwL3N2ZyIgeG1sbnM9Imh0dHA6Ly93d3cudzMub3JnLzIwMDAvc3ZnIiB4bWxuczp4bGluaz0iaHR0cDovL3d3dy53My5vcmcvMTk5OS94bGluayIgdmVyc2lvbj0iMS4xIiBpZD0ic3ZnMjU0NjQyIiBpbmtzY2FwZTp2ZXJzaW9uPSIwLjkyLjMgKDI0MDU1NDYsIDIwMTgtMDMtMTEpIiBzb2RpcG9kaTpkb2NuYW1lPSJzYXBfc180X2hhbmEuc3ZnIiB4PSIwcHgiIHk9IjBweCIgdmlld0JveD0iMCAwIDE0MS40NSAyNS4xNSIgc3R5bGU9ImVuYWJsZS1iYWNrZ3JvdW5kOm5ldyAwIDAgMTQxLjQ1IDI1LjE1OyIgeG1sOnNwYWNlPSJwcmVzZXJ2ZSI+JiN4YTs8c29kaXBvZGk6bmFtZWR2aWV3IGJvcmRlcmNvbG9yPSIjNjY2NjY2IiBib3JkZXJvcGFjaXR5PSIxIiBmaXQtbWFyZ2luLWJvdHRvbT0iMCIgZml0LW1hcmdpbi1sZWZ0PSIwIiBmaXQtbWFyZ2luLXJpZ2h0PSIwIiBmaXQtbWFyZ2luLXRvcD0iMCIgZ3JpZHRvbGVyYW5jZT0iMTAiIGd1aWRldG9sZXJhbmNlPSIxMCIgaWQ9Im5hbWVkdmlldzI1NDY0NCIgaW5rc2NhcGU6Y3VycmVudC1sYXllcj0ic3ZnMjU0NjQyIiBpbmtzY2FwZTpjeD0iOTQuMjk5MDE2IiBpbmtzY2FwZTpjeT0iMTYuNzY4ODQzIiBpbmtzY2FwZTpwYWdlb3BhY2l0eT0iMCIgaW5rc2NhcGU6cGFnZXNoYWRvdz0iMiIgaW5rc2NhcGU6d2luZG93LWhlaWdodD0iMTAxNyIgaW5rc2NhcGU6d2luZG93LW1heGltaXplZD0iMSIgaW5rc2NhcGU6d2luZG93LXdpZHRoPSIxOTIwIiBpbmtzY2FwZTp3aW5kb3cteD0iLTgiIGlua3NjYXBlOndpbmRvdy15PSItOCIgaW5rc2NhcGU6em9vbT0iOS4wNTY5OTg2IiBvYmplY3R0b2xlcmFuY2U9IjEwIiBwYWdlY29sb3I9IiNmZmZmZmYiIHNob3dncmlkPSJmYWxzZSI+JiN4YTsJPC9zb2RpcG9kaTpuYW1lZHZpZXc+JiN4YTs8ZyBpZD0iZzI1NDY0MCIgdHJhbnNmb3JtPSJ0cmFuc2xhdGUoLTMuMDU4NDcsLTMuMDYxNTc0NSkiPiYjeGE7CTx0aXRsZSBpZD0idGl0bGUyNTQ2MTQiPlBhZ2UtMTwvdGl0bGU+JiN4YTsJPGcgaWQ9Imdyb3VwNTgwNS0xIiB0cmFuc2Zvcm09InRyYW5zbGF0ZSgzLjA1ODQ3LC0zLjA1ODQ3KSI+JiN4YTsJCTx0aXRsZSBpZD0idGl0bGUyNTQ2MTYiPlNBUCBTLzQgSEFOQTwvdGl0bGU+JiN4YTsJCTxnIGlkPSJzaGFwZTU4MDYtMiIgdHJhbnNmb3JtPSJ0cmFuc2xhdGUoNDYuMjc4MiwtNC4zODA1MykiPiYjeGE7CQkJPHRpdGxlIGlkPSJ0aXRsZTI1NDYxOCI+U2hlZXQuNTgwNjwvdGl0bGU+JiN4YTsJCQk8cGF0aCBpZD0icGF0aDI1NDYyMCIgaW5rc2NhcGU6Y29ubmVjdG9yLWN1cnZhdHVyZT0iMCIgc3R5bGU9ImZpbGw6IzAwOEZEMzsiIGQ9Ik0zOS4zNSwzMC43OFYxNS4yM2gzLjR2Ni4wMWg2LjA3VjE1LjNoMy4zOSAgICAgdjE1LjU1aC0zLjM5VjI0LjJoLTYuMDd2Ni42NWgtMy40VjMwLjc4eiBNNTIuNzEsMzAuNzhsNS41MS0xNS41NWgzLjI1bDUuNTEsMTUuNTVoLTMuNDZsLTEuMTMtMy40N2gtNS4zbC0xLjIsMy40N0g1Mi43MXogICAgICBNNTcuODcsMjQuODRoMy42N2wtMS43Ny01LjNINTkuN0w1Ny44NywyNC44NHogTTY3LjMzLDMwLjc4VjE1LjIzaDMuMzlsNi41LDkuODloMC4wOHYtOS44OWgzLjF2MTUuNTVoLTMuMWwtNi43OS05Ljk3aC0wLjA3ICAgICB2OS45N0w2Ny4zMywzMC43OHogTTgwLjksMzAuNzhsNS41MS0xNS41NWgzLjI1bDUuNTEsMTUuNTVoLTMuNDZsLTEuMTMtMy40N2gtNS4zbC0xLjIsMy40N0g4MC45eiBNODYuMDYsMjQuODRoMy42N2wtMS43Ny01LjMgICAgIGgtMC4wN0w4Ni4wNiwyNC44NHogTTAsMjcuMzhsMi42MS0xLjU1YzAuODUsMS43LDIuNDEsMi42OCw0LjI0LDIuNjhjMS41NiwwLDIuNjktMC41NiwyLjY5LTEuNzZzLTEuMTMtMS43LTMuMTgtMi4yNiAgICAgQzMuNiwyMy43MSwwLjcxLDIzLDAuNzEsMTkuNzVjMC0yLjg5LDIuMjYtNC42Niw1LjY1LTQuNjZjMy4xOCwwLDUuMDksMS41NSw2LjIyLDMuMThsLTIuNDEsMS44NCAgICAgYy0wLjg0LTEuMzUtMi4zMy0yLjE5LTMuODEtMi4xOVM0LjEsMTguNTUsNC4xLDE5LjQ3YzAsMS4yNywxLjEzLDEuNywzLjE4LDIuMjZjMi43NSwwLjcxLDUuNjUsMS42Myw1LjY1LDQuODEgICAgIGMwLDIuNDctMS45MSw0LjczLTYuMjIsNC43M0MzLjMyLDMxLjIsMS4yLDI5LjU3LDAsMjcuMzh6IE0xMi43OSwzMC45Mmw4LjEyLTE1LjU1aDMuNDdsLTguMTMsMTUuNTVIMTIuNzl6IE0yOS4xMSwzMC45MnYtMy4wNCAgICAgaC03LjU2di0yLjQ3bDcuMDYtMTAuMDRoMy43NXY5LjgyaDIuNjF2Mi42OWgtMi42MXYzLjA0SDI5LjExeiBNMjUuMDgsMjUuMTloNC4wM3YtNS43MmgtMC4wN0wyNS4wOCwyNS4xOXoiLz4mI3hhOwkJPC9nPiYjeGE7CQk8ZyBpZD0iZ3JvdXA1ODA3LTQiPiYjeGE7CQkJPHRpdGxlIGlkPSJ0aXRsZTI1NDYyMyI+U2hlZXQuNTgwNzwvdGl0bGU+JiN4YTsJCQk8ZyBpZD0iZ3JvdXA1ODA4LTUiPiYjeGE7CQkJCTx0aXRsZSBpZD0idGl0bGUyNTQ2MjUiPlNoZWV0LjU4MDg8L3RpdGxlPiYjeGE7CQkJCTxnIGlkPSJzaGFwZTU4MDktNiI+JiN4YTsJCQkJCTx0aXRsZSBpZD0idGl0bGUyNTQ2MjciPlNoZWV0LjU4MDk8L3RpdGxlPiYjeGE7CQkJCQkmI3hhOwkJCQkJCTxsaW5lYXJHcmFkaWVudCBpZD0icGF0aDI1NDYyOV8xXyIgZ3JhZGllbnRVbml0cz0idXNlclNwYWNlT25Vc2UiIHgxPSItNjkuNDY2NiIgeTE9Ii0xNTMuNzUiIHgyPSItMzMuNjk4MiIgeTI9Ii0xNTMuNzUiIGdyYWRpZW50VHJhbnNmb3JtPSJtYXRyaXgoMS40MjIyIDAgMCAtMC43MDMxIDk4Ljc5NTcgLTg5LjQxMTgpIj4mI3hhOwkJCQkJCTxzdG9wIG9mZnNldD0iMCIgc3R5bGU9InN0b3AtY29sb3I6IzAwQjhGMSIvPiYjeGE7CQkJCQkJPHN0b3Agb2Zmc2V0PSIwLjAxNSIgc3R5bGU9InN0b3AtY29sb3I6IzAxQjZGMCIvPiYjeGE7CQkJCQkJPHN0b3Agb2Zmc2V0PSIwLjMxIiBzdHlsZT0ic3RvcC1jb2xvcjojMEQ5MEQ5Ii8+JiN4YTsJCQkJCQk8c3RvcCBvZmZzZXQ9IjAuNTgiIHN0eWxlPSJzdG9wLWNvbG9yOiMxNzc1QzgiLz4mI3hhOwkJCQkJCTxzdG9wIG9mZnNldD0iMC44MTUiIHN0eWxlPSJzdG9wLWNvbG9yOiMxQzY1QkYiLz4mI3hhOwkJCQkJCTxzdG9wIG9mZnNldD0iMSIgc3R5bGU9InN0b3AtY29sb3I6IzFFNUZCQiIvPiYjeGE7CQkJCQk8L2xpbmVhckdyYWRpZW50PiYjeGE7CQkJCQk8cGF0aCBpZD0icGF0aDI1NDYyOSIgaW5rc2NhcGU6Y29ubmVjdG9yLWN1cnZhdHVyZT0iMCIgc3R5bGU9ImZpbGw6dXJsKCNwYXRoMjU0NjI5XzFfKTsiIGQ9Ik0wLDMxLjI3aDI1LjcyTDUwLjg3LDYuMTJIMCAgICAgICBWMzEuMjd6Ii8+JiN4YTsJCQkJPC9nPiYjeGE7CQkJPC9nPiYjeGE7CQkJPGcgaWQ9InNoYXBlNTgxMC0xMCIgdHJhbnNmb3JtPSJ0cmFuc2xhdGUoMC43MDY1MzgsLTQuNTkyNDkpIj4mI3hhOwkJCQk8dGl0bGUgaWQ9InRpdGxlMjU0NjMzIj5TaGVldC41ODEwPC90aXRsZT4mI3hhOwkJCQk8cGF0aCBpZD0icGF0aDI1NDYzNSIgaW5rc2NhcGU6Y29ubmVjdG9yLWN1cnZhdHVyZT0iMCIgc3R5bGU9ImZpbGw6I0ZGRkZGRjsiIGQ9Ik0yOS40NiwxNS40NGgtNS4wMXYxMS45NGwtNC4zMS0xMS45NGgtNC4zMSAgICAgIGwtMy44Miw5Ljk3Yy0wLjQyLTIuNTUtMi45Ny0zLjQtNS4wMi00LjAzYy0xLjM0LTAuNDMtMi43NS0xLjA2LTIuNzUtMS43N2MwLTAuNTYsMC43OC0xLjEzLDIuMjYtMS4wNiAgICAgIGMwLjk5LDAuMDcsMS45MSwwLjE0LDMuNjcsMC45OWwxLjc3LTMuMDRjLTEuNjItMC44NC0zLjgxLTEuMzQtNS42NS0xLjM0Yy0yLjEyLDAtMy44OSwwLjcxLTUuMDIsMS44NCAgICAgIEMwLjQyLDE3Ljc3LDAsMTguODMsMCwxOS44OWMwLDEuNTYsMC41NywyLjYyLDEuNywzLjQ3YzAuOTgsMC43LDIuMjYsMS4yLDMuMzksMS41NWMxLjQxLDAuNDIsMi41NCwwLjc4LDIuNTQsMS42MyAgICAgIGMwLDAuMjgtMC4xNCwwLjU2LTAuMzUsMC43N2MtMC4zNiwwLjM2LTAuODUsMC41LTEuNjMsMC41Yy0xLjQxLDAtMi40Ny0wLjIxLTQuMTctMS4yTDAsMjkuNzljMS43LDAuOTEsMy42NywxLjQ4LDUuNjUsMS40OCAgICAgIGgwLjI4YzEuNzcsMCwzLjE4LTAuNTcsNC4zMS0xLjQxYzAuMDgtMC4wNywwLjE1LTAuMDcsMC4yMi0wLjE0bC0wLjU3LDEuMjdoNC41MmwwLjc4LTIuMzNjMC43OCwwLjI4LDEuNywwLjQyLDIuNjksMC40MiAgICAgIGMwLjkxLDAsMS44My0wLjE0LDIuNjEtMC40MmwwLjcxLDIuMzNoNy40MXYtNC44MWgxLjYzYzMuODksMCw2LjIyLTEuOTgsNi4yMi01LjNDMzYuNTMsMTcuMTQsMzQuMjcsMTUuNDQsMjkuNDYsMTUuNDR6ICAgICAgIE0xNy44OCwyNS42MmMtMC41NywwLTEuMTQtMC4wNy0xLjYzLTAuMjlsMS41NS01LjAxbDEuNTYsNS4wMUMxOS4wMSwyNS41NSwxOC41MSwyNS42MiwxNy44OCwyNS42MnogTTI5Ljc1LDIyLjcyaC0xLjE0di00LjAzICAgICAgaDEuMTRjMS40OCwwLDIuNjEsMC41LDIuNjEsMS45OEMzMi40MywyMi4zLDMxLjIzLDIyLjcyLDI5Ljc1LDIyLjcyeiIvPiYjeGE7CQkJPC9nPiYjeGE7CQk8L2c+JiN4YTsJPC9nPiYjeGE7PC9nPiYjeGE7PC9zdmc+;" vertex="1" parent="1">
          <mxGeometry x="10" y="204" width="141" height="25" as="geometry" />
        </mxCell>
        <mxCell id="0KH5nl5nT1wfXX2kWhob-59" style="edgeStyle=orthogonalEdgeStyle;rounded=0;orthogonalLoop=1;jettySize=auto;html=1;exitX=0.5;exitY=1;exitDx=0;exitDy=0;" edge="1" parent="1" source="0KH5nl5nT1wfXX2kWhob-57" target="0KH5nl5nT1wfXX2kWhob-57">
          <mxGeometry relative="1" as="geometry" />
        </mxCell>
        <mxCell id="0KH5nl5nT1wfXX2kWhob-102" style="edgeStyle=orthogonalEdgeStyle;rounded=0;orthogonalLoop=1;jettySize=auto;html=1;entryX=0;entryY=0;entryDx=0;entryDy=0;strokeColor=#B5739D;" edge="1" parent="1" source="0KH5nl5nT1wfXX2kWhob-61" target="0KH5nl5nT1wfXX2kWhob-80">
          <mxGeometry relative="1" as="geometry" />
        </mxCell>
        <mxCell id="0KH5nl5nT1wfXX2kWhob-62" value="" style="shape=image;verticalLabelPosition=bottom;labelBackgroundColor=#ffffff;verticalAlign=top;aspect=fixed;imageAspect=0;image=data:image/svg+xml,PHN2ZyB4bWxuczpjYz0iaHR0cDovL2NyZWF0aXZlY29tbW9ucy5vcmcvbnMjIiB4bWxuczpkYz0iaHR0cDovL3B1cmwub3JnL2RjL2VsZW1lbnRzLzEuMS8iIHhtbG5zOmlua3NjYXBlPSJodHRwOi8vd3d3Lmlua3NjYXBlLm9yZy9uYW1lc3BhY2VzL2lua3NjYXBlIiB4bWxuczpyZGY9Imh0dHA6Ly93d3cudzMub3JnLzE5OTkvMDIvMjItcmRmLXN5bnRheC1ucyMiIHhtbG5zOnNvZGlwb2RpPSJodHRwOi8vc29kaXBvZGkuc291cmNlZm9yZ2UubmV0L0RURC9zb2RpcG9kaS0wLmR0ZCIgeG1sbnM6c3ZnPSJodHRwOi8vd3d3LnczLm9yZy8yMDAwL3N2ZyIgeG1sbnM9Imh0dHA6Ly93d3cudzMub3JnLzIwMDAvc3ZnIiB4bWxuczp4bGluaz0iaHR0cDovL3d3dy53My5vcmcvMTk5OS94bGluayIgdmVyc2lvbj0iMS4xIiBpZD0ic3ZnMjU0NjQyIiBpbmtzY2FwZTp2ZXJzaW9uPSIwLjkyLjMgKDI0MDU1NDYsIDIwMTgtMDMtMTEpIiBzb2RpcG9kaTpkb2NuYW1lPSJzYXBfc180X2hhbmEuc3ZnIiB4PSIwcHgiIHk9IjBweCIgdmlld0JveD0iMCAwIDE0MS40NSAyNS4xNSIgc3R5bGU9ImVuYWJsZS1iYWNrZ3JvdW5kOm5ldyAwIDAgMTQxLjQ1IDI1LjE1OyIgeG1sOnNwYWNlPSJwcmVzZXJ2ZSI+JiN4YTs8c29kaXBvZGk6bmFtZWR2aWV3IGJvcmRlcmNvbG9yPSIjNjY2NjY2IiBib3JkZXJvcGFjaXR5PSIxIiBmaXQtbWFyZ2luLWJvdHRvbT0iMCIgZml0LW1hcmdpbi1sZWZ0PSIwIiBmaXQtbWFyZ2luLXJpZ2h0PSIwIiBmaXQtbWFyZ2luLXRvcD0iMCIgZ3JpZHRvbGVyYW5jZT0iMTAiIGd1aWRldG9sZXJhbmNlPSIxMCIgaWQ9Im5hbWVkdmlldzI1NDY0NCIgaW5rc2NhcGU6Y3VycmVudC1sYXllcj0ic3ZnMjU0NjQyIiBpbmtzY2FwZTpjeD0iOTQuMjk5MDE2IiBpbmtzY2FwZTpjeT0iMTYuNzY4ODQzIiBpbmtzY2FwZTpwYWdlb3BhY2l0eT0iMCIgaW5rc2NhcGU6cGFnZXNoYWRvdz0iMiIgaW5rc2NhcGU6d2luZG93LWhlaWdodD0iMTAxNyIgaW5rc2NhcGU6d2luZG93LW1heGltaXplZD0iMSIgaW5rc2NhcGU6d2luZG93LXdpZHRoPSIxOTIwIiBpbmtzY2FwZTp3aW5kb3cteD0iLTgiIGlua3NjYXBlOndpbmRvdy15PSItOCIgaW5rc2NhcGU6em9vbT0iOS4wNTY5OTg2IiBvYmplY3R0b2xlcmFuY2U9IjEwIiBwYWdlY29sb3I9IiNmZmZmZmYiIHNob3dncmlkPSJmYWxzZSI+JiN4YTsJPC9zb2RpcG9kaTpuYW1lZHZpZXc+JiN4YTs8ZyBpZD0iZzI1NDY0MCIgdHJhbnNmb3JtPSJ0cmFuc2xhdGUoLTMuMDU4NDcsLTMuMDYxNTc0NSkiPiYjeGE7CTx0aXRsZSBpZD0idGl0bGUyNTQ2MTQiPlBhZ2UtMTwvdGl0bGU+JiN4YTsJPGcgaWQ9Imdyb3VwNTgwNS0xIiB0cmFuc2Zvcm09InRyYW5zbGF0ZSgzLjA1ODQ3LC0zLjA1ODQ3KSI+JiN4YTsJCTx0aXRsZSBpZD0idGl0bGUyNTQ2MTYiPlNBUCBTLzQgSEFOQTwvdGl0bGU+JiN4YTsJCTxnIGlkPSJzaGFwZTU4MDYtMiIgdHJhbnNmb3JtPSJ0cmFuc2xhdGUoNDYuMjc4MiwtNC4zODA1MykiPiYjeGE7CQkJPHRpdGxlIGlkPSJ0aXRsZTI1NDYxOCI+U2hlZXQuNTgwNjwvdGl0bGU+JiN4YTsJCQk8cGF0aCBpZD0icGF0aDI1NDYyMCIgaW5rc2NhcGU6Y29ubmVjdG9yLWN1cnZhdHVyZT0iMCIgc3R5bGU9ImZpbGw6IzAwOEZEMzsiIGQ9Ik0zOS4zNSwzMC43OFYxNS4yM2gzLjR2Ni4wMWg2LjA3VjE1LjNoMy4zOSAgICAgdjE1LjU1aC0zLjM5VjI0LjJoLTYuMDd2Ni42NWgtMy40VjMwLjc4eiBNNTIuNzEsMzAuNzhsNS41MS0xNS41NWgzLjI1bDUuNTEsMTUuNTVoLTMuNDZsLTEuMTMtMy40N2gtNS4zbC0xLjIsMy40N0g1Mi43MXogICAgICBNNTcuODcsMjQuODRoMy42N2wtMS43Ny01LjNINTkuN0w1Ny44NywyNC44NHogTTY3LjMzLDMwLjc4VjE1LjIzaDMuMzlsNi41LDkuODloMC4wOHYtOS44OWgzLjF2MTUuNTVoLTMuMWwtNi43OS05Ljk3aC0wLjA3ICAgICB2OS45N0w2Ny4zMywzMC43OHogTTgwLjksMzAuNzhsNS41MS0xNS41NWgzLjI1bDUuNTEsMTUuNTVoLTMuNDZsLTEuMTMtMy40N2gtNS4zbC0xLjIsMy40N0g4MC45eiBNODYuMDYsMjQuODRoMy42N2wtMS43Ny01LjMgICAgIGgtMC4wN0w4Ni4wNiwyNC44NHogTTAsMjcuMzhsMi42MS0xLjU1YzAuODUsMS43LDIuNDEsMi42OCw0LjI0LDIuNjhjMS41NiwwLDIuNjktMC41NiwyLjY5LTEuNzZzLTEuMTMtMS43LTMuMTgtMi4yNiAgICAgQzMuNiwyMy43MSwwLjcxLDIzLDAuNzEsMTkuNzVjMC0yLjg5LDIuMjYtNC42Niw1LjY1LTQuNjZjMy4xOCwwLDUuMDksMS41NSw2LjIyLDMuMThsLTIuNDEsMS44NCAgICAgYy0wLjg0LTEuMzUtMi4zMy0yLjE5LTMuODEtMi4xOVM0LjEsMTguNTUsNC4xLDE5LjQ3YzAsMS4yNywxLjEzLDEuNywzLjE4LDIuMjZjMi43NSwwLjcxLDUuNjUsMS42Myw1LjY1LDQuODEgICAgIGMwLDIuNDctMS45MSw0LjczLTYuMjIsNC43M0MzLjMyLDMxLjIsMS4yLDI5LjU3LDAsMjcuMzh6IE0xMi43OSwzMC45Mmw4LjEyLTE1LjU1aDMuNDdsLTguMTMsMTUuNTVIMTIuNzl6IE0yOS4xMSwzMC45MnYtMy4wNCAgICAgaC03LjU2di0yLjQ3bDcuMDYtMTAuMDRoMy43NXY5LjgyaDIuNjF2Mi42OWgtMi42MXYzLjA0SDI5LjExeiBNMjUuMDgsMjUuMTloNC4wM3YtNS43MmgtMC4wN0wyNS4wOCwyNS4xOXoiLz4mI3hhOwkJPC9nPiYjeGE7CQk8ZyBpZD0iZ3JvdXA1ODA3LTQiPiYjeGE7CQkJPHRpdGxlIGlkPSJ0aXRsZTI1NDYyMyI+U2hlZXQuNTgwNzwvdGl0bGU+JiN4YTsJCQk8ZyBpZD0iZ3JvdXA1ODA4LTUiPiYjeGE7CQkJCTx0aXRsZSBpZD0idGl0bGUyNTQ2MjUiPlNoZWV0LjU4MDg8L3RpdGxlPiYjeGE7CQkJCTxnIGlkPSJzaGFwZTU4MDktNiI+JiN4YTsJCQkJCTx0aXRsZSBpZD0idGl0bGUyNTQ2MjciPlNoZWV0LjU4MDk8L3RpdGxlPiYjeGE7CQkJCQkmI3hhOwkJCQkJCTxsaW5lYXJHcmFkaWVudCBpZD0icGF0aDI1NDYyOV8xXyIgZ3JhZGllbnRVbml0cz0idXNlclNwYWNlT25Vc2UiIHgxPSItNjkuNDY2NiIgeTE9Ii0xNTMuNzUiIHgyPSItMzMuNjk4MiIgeTI9Ii0xNTMuNzUiIGdyYWRpZW50VHJhbnNmb3JtPSJtYXRyaXgoMS40MjIyIDAgMCAtMC43MDMxIDk4Ljc5NTcgLTg5LjQxMTgpIj4mI3hhOwkJCQkJCTxzdG9wIG9mZnNldD0iMCIgc3R5bGU9InN0b3AtY29sb3I6IzAwQjhGMSIvPiYjeGE7CQkJCQkJPHN0b3Agb2Zmc2V0PSIwLjAxNSIgc3R5bGU9InN0b3AtY29sb3I6IzAxQjZGMCIvPiYjeGE7CQkJCQkJPHN0b3Agb2Zmc2V0PSIwLjMxIiBzdHlsZT0ic3RvcC1jb2xvcjojMEQ5MEQ5Ii8+JiN4YTsJCQkJCQk8c3RvcCBvZmZzZXQ9IjAuNTgiIHN0eWxlPSJzdG9wLWNvbG9yOiMxNzc1QzgiLz4mI3hhOwkJCQkJCTxzdG9wIG9mZnNldD0iMC44MTUiIHN0eWxlPSJzdG9wLWNvbG9yOiMxQzY1QkYiLz4mI3hhOwkJCQkJCTxzdG9wIG9mZnNldD0iMSIgc3R5bGU9InN0b3AtY29sb3I6IzFFNUZCQiIvPiYjeGE7CQkJCQk8L2xpbmVhckdyYWRpZW50PiYjeGE7CQkJCQk8cGF0aCBpZD0icGF0aDI1NDYyOSIgaW5rc2NhcGU6Y29ubmVjdG9yLWN1cnZhdHVyZT0iMCIgc3R5bGU9ImZpbGw6dXJsKCNwYXRoMjU0NjI5XzFfKTsiIGQ9Ik0wLDMxLjI3aDI1LjcyTDUwLjg3LDYuMTJIMCAgICAgICBWMzEuMjd6Ii8+JiN4YTsJCQkJPC9nPiYjeGE7CQkJPC9nPiYjeGE7CQkJPGcgaWQ9InNoYXBlNTgxMC0xMCIgdHJhbnNmb3JtPSJ0cmFuc2xhdGUoMC43MDY1MzgsLTQuNTkyNDkpIj4mI3hhOwkJCQk8dGl0bGUgaWQ9InRpdGxlMjU0NjMzIj5TaGVldC41ODEwPC90aXRsZT4mI3hhOwkJCQk8cGF0aCBpZD0icGF0aDI1NDYzNSIgaW5rc2NhcGU6Y29ubmVjdG9yLWN1cnZhdHVyZT0iMCIgc3R5bGU9ImZpbGw6I0ZGRkZGRjsiIGQ9Ik0yOS40NiwxNS40NGgtNS4wMXYxMS45NGwtNC4zMS0xMS45NGgtNC4zMSAgICAgIGwtMy44Miw5Ljk3Yy0wLjQyLTIuNTUtMi45Ny0zLjQtNS4wMi00LjAzYy0xLjM0LTAuNDMtMi43NS0xLjA2LTIuNzUtMS43N2MwLTAuNTYsMC43OC0xLjEzLDIuMjYtMS4wNiAgICAgIGMwLjk5LDAuMDcsMS45MSwwLjE0LDMuNjcsMC45OWwxLjc3LTMuMDRjLTEuNjItMC44NC0zLjgxLTEuMzQtNS42NS0xLjM0Yy0yLjEyLDAtMy44OSwwLjcxLTUuMDIsMS44NCAgICAgIEMwLjQyLDE3Ljc3LDAsMTguODMsMCwxOS44OWMwLDEuNTYsMC41NywyLjYyLDEuNywzLjQ3YzAuOTgsMC43LDIuMjYsMS4yLDMuMzksMS41NWMxLjQxLDAuNDIsMi41NCwwLjc4LDIuNTQsMS42MyAgICAgIGMwLDAuMjgtMC4xNCwwLjU2LTAuMzUsMC43N2MtMC4zNiwwLjM2LTAuODUsMC41LTEuNjMsMC41Yy0xLjQxLDAtMi40Ny0wLjIxLTQuMTctMS4yTDAsMjkuNzljMS43LDAuOTEsMy42NywxLjQ4LDUuNjUsMS40OCAgICAgIGgwLjI4YzEuNzcsMCwzLjE4LTAuNTcsNC4zMS0xLjQxYzAuMDgtMC4wNywwLjE1LTAuMDcsMC4yMi0wLjE0bC0wLjU3LDEuMjdoNC41MmwwLjc4LTIuMzNjMC43OCwwLjI4LDEuNywwLjQyLDIuNjksMC40MiAgICAgIGMwLjkxLDAsMS44My0wLjE0LDIuNjEtMC40MmwwLjcxLDIuMzNoNy40MXYtNC44MWgxLjYzYzMuODksMCw2LjIyLTEuOTgsNi4yMi01LjNDMzYuNTMsMTcuMTQsMzQuMjcsMTUuNDQsMjkuNDYsMTUuNDR6ICAgICAgIE0xNy44OCwyNS42MmMtMC41NywwLTEuMTQtMC4wNy0xLjYzLTAuMjlsMS41NS01LjAxbDEuNTYsNS4wMUMxOS4wMSwyNS41NSwxOC41MSwyNS42MiwxNy44OCwyNS42MnogTTI5Ljc1LDIyLjcyaC0xLjE0di00LjAzICAgICAgaDEuMTRjMS40OCwwLDIuNjEsMC41LDIuNjEsMS45OEMzMi40MywyMi4zLDMxLjIzLDIyLjcyLDI5Ljc1LDIyLjcyeiIvPiYjeGE7CQkJPC9nPiYjeGE7CQk8L2c+JiN4YTsJPC9nPiYjeGE7PC9nPiYjeGE7PC9zdmc+;" vertex="1" parent="1">
          <mxGeometry x="10" y="347.5" width="141" height="25" as="geometry" />
        </mxCell>
        <mxCell id="0KH5nl5nT1wfXX2kWhob-63" value="" style="shape=image;verticalLabelPosition=bottom;labelBackgroundColor=#ffffff;verticalAlign=top;aspect=fixed;imageAspect=0;image=data:image/svg+xml,PHN2ZyB4bWxuczpjYz0iaHR0cDovL2NyZWF0aXZlY29tbW9ucy5vcmcvbnMjIiB4bWxuczpkYz0iaHR0cDovL3B1cmwub3JnL2RjL2VsZW1lbnRzLzEuMS8iIHhtbG5zOmlua3NjYXBlPSJodHRwOi8vd3d3Lmlua3NjYXBlLm9yZy9uYW1lc3BhY2VzL2lua3NjYXBlIiB4bWxuczpyZGY9Imh0dHA6Ly93d3cudzMub3JnLzE5OTkvMDIvMjItcmRmLXN5bnRheC1ucyMiIHhtbG5zOnNvZGlwb2RpPSJodHRwOi8vc29kaXBvZGkuc291cmNlZm9yZ2UubmV0L0RURC9zb2RpcG9kaS0wLmR0ZCIgeG1sbnM6c3ZnPSJodHRwOi8vd3d3LnczLm9yZy8yMDAwL3N2ZyIgeG1sbnM9Imh0dHA6Ly93d3cudzMub3JnLzIwMDAvc3ZnIiB4bWxuczp4bGluaz0iaHR0cDovL3d3dy53My5vcmcvMTk5OS94bGluayIgdmVyc2lvbj0iMS4xIiBpZD0ic3ZnMjU0NjQyIiBpbmtzY2FwZTp2ZXJzaW9uPSIwLjkyLjMgKDI0MDU1NDYsIDIwMTgtMDMtMTEpIiBzb2RpcG9kaTpkb2NuYW1lPSJzYXBfc180X2hhbmEuc3ZnIiB4PSIwcHgiIHk9IjBweCIgdmlld0JveD0iMCAwIDE0MS40NSAyNS4xNSIgc3R5bGU9ImVuYWJsZS1iYWNrZ3JvdW5kOm5ldyAwIDAgMTQxLjQ1IDI1LjE1OyIgeG1sOnNwYWNlPSJwcmVzZXJ2ZSI+JiN4YTs8c29kaXBvZGk6bmFtZWR2aWV3IGJvcmRlcmNvbG9yPSIjNjY2NjY2IiBib3JkZXJvcGFjaXR5PSIxIiBmaXQtbWFyZ2luLWJvdHRvbT0iMCIgZml0LW1hcmdpbi1sZWZ0PSIwIiBmaXQtbWFyZ2luLXJpZ2h0PSIwIiBmaXQtbWFyZ2luLXRvcD0iMCIgZ3JpZHRvbGVyYW5jZT0iMTAiIGd1aWRldG9sZXJhbmNlPSIxMCIgaWQ9Im5hbWVkdmlldzI1NDY0NCIgaW5rc2NhcGU6Y3VycmVudC1sYXllcj0ic3ZnMjU0NjQyIiBpbmtzY2FwZTpjeD0iOTQuMjk5MDE2IiBpbmtzY2FwZTpjeT0iMTYuNzY4ODQzIiBpbmtzY2FwZTpwYWdlb3BhY2l0eT0iMCIgaW5rc2NhcGU6cGFnZXNoYWRvdz0iMiIgaW5rc2NhcGU6d2luZG93LWhlaWdodD0iMTAxNyIgaW5rc2NhcGU6d2luZG93LW1heGltaXplZD0iMSIgaW5rc2NhcGU6d2luZG93LXdpZHRoPSIxOTIwIiBpbmtzY2FwZTp3aW5kb3cteD0iLTgiIGlua3NjYXBlOndpbmRvdy15PSItOCIgaW5rc2NhcGU6em9vbT0iOS4wNTY5OTg2IiBvYmplY3R0b2xlcmFuY2U9IjEwIiBwYWdlY29sb3I9IiNmZmZmZmYiIHNob3dncmlkPSJmYWxzZSI+JiN4YTsJPC9zb2RpcG9kaTpuYW1lZHZpZXc+JiN4YTs8ZyBpZD0iZzI1NDY0MCIgdHJhbnNmb3JtPSJ0cmFuc2xhdGUoLTMuMDU4NDcsLTMuMDYxNTc0NSkiPiYjeGE7CTx0aXRsZSBpZD0idGl0bGUyNTQ2MTQiPlBhZ2UtMTwvdGl0bGU+JiN4YTsJPGcgaWQ9Imdyb3VwNTgwNS0xIiB0cmFuc2Zvcm09InRyYW5zbGF0ZSgzLjA1ODQ3LC0zLjA1ODQ3KSI+JiN4YTsJCTx0aXRsZSBpZD0idGl0bGUyNTQ2MTYiPlNBUCBTLzQgSEFOQTwvdGl0bGU+JiN4YTsJCTxnIGlkPSJzaGFwZTU4MDYtMiIgdHJhbnNmb3JtPSJ0cmFuc2xhdGUoNDYuMjc4MiwtNC4zODA1MykiPiYjeGE7CQkJPHRpdGxlIGlkPSJ0aXRsZTI1NDYxOCI+U2hlZXQuNTgwNjwvdGl0bGU+JiN4YTsJCQk8cGF0aCBpZD0icGF0aDI1NDYyMCIgaW5rc2NhcGU6Y29ubmVjdG9yLWN1cnZhdHVyZT0iMCIgc3R5bGU9ImZpbGw6IzAwOEZEMzsiIGQ9Ik0zOS4zNSwzMC43OFYxNS4yM2gzLjR2Ni4wMWg2LjA3VjE1LjNoMy4zOSAgICAgdjE1LjU1aC0zLjM5VjI0LjJoLTYuMDd2Ni42NWgtMy40VjMwLjc4eiBNNTIuNzEsMzAuNzhsNS41MS0xNS41NWgzLjI1bDUuNTEsMTUuNTVoLTMuNDZsLTEuMTMtMy40N2gtNS4zbC0xLjIsMy40N0g1Mi43MXogICAgICBNNTcuODcsMjQuODRoMy42N2wtMS43Ny01LjNINTkuN0w1Ny44NywyNC44NHogTTY3LjMzLDMwLjc4VjE1LjIzaDMuMzlsNi41LDkuODloMC4wOHYtOS44OWgzLjF2MTUuNTVoLTMuMWwtNi43OS05Ljk3aC0wLjA3ICAgICB2OS45N0w2Ny4zMywzMC43OHogTTgwLjksMzAuNzhsNS41MS0xNS41NWgzLjI1bDUuNTEsMTUuNTVoLTMuNDZsLTEuMTMtMy40N2gtNS4zbC0xLjIsMy40N0g4MC45eiBNODYuMDYsMjQuODRoMy42N2wtMS43Ny01LjMgICAgIGgtMC4wN0w4Ni4wNiwyNC44NHogTTAsMjcuMzhsMi42MS0xLjU1YzAuODUsMS43LDIuNDEsMi42OCw0LjI0LDIuNjhjMS41NiwwLDIuNjktMC41NiwyLjY5LTEuNzZzLTEuMTMtMS43LTMuMTgtMi4yNiAgICAgQzMuNiwyMy43MSwwLjcxLDIzLDAuNzEsMTkuNzVjMC0yLjg5LDIuMjYtNC42Niw1LjY1LTQuNjZjMy4xOCwwLDUuMDksMS41NSw2LjIyLDMuMThsLTIuNDEsMS44NCAgICAgYy0wLjg0LTEuMzUtMi4zMy0yLjE5LTMuODEtMi4xOVM0LjEsMTguNTUsNC4xLDE5LjQ3YzAsMS4yNywxLjEzLDEuNywzLjE4LDIuMjZjMi43NSwwLjcxLDUuNjUsMS42Myw1LjY1LDQuODEgICAgIGMwLDIuNDctMS45MSw0LjczLTYuMjIsNC43M0MzLjMyLDMxLjIsMS4yLDI5LjU3LDAsMjcuMzh6IE0xMi43OSwzMC45Mmw4LjEyLTE1LjU1aDMuNDdsLTguMTMsMTUuNTVIMTIuNzl6IE0yOS4xMSwzMC45MnYtMy4wNCAgICAgaC03LjU2di0yLjQ3bDcuMDYtMTAuMDRoMy43NXY5LjgyaDIuNjF2Mi42OWgtMi42MXYzLjA0SDI5LjExeiBNMjUuMDgsMjUuMTloNC4wM3YtNS43MmgtMC4wN0wyNS4wOCwyNS4xOXoiLz4mI3hhOwkJPC9nPiYjeGE7CQk8ZyBpZD0iZ3JvdXA1ODA3LTQiPiYjeGE7CQkJPHRpdGxlIGlkPSJ0aXRsZTI1NDYyMyI+U2hlZXQuNTgwNzwvdGl0bGU+JiN4YTsJCQk8ZyBpZD0iZ3JvdXA1ODA4LTUiPiYjeGE7CQkJCTx0aXRsZSBpZD0idGl0bGUyNTQ2MjUiPlNoZWV0LjU4MDg8L3RpdGxlPiYjeGE7CQkJCTxnIGlkPSJzaGFwZTU4MDktNiI+JiN4YTsJCQkJCTx0aXRsZSBpZD0idGl0bGUyNTQ2MjciPlNoZWV0LjU4MDk8L3RpdGxlPiYjeGE7CQkJCQkmI3hhOwkJCQkJCTxsaW5lYXJHcmFkaWVudCBpZD0icGF0aDI1NDYyOV8xXyIgZ3JhZGllbnRVbml0cz0idXNlclNwYWNlT25Vc2UiIHgxPSItNjkuNDY2NiIgeTE9Ii0xNTMuNzUiIHgyPSItMzMuNjk4MiIgeTI9Ii0xNTMuNzUiIGdyYWRpZW50VHJhbnNmb3JtPSJtYXRyaXgoMS40MjIyIDAgMCAtMC43MDMxIDk4Ljc5NTcgLTg5LjQxMTgpIj4mI3hhOwkJCQkJCTxzdG9wIG9mZnNldD0iMCIgc3R5bGU9InN0b3AtY29sb3I6IzAwQjhGMSIvPiYjeGE7CQkJCQkJPHN0b3Agb2Zmc2V0PSIwLjAxNSIgc3R5bGU9InN0b3AtY29sb3I6IzAxQjZGMCIvPiYjeGE7CQkJCQkJPHN0b3Agb2Zmc2V0PSIwLjMxIiBzdHlsZT0ic3RvcC1jb2xvcjojMEQ5MEQ5Ii8+JiN4YTsJCQkJCQk8c3RvcCBvZmZzZXQ9IjAuNTgiIHN0eWxlPSJzdG9wLWNvbG9yOiMxNzc1QzgiLz4mI3hhOwkJCQkJCTxzdG9wIG9mZnNldD0iMC44MTUiIHN0eWxlPSJzdG9wLWNvbG9yOiMxQzY1QkYiLz4mI3hhOwkJCQkJCTxzdG9wIG9mZnNldD0iMSIgc3R5bGU9InN0b3AtY29sb3I6IzFFNUZCQiIvPiYjeGE7CQkJCQk8L2xpbmVhckdyYWRpZW50PiYjeGE7CQkJCQk8cGF0aCBpZD0icGF0aDI1NDYyOSIgaW5rc2NhcGU6Y29ubmVjdG9yLWN1cnZhdHVyZT0iMCIgc3R5bGU9ImZpbGw6dXJsKCNwYXRoMjU0NjI5XzFfKTsiIGQ9Ik0wLDMxLjI3aDI1LjcyTDUwLjg3LDYuMTJIMCAgICAgICBWMzEuMjd6Ii8+JiN4YTsJCQkJPC9nPiYjeGE7CQkJPC9nPiYjeGE7CQkJPGcgaWQ9InNoYXBlNTgxMC0xMCIgdHJhbnNmb3JtPSJ0cmFuc2xhdGUoMC43MDY1MzgsLTQuNTkyNDkpIj4mI3hhOwkJCQk8dGl0bGUgaWQ9InRpdGxlMjU0NjMzIj5TaGVldC41ODEwPC90aXRsZT4mI3hhOwkJCQk8cGF0aCBpZD0icGF0aDI1NDYzNSIgaW5rc2NhcGU6Y29ubmVjdG9yLWN1cnZhdHVyZT0iMCIgc3R5bGU9ImZpbGw6I0ZGRkZGRjsiIGQ9Ik0yOS40NiwxNS40NGgtNS4wMXYxMS45NGwtNC4zMS0xMS45NGgtNC4zMSAgICAgIGwtMy44Miw5Ljk3Yy0wLjQyLTIuNTUtMi45Ny0zLjQtNS4wMi00LjAzYy0xLjM0LTAuNDMtMi43NS0xLjA2LTIuNzUtMS43N2MwLTAuNTYsMC43OC0xLjEzLDIuMjYtMS4wNiAgICAgIGMwLjk5LDAuMDcsMS45MSwwLjE0LDMuNjcsMC45OWwxLjc3LTMuMDRjLTEuNjItMC44NC0zLjgxLTEuMzQtNS42NS0xLjM0Yy0yLjEyLDAtMy44OSwwLjcxLTUuMDIsMS44NCAgICAgIEMwLjQyLDE3Ljc3LDAsMTguODMsMCwxOS44OWMwLDEuNTYsMC41NywyLjYyLDEuNywzLjQ3YzAuOTgsMC43LDIuMjYsMS4yLDMuMzksMS41NWMxLjQxLDAuNDIsMi41NCwwLjc4LDIuNTQsMS42MyAgICAgIGMwLDAuMjgtMC4xNCwwLjU2LTAuMzUsMC43N2MtMC4zNiwwLjM2LTAuODUsMC41LTEuNjMsMC41Yy0xLjQxLDAtMi40Ny0wLjIxLTQuMTctMS4yTDAsMjkuNzljMS43LDAuOTEsMy42NywxLjQ4LDUuNjUsMS40OCAgICAgIGgwLjI4YzEuNzcsMCwzLjE4LTAuNTcsNC4zMS0xLjQxYzAuMDgtMC4wNywwLjE1LTAuMDcsMC4yMi0wLjE0bC0wLjU3LDEuMjdoNC41MmwwLjc4LTIuMzNjMC43OCwwLjI4LDEuNywwLjQyLDIuNjksMC40MiAgICAgIGMwLjkxLDAsMS44My0wLjE0LDIuNjEtMC40MmwwLjcxLDIuMzNoNy40MXYtNC44MWgxLjYzYzMuODksMCw2LjIyLTEuOTgsNi4yMi01LjNDMzYuNTMsMTcuMTQsMzQuMjcsMTUuNDQsMjkuNDYsMTUuNDR6ICAgICAgIE0xNy44OCwyNS42MmMtMC41NywwLTEuMTQtMC4wNy0xLjYzLTAuMjlsMS41NS01LjAxbDEuNTYsNS4wMUMxOS4wMSwyNS41NSwxOC41MSwyNS42MiwxNy44OCwyNS42MnogTTI5Ljc1LDIyLjcyaC0xLjE0di00LjAzICAgICAgaDEuMTRjMS40OCwwLDIuNjEsMC41LDIuNjEsMS45OEMzMi40MywyMi4zLDMxLjIzLDIyLjcyLDI5Ljc1LDIyLjcyeiIvPiYjeGE7CQkJPC9nPiYjeGE7CQk8L2c+JiN4YTsJPC9nPiYjeGE7PC9nPiYjeGE7PC9zdmc+;" vertex="1" parent="1">
          <mxGeometry y="470" width="141" height="25" as="geometry" />
        </mxCell>
        <mxCell id="0KH5nl5nT1wfXX2kWhob-65" value="&lt;b&gt;&lt;font style=&quot;font-size: 14px&quot;&gt;DEVELOPMENT&lt;/font&gt;&lt;/b&gt;" style="text;html=1;resizable=0;autosize=1;align=center;verticalAlign=middle;points=[];fillColor=none;strokeColor=none;rounded=0;" vertex="1" parent="1">
          <mxGeometry x="20.5" y="243" width="120" height="20" as="geometry" />
        </mxCell>
        <mxCell id="0KH5nl5nT1wfXX2kWhob-66" value="&lt;b&gt;&lt;font style=&quot;font-size: 14px&quot;&gt;QUALITY ASSURANCE&lt;/font&gt;&lt;/b&gt;" style="text;html=1;resizable=0;autosize=1;align=center;verticalAlign=middle;points=[];fillColor=none;strokeColor=none;rounded=0;" vertex="1" parent="1">
          <mxGeometry x="-4.5" y="510" width="170" height="20" as="geometry" />
        </mxCell>
        <mxCell id="0KH5nl5nT1wfXX2kWhob-67" value="&lt;b&gt;&lt;font style=&quot;font-size: 14px&quot;&gt;PRODUCTION&lt;/font&gt;&lt;/b&gt;" style="text;html=1;resizable=0;autosize=1;align=center;verticalAlign=middle;points=[];fillColor=none;strokeColor=none;rounded=0;" vertex="1" parent="1">
          <mxGeometry x="25" y="385" width="110" height="20" as="geometry" />
        </mxCell>
        <mxCell id="0KH5nl5nT1wfXX2kWhob-76" value="" style="group" vertex="1" connectable="0" parent="1">
          <mxGeometry x="410" y="440" width="240" height="75" as="geometry" />
        </mxCell>
        <mxCell id="22" value="" style="strokeColor=#dddddd;fillColor=#ffffff;shadow=1;strokeWidth=1;rounded=1;absoluteArcSize=1;arcSize=2;fontSize=11;fontColor=#9E9E9E;align=center;html=1;" parent="0KH5nl5nT1wfXX2kWhob-76" vertex="1">
          <mxGeometry y="-1.7307692307692306" width="227.36842105263156" height="69.23076923076923" as="geometry" />
        </mxCell>
        <mxCell id="0KH5nl5nT1wfXX2kWhob-72" value="" style="strokeColor=#dddddd;fillColor=#ffffff;shadow=1;strokeWidth=1;rounded=1;absoluteArcSize=1;arcSize=2;fontSize=11;fontColor=#9E9E9E;align=center;html=1;" vertex="1" parent="0KH5nl5nT1wfXX2kWhob-76">
          <mxGeometry width="227.36842105263156" height="75" as="geometry" />
        </mxCell>
        <mxCell id="0KH5nl5nT1wfXX2kWhob-68" value="" style="shape=image;verticalLabelPosition=bottom;labelBackgroundColor=#ffffff;verticalAlign=top;aspect=fixed;imageAspect=0;image=data:image/svg+xml,PHN2ZyB4bWxuczpjYz0iaHR0cDovL2NyZWF0aXZlY29tbW9ucy5vcmcvbnMjIiB4bWxuczpkYz0iaHR0cDovL3B1cmwub3JnL2RjL2VsZW1lbnRzLzEuMS8iIHhtbG5zOmlua3NjYXBlPSJodHRwOi8vd3d3Lmlua3NjYXBlLm9yZy9uYW1lc3BhY2VzL2lua3NjYXBlIiB4bWxuczpyZGY9Imh0dHA6Ly93d3cudzMub3JnLzE5OTkvMDIvMjItcmRmLXN5bnRheC1ucyMiIHhtbG5zOnNvZGlwb2RpPSJodHRwOi8vc29kaXBvZGkuc291cmNlZm9yZ2UubmV0L0RURC9zb2RpcG9kaS0wLmR0ZCIgeG1sbnM6c3ZnPSJodHRwOi8vd3d3LnczLm9yZy8yMDAwL3N2ZyIgeG1sbnM9Imh0dHA6Ly93d3cudzMub3JnLzIwMDAvc3ZnIiB4bWxuczp4bGluaz0iaHR0cDovL3d3dy53My5vcmcvMTk5OS94bGluayIgdmVyc2lvbj0iMS4xIiBpZD0ic3ZnMTA4Mzc5IiBpbmtzY2FwZTp2ZXJzaW9uPSIwLjkyLjMgKDI0MDU1NDYsIDIwMTgtMDMtMTEpIiBzb2RpcG9kaTpkb2NuYW1lPSJ0YWJsZXNfMS5zdmciIHg9IjBweCIgeT0iMHB4IiB2aWV3Qm94PSIwIDAgNTMuNDggNDYuNjciIHN0eWxlPSJlbmFibGUtYmFja2dyb3VuZDpuZXcgMCAwIDUzLjQ4IDQ2LjY3OyIgeG1sOnNwYWNlPSJwcmVzZXJ2ZSI+JiN4YTs8c29kaXBvZGk6bmFtZWR2aWV3IGJvcmRlcmNvbG9yPSIjNjY2NjY2IiBib3JkZXJvcGFjaXR5PSIxIiBmaXQtbWFyZ2luLWJvdHRvbT0iMCIgZml0LW1hcmdpbi1sZWZ0PSIwIiBmaXQtbWFyZ2luLXJpZ2h0PSIwIiBmaXQtbWFyZ2luLXRvcD0iMCIgZ3JpZHRvbGVyYW5jZT0iMTAiIGd1aWRldG9sZXJhbmNlPSIxMCIgaWQ9Im5hbWVkdmlldzEwODM4MSIgaW5rc2NhcGU6Y3VycmVudC1sYXllcj0ic3ZnMTA4Mzc5IiBpbmtzY2FwZTpjeD0iMzUuNjUyNTciIGlua3NjYXBlOmN5PSIzMS4xMTE1NzIiIGlua3NjYXBlOnBhZ2VvcGFjaXR5PSIwIiBpbmtzY2FwZTpwYWdlc2hhZG93PSIyIiBpbmtzY2FwZTp3aW5kb3ctaGVpZ2h0PSIxMDE3IiBpbmtzY2FwZTp3aW5kb3ctbWF4aW1pemVkPSIxIiBpbmtzY2FwZTp3aW5kb3ctd2lkdGg9IjE5MjAiIGlua3NjYXBlOndpbmRvdy14PSItOCIgaW5rc2NhcGU6d2luZG93LXk9Ii04IiBpbmtzY2FwZTp6b29tPSIxMy45MzIxNjkiIG9iamVjdHRvbGVyYW5jZT0iMTAiIHBhZ2Vjb2xvcj0iI2ZmZmZmZiIgc2hvd2dyaWQ9ImZhbHNlIj4mI3hhOwk8L3NvZGlwb2RpOm5hbWVkdmlldz4mI3hhOzxnIGlkPSJnMTA4Mzc3IiB0cmFuc2Zvcm09InRyYW5zbGF0ZSgtMy45NzMzODM3ZS01KSI+JiN4YTsJPHRpdGxlIGlkPSJ0aXRsZTEwODM3MCI+UGFnZS0xPC90aXRsZT4mI3hhOwk8ZyBpZD0ic2hhcGUzOTI5LTEiPiYjeGE7CQk8dGl0bGUgaWQ9InRpdGxlMTA4MzcyIj5UYWJsZXMgIzE8L3RpdGxlPiYjeGE7CQk8cGF0aCBpZD0icGF0aDEwODM3NCIgaW5rc2NhcGU6Y29ubmVjdG9yLWN1cnZhdHVyZT0iMCIgc3R5bGU9ImZpbGw6IzNGNTc2NTsiIGQ9Ik01Mi4zNiwwQzEuMTMsMCwxLjEzLDAsMS4xMywwICAgIEMwLjQ3LDAsMCwwLjQ3LDAsMS4xM2MwLDQ0LjQyLDAsNDQuNDIsMCw0NC40MmMwLDAuNTYsMC40NywxLjEyLDEuMTMsMS4xMmM1MS4yMywwLDUxLjIzLDAsNTEuMjMsMGMwLjU2LDAsMS4xMi0wLjU2LDEuMTItMS4xMiAgICBjMC00NC40MiwwLTQ0LjQyLDAtNDQuNDJDNTMuNDgsMC40Nyw1Mi45MiwwLDUyLjM2LDB6IE0xMi45NSw0My40YzAtNi4zNiwwLTYuMzYsMC02LjM2YzcuOTcsMCw3Ljk3LDAsNy45NywwICAgIGMwLDYuMzYsMCw2LjM2LDAsNi4zNkgxMi45NXogTTIwLjkyLDIwLjExYzAsNi41NSwwLDYuNTUsMCw2LjU1Yy03Ljk3LDAtNy45NywwLTcuOTcsMGMwLTYuNTUsMC02LjU1LDAtNi41NUgyMC45MnogTTEyLjk1LDE4LjI0ICAgIGMwLTYuNjQsMC02LjY0LDAtNi42NGM3Ljk3LDAsNy45NywwLDcuOTcsMGMwLDYuNjQsMCw2LjY0LDAsNi42NEgxMi45NXogTTIwLjkyLDI4LjUzYzAsNi42NCwwLDYuNjQsMCw2LjY0ICAgIGMtNy45NywwLTcuOTcsMC03Ljk3LDBjMC02LjY0LDAtNi42NCwwLTYuNjRIMjAuOTJ6IE0yMi44LDQzLjRjMC02LjM2LDAtNi4zNiwwLTYuMzZjNy44OCwwLDcuODgsMCw3Ljg4LDBjMCw2LjM2LDAsNi4zNiwwLDYuMzYgICAgSDIyLjh6IE0zMC42OCwyMC4xMWMwLDYuNTUsMCw2LjU1LDAsNi41NWMtNy44OCwwLTcuODgsMC03Ljg4LDBjMC02LjU1LDAtNi41NSwwLTYuNTVIMzAuNjh6IE0yMi44LDE4LjI0YzAtNi42NCwwLTYuNjQsMC02LjY0ICAgIGM3Ljg4LDAsNy44OCwwLDcuODgsMGMwLDYuNjQsMCw2LjY0LDAsNi42NEgyMi44eiBNMzAuNjgsMjguNTNjMCw2LjY0LDAsNi42NCwwLDYuNjRjLTcuODgsMC03Ljg4LDAtNy44OCwwYzAtNi42NCwwLTYuNjQsMC02LjY0ICAgIEgzMC42OHogTTMyLjU2LDQzLjRjMC02LjM2LDAtNi4zNiwwLTYuMzZjNy45NywwLDcuOTcsMCw3Ljk3LDBjMCw2LjM2LDAsNi4zNiwwLDYuMzZIMzIuNTZ6IE00MC41MywyMC4xMWMwLDYuNTUsMCw2LjU1LDAsNi41NSAgICBjLTcuOTcsMC03Ljk3LDAtNy45NywwYzAtNi41NSwwLTYuNTUsMC02LjU1SDQwLjUzeiBNMzIuNTYsMTguMjRjMC02LjY0LDAtNi42NCwwLTYuNjRjNy45NywwLDcuOTcsMCw3Ljk3LDAgICAgYzAsNi42NCwwLDYuNjQsMCw2LjY0SDMyLjU2eiBNNDAuNTMsMjguNTNjMCw2LjY0LDAsNi42NCwwLDYuNjRjLTcuOTcsMC03Ljk3LDAtNy45NywwYzAtNi42NCwwLTYuNjQsMC02LjY0SDQwLjUzeiBNNDIuNDEsNDMuNCAgICBjMC02LjM2LDAtNi4zNiwwLTYuMzZjNy43OSwwLDcuNzksMCw3Ljc5LDBjMCw2LjM2LDAsNi4zNiwwLDYuMzZINDIuNDF6IE00Mi40MSwzNS4xN2MwLTYuNjQsMC02LjY0LDAtNi42NGM3Ljc5LDAsNy43OSwwLDcuNzksMCAgICBjMCw2LjY0LDAsNi42NCwwLDYuNjRINDIuNDF6IE00Mi40MSwyNi42NmMwLTYuNTUsMC02LjU1LDAtNi41NWM3Ljc5LDAsNy43OSwwLDcuNzksMGMwLDYuNTUsMCw2LjU1LDAsNi41NUw0Mi40MSwyNi42NnogICAgIE00Mi40MSwxOC4yNGMwLTYuNjQsMC02LjY0LDAtNi42NGM3Ljc5LDAsNy43OSwwLDcuNzksMGMwLDYuNjQsMCw2LjY0LDAsNi42NEg0Mi40MXogTTUwLjIsMy4yN2MwLDYuNDYsMCw2LjQ2LDAsNi40NiAgICBjLTcuNzksMC03Ljc5LDAtNy43OSwwYzAtNi40NiwwLTYuNDYsMC02LjQ2TDUwLjIsMy4yN3ogTTQwLjUzLDMuMjdjMCw2LjQ2LDAsNi40NiwwLDYuNDZjLTcuOTcsMC03Ljk3LDAtNy45NywwICAgIGMwLTYuNDYsMC02LjQ2LDAtNi40Nkw0MC41MywzLjI3eiBNMzAuNjgsMy4yN2MwLDYuNDYsMCw2LjQ2LDAsNi40NmMtNy44OCwwLTcuODgsMC03Ljg4LDBjMC02LjQ2LDAtNi40NiwwLTYuNDZMMzAuNjgsMy4yN3ogICAgIE0yMC45MiwzLjI3YzAsNi40NiwwLDYuNDYsMCw2LjQ2Yy03Ljk3LDAtNy45NywwLTcuOTcsMGMwLTYuNDYsMC02LjQ2LDAtNi40NkwyMC45MiwzLjI3eiBNMTEuMDcsOS43M2MtNy43OSwwLTcuNzksMC03Ljc5LDAgICAgYzAtNi40NiwwLTYuNDYsMC02LjQ2YzcuNzksMCw3Ljc5LDAsNy43OSwwVjkuNzN6IE0xMS4wNywxMS42YzAsNi42NCwwLDYuNjQsMCw2LjY0Yy03Ljc5LDAtNy43OSwwLTcuNzksMGMwLTYuNjQsMC02LjY0LDAtNi42NCAgICBMMTEuMDcsMTEuNnogTTExLjA3LDIwLjExYzAsNi41NSwwLDYuNTUsMCw2LjU1Yy03Ljc5LDAtNy43OSwwLTcuNzksMGMwLTYuNTUsMC02LjU1LDAtNi41NUgxMS4wN3ogTTExLjA3LDI4LjUzICAgIGMwLDYuNjQsMCw2LjY0LDAsNi42NGMtNy43OSwwLTcuNzksMC03Ljc5LDBjMC02LjY0LDAtNi42NCwwLTYuNjRMMTEuMDcsMjguNTN6IE0xMS4wNywzNy4wNGMwLDYuMzYsMCw2LjM2LDAsNi4zNiAgICBjLTcuNzksMC03Ljc5LDAtNy43OSwwYzAtNi4zNiwwLTYuMzYsMC02LjM2SDExLjA3eiIvPiYjeGE7CTwvZz4mI3hhOzwvZz4mI3hhOzwvc3ZnPg==;fillColor=#D4E1F5;" vertex="1" parent="0KH5nl5nT1wfXX2kWhob-76">
          <mxGeometry x="5.368421052631579" y="13.269230769230768" width="61.153846153846146" height="54.230769230769226" as="geometry" />
        </mxCell>
        <mxCell id="0KH5nl5nT1wfXX2kWhob-69" value="&lt;font style=&quot;font-size: 14px&quot;&gt;&lt;b&gt;Load Config&lt;br&gt;&lt;/b&gt;Source to Target&lt;/font&gt;" style="text;html=1;resizable=0;autosize=1;align=center;verticalAlign=middle;points=[];fillColor=none;strokeColor=none;rounded=0;" vertex="1" parent="0KH5nl5nT1wfXX2kWhob-76">
          <mxGeometry x="75.78947368421052" y="23.076923076923073" width="120" height="30" as="geometry" />
        </mxCell>
        <mxCell id="0KH5nl5nT1wfXX2kWhob-79" value="" style="group" vertex="1" connectable="0" parent="1">
          <mxGeometry x="470" y="252.5" width="180" height="65" as="geometry" />
        </mxCell>
        <mxCell id="0KH5nl5nT1wfXX2kWhob-80" value="" style="strokeColor=#dddddd;fillColor=#ffffff;shadow=1;strokeWidth=1;rounded=1;absoluteArcSize=1;arcSize=2;fontSize=11;fontColor=#9E9E9E;align=center;html=1;" vertex="1" parent="0KH5nl5nT1wfXX2kWhob-79">
          <mxGeometry width="150" height="65" as="geometry" />
        </mxCell>
        <mxCell id="0KH5nl5nT1wfXX2kWhob-81" value="" style="shape=image;verticalLabelPosition=bottom;labelBackgroundColor=#ffffff;verticalAlign=top;aspect=fixed;imageAspect=0;image=data:image/svg+xml,PHN2ZyB4bWxuczpjYz0iaHR0cDovL2NyZWF0aXZlY29tbW9ucy5vcmcvbnMjIiB4bWxuczpkYz0iaHR0cDovL3B1cmwub3JnL2RjL2VsZW1lbnRzLzEuMS8iIHhtbG5zOmlua3NjYXBlPSJodHRwOi8vd3d3Lmlua3NjYXBlLm9yZy9uYW1lc3BhY2VzL2lua3NjYXBlIiB4bWxuczpyZGY9Imh0dHA6Ly93d3cudzMub3JnLzE5OTkvMDIvMjItcmRmLXN5bnRheC1ucyMiIHhtbG5zOnNvZGlwb2RpPSJodHRwOi8vc29kaXBvZGkuc291cmNlZm9yZ2UubmV0L0RURC9zb2RpcG9kaS0wLmR0ZCIgeG1sbnM6c3ZnPSJodHRwOi8vd3d3LnczLm9yZy8yMDAwL3N2ZyIgeG1sbnM9Imh0dHA6Ly93d3cudzMub3JnLzIwMDAvc3ZnIiB4bWxuczp4bGluaz0iaHR0cDovL3d3dy53My5vcmcvMTk5OS94bGluayIgdmVyc2lvbj0iMS4xIiBpZD0ic3ZnMTA4Mzc5IiBpbmtzY2FwZTp2ZXJzaW9uPSIwLjkyLjMgKDI0MDU1NDYsIDIwMTgtMDMtMTEpIiBzb2RpcG9kaTpkb2NuYW1lPSJ0YWJsZXNfMS5zdmciIHg9IjBweCIgeT0iMHB4IiB2aWV3Qm94PSIwIDAgNTMuNDggNDYuNjciIHN0eWxlPSJlbmFibGUtYmFja2dyb3VuZDpuZXcgMCAwIDUzLjQ4IDQ2LjY3OyIgeG1sOnNwYWNlPSJwcmVzZXJ2ZSI+JiN4YTs8c29kaXBvZGk6bmFtZWR2aWV3IGJvcmRlcmNvbG9yPSIjNjY2NjY2IiBib3JkZXJvcGFjaXR5PSIxIiBmaXQtbWFyZ2luLWJvdHRvbT0iMCIgZml0LW1hcmdpbi1sZWZ0PSIwIiBmaXQtbWFyZ2luLXJpZ2h0PSIwIiBmaXQtbWFyZ2luLXRvcD0iMCIgZ3JpZHRvbGVyYW5jZT0iMTAiIGd1aWRldG9sZXJhbmNlPSIxMCIgaWQ9Im5hbWVkdmlldzEwODM4MSIgaW5rc2NhcGU6Y3VycmVudC1sYXllcj0ic3ZnMTA4Mzc5IiBpbmtzY2FwZTpjeD0iMzUuNjUyNTciIGlua3NjYXBlOmN5PSIzMS4xMTE1NzIiIGlua3NjYXBlOnBhZ2VvcGFjaXR5PSIwIiBpbmtzY2FwZTpwYWdlc2hhZG93PSIyIiBpbmtzY2FwZTp3aW5kb3ctaGVpZ2h0PSIxMDE3IiBpbmtzY2FwZTp3aW5kb3ctbWF4aW1pemVkPSIxIiBpbmtzY2FwZTp3aW5kb3ctd2lkdGg9IjE5MjAiIGlua3NjYXBlOndpbmRvdy14PSItOCIgaW5rc2NhcGU6d2luZG93LXk9Ii04IiBpbmtzY2FwZTp6b29tPSIxMy45MzIxNjkiIG9iamVjdHRvbGVyYW5jZT0iMTAiIHBhZ2Vjb2xvcj0iI2ZmZmZmZiIgc2hvd2dyaWQ9ImZhbHNlIj4mI3hhOwk8L3NvZGlwb2RpOm5hbWVkdmlldz4mI3hhOzxnIGlkPSJnMTA4Mzc3IiB0cmFuc2Zvcm09InRyYW5zbGF0ZSgtMy45NzMzODM3ZS01KSI+JiN4YTsJPHRpdGxlIGlkPSJ0aXRsZTEwODM3MCI+UGFnZS0xPC90aXRsZT4mI3hhOwk8ZyBpZD0ic2hhcGUzOTI5LTEiPiYjeGE7CQk8dGl0bGUgaWQ9InRpdGxlMTA4MzcyIj5UYWJsZXMgIzE8L3RpdGxlPiYjeGE7CQk8cGF0aCBpZD0icGF0aDEwODM3NCIgaW5rc2NhcGU6Y29ubmVjdG9yLWN1cnZhdHVyZT0iMCIgc3R5bGU9ImZpbGw6IzNGNTc2NTsiIGQ9Ik01Mi4zNiwwQzEuMTMsMCwxLjEzLDAsMS4xMywwICAgIEMwLjQ3LDAsMCwwLjQ3LDAsMS4xM2MwLDQ0LjQyLDAsNDQuNDIsMCw0NC40MmMwLDAuNTYsMC40NywxLjEyLDEuMTMsMS4xMmM1MS4yMywwLDUxLjIzLDAsNTEuMjMsMGMwLjU2LDAsMS4xMi0wLjU2LDEuMTItMS4xMiAgICBjMC00NC40MiwwLTQ0LjQyLDAtNDQuNDJDNTMuNDgsMC40Nyw1Mi45MiwwLDUyLjM2LDB6IE0xMi45NSw0My40YzAtNi4zNiwwLTYuMzYsMC02LjM2YzcuOTcsMCw3Ljk3LDAsNy45NywwICAgIGMwLDYuMzYsMCw2LjM2LDAsNi4zNkgxMi45NXogTTIwLjkyLDIwLjExYzAsNi41NSwwLDYuNTUsMCw2LjU1Yy03Ljk3LDAtNy45NywwLTcuOTcsMGMwLTYuNTUsMC02LjU1LDAtNi41NUgyMC45MnogTTEyLjk1LDE4LjI0ICAgIGMwLTYuNjQsMC02LjY0LDAtNi42NGM3Ljk3LDAsNy45NywwLDcuOTcsMGMwLDYuNjQsMCw2LjY0LDAsNi42NEgxMi45NXogTTIwLjkyLDI4LjUzYzAsNi42NCwwLDYuNjQsMCw2LjY0ICAgIGMtNy45NywwLTcuOTcsMC03Ljk3LDBjMC02LjY0LDAtNi42NCwwLTYuNjRIMjAuOTJ6IE0yMi44LDQzLjRjMC02LjM2LDAtNi4zNiwwLTYuMzZjNy44OCwwLDcuODgsMCw3Ljg4LDBjMCw2LjM2LDAsNi4zNiwwLDYuMzYgICAgSDIyLjh6IE0zMC42OCwyMC4xMWMwLDYuNTUsMCw2LjU1LDAsNi41NWMtNy44OCwwLTcuODgsMC03Ljg4LDBjMC02LjU1LDAtNi41NSwwLTYuNTVIMzAuNjh6IE0yMi44LDE4LjI0YzAtNi42NCwwLTYuNjQsMC02LjY0ICAgIGM3Ljg4LDAsNy44OCwwLDcuODgsMGMwLDYuNjQsMCw2LjY0LDAsNi42NEgyMi44eiBNMzAuNjgsMjguNTNjMCw2LjY0LDAsNi42NCwwLDYuNjRjLTcuODgsMC03Ljg4LDAtNy44OCwwYzAtNi42NCwwLTYuNjQsMC02LjY0ICAgIEgzMC42OHogTTMyLjU2LDQzLjRjMC02LjM2LDAtNi4zNiwwLTYuMzZjNy45NywwLDcuOTcsMCw3Ljk3LDBjMCw2LjM2LDAsNi4zNiwwLDYuMzZIMzIuNTZ6IE00MC41MywyMC4xMWMwLDYuNTUsMCw2LjU1LDAsNi41NSAgICBjLTcuOTcsMC03Ljk3LDAtNy45NywwYzAtNi41NSwwLTYuNTUsMC02LjU1SDQwLjUzeiBNMzIuNTYsMTguMjRjMC02LjY0LDAtNi42NCwwLTYuNjRjNy45NywwLDcuOTcsMCw3Ljk3LDAgICAgYzAsNi42NCwwLDYuNjQsMCw2LjY0SDMyLjU2eiBNNDAuNTMsMjguNTNjMCw2LjY0LDAsNi42NCwwLDYuNjRjLTcuOTcsMC03Ljk3LDAtNy45NywwYzAtNi42NCwwLTYuNjQsMC02LjY0SDQwLjUzeiBNNDIuNDEsNDMuNCAgICBjMC02LjM2LDAtNi4zNiwwLTYuMzZjNy43OSwwLDcuNzksMCw3Ljc5LDBjMCw2LjM2LDAsNi4zNiwwLDYuMzZINDIuNDF6IE00Mi40MSwzNS4xN2MwLTYuNjQsMC02LjY0LDAtNi42NGM3Ljc5LDAsNy43OSwwLDcuNzksMCAgICBjMCw2LjY0LDAsNi42NCwwLDYuNjRINDIuNDF6IE00Mi40MSwyNi42NmMwLTYuNTUsMC02LjU1LDAtNi41NWM3Ljc5LDAsNy43OSwwLDcuNzksMGMwLDYuNTUsMCw2LjU1LDAsNi41NUw0Mi40MSwyNi42NnogICAgIE00Mi40MSwxOC4yNGMwLTYuNjQsMC02LjY0LDAtNi42NGM3Ljc5LDAsNy43OSwwLDcuNzksMGMwLDYuNjQsMCw2LjY0LDAsNi42NEg0Mi40MXogTTUwLjIsMy4yN2MwLDYuNDYsMCw2LjQ2LDAsNi40NiAgICBjLTcuNzksMC03Ljc5LDAtNy43OSwwYzAtNi40NiwwLTYuNDYsMC02LjQ2TDUwLjIsMy4yN3ogTTQwLjUzLDMuMjdjMCw2LjQ2LDAsNi40NiwwLDYuNDZjLTcuOTcsMC03Ljk3LDAtNy45NywwICAgIGMwLTYuNDYsMC02LjQ2LDAtNi40Nkw0MC41MywzLjI3eiBNMzAuNjgsMy4yN2MwLDYuNDYsMCw2LjQ2LDAsNi40NmMtNy44OCwwLTcuODgsMC03Ljg4LDBjMC02LjQ2LDAtNi40NiwwLTYuNDZMMzAuNjgsMy4yN3ogICAgIE0yMC45MiwzLjI3YzAsNi40NiwwLDYuNDYsMCw2LjQ2Yy03Ljk3LDAtNy45NywwLTcuOTcsMGMwLTYuNDYsMC02LjQ2LDAtNi40NkwyMC45MiwzLjI3eiBNMTEuMDcsOS43M2MtNy43OSwwLTcuNzksMC03Ljc5LDAgICAgYzAtNi40NiwwLTYuNDYsMC02LjQ2YzcuNzksMCw3Ljc5LDAsNy43OSwwVjkuNzN6IE0xMS4wNywxMS42YzAsNi42NCwwLDYuNjQsMCw2LjY0Yy03Ljc5LDAtNy43OSwwLTcuNzksMGMwLTYuNjQsMC02LjY0LDAtNi42NCAgICBMMTEuMDcsMTEuNnogTTExLjA3LDIwLjExYzAsNi41NSwwLDYuNTUsMCw2LjU1Yy03Ljc5LDAtNy43OSwwLTcuNzksMGMwLTYuNTUsMC02LjU1LDAtNi41NUgxMS4wN3ogTTExLjA3LDI4LjUzICAgIGMwLDYuNjQsMCw2LjY0LDAsNi42NGMtNy43OSwwLTcuNzksMC03Ljc5LDBjMC02LjY0LDAtNi42NCwwLTYuNjRMMTEuMDcsMjguNTN6IE0xMS4wNywzNy4wNGMwLDYuMzYsMCw2LjM2LDAsNi4zNiAgICBjLTcuNzksMC03Ljc5LDAtNy43OSwwYzAtNi4zNiwwLTYuMzYsMC02LjM2SDExLjA3eiIvPiYjeGE7CTwvZz4mI3hhOzwvZz4mI3hhOzwvc3ZnPg==;fillColor=#D4E1F5;" vertex="1" parent="0KH5nl5nT1wfXX2kWhob-79">
          <mxGeometry x="4.25" y="11.5" width="53" height="47" as="geometry" />
        </mxCell>
        <mxCell id="0KH5nl5nT1wfXX2kWhob-82" value="&lt;font style=&quot;font-size: 14px&quot;&gt;&lt;b&gt;Landing&lt;/b&gt;&lt;br&gt;&lt;/font&gt;" style="text;html=1;resizable=0;autosize=1;align=center;verticalAlign=middle;points=[];fillColor=none;strokeColor=none;rounded=0;" vertex="1" parent="0KH5nl5nT1wfXX2kWhob-79">
          <mxGeometry x="60" y="25" width="70" height="20" as="geometry" />
        </mxCell>
        <mxCell id="0KH5nl5nT1wfXX2kWhob-84" value="" style="group" vertex="1" connectable="0" parent="1">
          <mxGeometry x="640" y="252.5" width="180" height="65" as="geometry" />
        </mxCell>
        <mxCell id="0KH5nl5nT1wfXX2kWhob-85" value="" style="strokeColor=#dddddd;fillColor=#ffffff;shadow=1;strokeWidth=1;rounded=1;absoluteArcSize=1;arcSize=2;fontSize=11;fontColor=#9E9E9E;align=center;html=1;" vertex="1" parent="0KH5nl5nT1wfXX2kWhob-84">
          <mxGeometry width="150" height="65" as="geometry" />
        </mxCell>
        <mxCell id="0KH5nl5nT1wfXX2kWhob-86" value="" style="shape=image;verticalLabelPosition=bottom;labelBackgroundColor=#ffffff;verticalAlign=top;aspect=fixed;imageAspect=0;image=data:image/svg+xml,PHN2ZyB4bWxuczpjYz0iaHR0cDovL2NyZWF0aXZlY29tbW9ucy5vcmcvbnMjIiB4bWxuczpkYz0iaHR0cDovL3B1cmwub3JnL2RjL2VsZW1lbnRzLzEuMS8iIHhtbG5zOmlua3NjYXBlPSJodHRwOi8vd3d3Lmlua3NjYXBlLm9yZy9uYW1lc3BhY2VzL2lua3NjYXBlIiB4bWxuczpyZGY9Imh0dHA6Ly93d3cudzMub3JnLzE5OTkvMDIvMjItcmRmLXN5bnRheC1ucyMiIHhtbG5zOnNvZGlwb2RpPSJodHRwOi8vc29kaXBvZGkuc291cmNlZm9yZ2UubmV0L0RURC9zb2RpcG9kaS0wLmR0ZCIgeG1sbnM6c3ZnPSJodHRwOi8vd3d3LnczLm9yZy8yMDAwL3N2ZyIgeG1sbnM9Imh0dHA6Ly93d3cudzMub3JnLzIwMDAvc3ZnIiB4bWxuczp4bGluaz0iaHR0cDovL3d3dy53My5vcmcvMTk5OS94bGluayIgdmVyc2lvbj0iMS4xIiBpZD0ic3ZnMTA4Mzc5IiBpbmtzY2FwZTp2ZXJzaW9uPSIwLjkyLjMgKDI0MDU1NDYsIDIwMTgtMDMtMTEpIiBzb2RpcG9kaTpkb2NuYW1lPSJ0YWJsZXNfMS5zdmciIHg9IjBweCIgeT0iMHB4IiB2aWV3Qm94PSIwIDAgNTMuNDggNDYuNjciIHN0eWxlPSJlbmFibGUtYmFja2dyb3VuZDpuZXcgMCAwIDUzLjQ4IDQ2LjY3OyIgeG1sOnNwYWNlPSJwcmVzZXJ2ZSI+JiN4YTs8c29kaXBvZGk6bmFtZWR2aWV3IGJvcmRlcmNvbG9yPSIjNjY2NjY2IiBib3JkZXJvcGFjaXR5PSIxIiBmaXQtbWFyZ2luLWJvdHRvbT0iMCIgZml0LW1hcmdpbi1sZWZ0PSIwIiBmaXQtbWFyZ2luLXJpZ2h0PSIwIiBmaXQtbWFyZ2luLXRvcD0iMCIgZ3JpZHRvbGVyYW5jZT0iMTAiIGd1aWRldG9sZXJhbmNlPSIxMCIgaWQ9Im5hbWVkdmlldzEwODM4MSIgaW5rc2NhcGU6Y3VycmVudC1sYXllcj0ic3ZnMTA4Mzc5IiBpbmtzY2FwZTpjeD0iMzUuNjUyNTciIGlua3NjYXBlOmN5PSIzMS4xMTE1NzIiIGlua3NjYXBlOnBhZ2VvcGFjaXR5PSIwIiBpbmtzY2FwZTpwYWdlc2hhZG93PSIyIiBpbmtzY2FwZTp3aW5kb3ctaGVpZ2h0PSIxMDE3IiBpbmtzY2FwZTp3aW5kb3ctbWF4aW1pemVkPSIxIiBpbmtzY2FwZTp3aW5kb3ctd2lkdGg9IjE5MjAiIGlua3NjYXBlOndpbmRvdy14PSItOCIgaW5rc2NhcGU6d2luZG93LXk9Ii04IiBpbmtzY2FwZTp6b29tPSIxMy45MzIxNjkiIG9iamVjdHRvbGVyYW5jZT0iMTAiIHBhZ2Vjb2xvcj0iI2ZmZmZmZiIgc2hvd2dyaWQ9ImZhbHNlIj4mI3hhOwk8L3NvZGlwb2RpOm5hbWVkdmlldz4mI3hhOzxnIGlkPSJnMTA4Mzc3IiB0cmFuc2Zvcm09InRyYW5zbGF0ZSgtMy45NzMzODM3ZS01KSI+JiN4YTsJPHRpdGxlIGlkPSJ0aXRsZTEwODM3MCI+UGFnZS0xPC90aXRsZT4mI3hhOwk8ZyBpZD0ic2hhcGUzOTI5LTEiPiYjeGE7CQk8dGl0bGUgaWQ9InRpdGxlMTA4MzcyIj5UYWJsZXMgIzE8L3RpdGxlPiYjeGE7CQk8cGF0aCBpZD0icGF0aDEwODM3NCIgaW5rc2NhcGU6Y29ubmVjdG9yLWN1cnZhdHVyZT0iMCIgc3R5bGU9ImZpbGw6IzNGNTc2NTsiIGQ9Ik01Mi4zNiwwQzEuMTMsMCwxLjEzLDAsMS4xMywwICAgIEMwLjQ3LDAsMCwwLjQ3LDAsMS4xM2MwLDQ0LjQyLDAsNDQuNDIsMCw0NC40MmMwLDAuNTYsMC40NywxLjEyLDEuMTMsMS4xMmM1MS4yMywwLDUxLjIzLDAsNTEuMjMsMGMwLjU2LDAsMS4xMi0wLjU2LDEuMTItMS4xMiAgICBjMC00NC40MiwwLTQ0LjQyLDAtNDQuNDJDNTMuNDgsMC40Nyw1Mi45MiwwLDUyLjM2LDB6IE0xMi45NSw0My40YzAtNi4zNiwwLTYuMzYsMC02LjM2YzcuOTcsMCw3Ljk3LDAsNy45NywwICAgIGMwLDYuMzYsMCw2LjM2LDAsNi4zNkgxMi45NXogTTIwLjkyLDIwLjExYzAsNi41NSwwLDYuNTUsMCw2LjU1Yy03Ljk3LDAtNy45NywwLTcuOTcsMGMwLTYuNTUsMC02LjU1LDAtNi41NUgyMC45MnogTTEyLjk1LDE4LjI0ICAgIGMwLTYuNjQsMC02LjY0LDAtNi42NGM3Ljk3LDAsNy45NywwLDcuOTcsMGMwLDYuNjQsMCw2LjY0LDAsNi42NEgxMi45NXogTTIwLjkyLDI4LjUzYzAsNi42NCwwLDYuNjQsMCw2LjY0ICAgIGMtNy45NywwLTcuOTcsMC03Ljk3LDBjMC02LjY0LDAtNi42NCwwLTYuNjRIMjAuOTJ6IE0yMi44LDQzLjRjMC02LjM2LDAtNi4zNiwwLTYuMzZjNy44OCwwLDcuODgsMCw3Ljg4LDBjMCw2LjM2LDAsNi4zNiwwLDYuMzYgICAgSDIyLjh6IE0zMC42OCwyMC4xMWMwLDYuNTUsMCw2LjU1LDAsNi41NWMtNy44OCwwLTcuODgsMC03Ljg4LDBjMC02LjU1LDAtNi41NSwwLTYuNTVIMzAuNjh6IE0yMi44LDE4LjI0YzAtNi42NCwwLTYuNjQsMC02LjY0ICAgIGM3Ljg4LDAsNy44OCwwLDcuODgsMGMwLDYuNjQsMCw2LjY0LDAsNi42NEgyMi44eiBNMzAuNjgsMjguNTNjMCw2LjY0LDAsNi42NCwwLDYuNjRjLTcuODgsMC03Ljg4LDAtNy44OCwwYzAtNi42NCwwLTYuNjQsMC02LjY0ICAgIEgzMC42OHogTTMyLjU2LDQzLjRjMC02LjM2LDAtNi4zNiwwLTYuMzZjNy45NywwLDcuOTcsMCw3Ljk3LDBjMCw2LjM2LDAsNi4zNiwwLDYuMzZIMzIuNTZ6IE00MC41MywyMC4xMWMwLDYuNTUsMCw2LjU1LDAsNi41NSAgICBjLTcuOTcsMC03Ljk3LDAtNy45NywwYzAtNi41NSwwLTYuNTUsMC02LjU1SDQwLjUzeiBNMzIuNTYsMTguMjRjMC02LjY0LDAtNi42NCwwLTYuNjRjNy45NywwLDcuOTcsMCw3Ljk3LDAgICAgYzAsNi42NCwwLDYuNjQsMCw2LjY0SDMyLjU2eiBNNDAuNTMsMjguNTNjMCw2LjY0LDAsNi42NCwwLDYuNjRjLTcuOTcsMC03Ljk3LDAtNy45NywwYzAtNi42NCwwLTYuNjQsMC02LjY0SDQwLjUzeiBNNDIuNDEsNDMuNCAgICBjMC02LjM2LDAtNi4zNiwwLTYuMzZjNy43OSwwLDcuNzksMCw3Ljc5LDBjMCw2LjM2LDAsNi4zNiwwLDYuMzZINDIuNDF6IE00Mi40MSwzNS4xN2MwLTYuNjQsMC02LjY0LDAtNi42NGM3Ljc5LDAsNy43OSwwLDcuNzksMCAgICBjMCw2LjY0LDAsNi42NCwwLDYuNjRINDIuNDF6IE00Mi40MSwyNi42NmMwLTYuNTUsMC02LjU1LDAtNi41NWM3Ljc5LDAsNy43OSwwLDcuNzksMGMwLDYuNTUsMCw2LjU1LDAsNi41NUw0Mi40MSwyNi42NnogICAgIE00Mi40MSwxOC4yNGMwLTYuNjQsMC02LjY0LDAtNi42NGM3Ljc5LDAsNy43OSwwLDcuNzksMGMwLDYuNjQsMCw2LjY0LDAsNi42NEg0Mi40MXogTTUwLjIsMy4yN2MwLDYuNDYsMCw2LjQ2LDAsNi40NiAgICBjLTcuNzksMC03Ljc5LDAtNy43OSwwYzAtNi40NiwwLTYuNDYsMC02LjQ2TDUwLjIsMy4yN3ogTTQwLjUzLDMuMjdjMCw2LjQ2LDAsNi40NiwwLDYuNDZjLTcuOTcsMC03Ljk3LDAtNy45NywwICAgIGMwLTYuNDYsMC02LjQ2LDAtNi40Nkw0MC41MywzLjI3eiBNMzAuNjgsMy4yN2MwLDYuNDYsMCw2LjQ2LDAsNi40NmMtNy44OCwwLTcuODgsMC03Ljg4LDBjMC02LjQ2LDAtNi40NiwwLTYuNDZMMzAuNjgsMy4yN3ogICAgIE0yMC45MiwzLjI3YzAsNi40NiwwLDYuNDYsMCw2LjQ2Yy03Ljk3LDAtNy45NywwLTcuOTcsMGMwLTYuNDYsMC02LjQ2LDAtNi40NkwyMC45MiwzLjI3eiBNMTEuMDcsOS43M2MtNy43OSwwLTcuNzksMC03Ljc5LDAgICAgYzAtNi40NiwwLTYuNDYsMC02LjQ2YzcuNzksMCw3Ljc5LDAsNy43OSwwVjkuNzN6IE0xMS4wNywxMS42YzAsNi42NCwwLDYuNjQsMCw2LjY0Yy03Ljc5LDAtNy43OSwwLTcuNzksMGMwLTYuNjQsMC02LjY0LDAtNi42NCAgICBMMTEuMDcsMTEuNnogTTExLjA3LDIwLjExYzAsNi41NSwwLDYuNTUsMCw2LjU1Yy03Ljc5LDAtNy43OSwwLTcuNzksMGMwLTYuNTUsMC02LjU1LDAtNi41NUgxMS4wN3ogTTExLjA3LDI4LjUzICAgIGMwLDYuNjQsMCw2LjY0LDAsNi42NGMtNy43OSwwLTcuNzksMC03Ljc5LDBjMC02LjY0LDAtNi42NCwwLTYuNjRMMTEuMDcsMjguNTN6IE0xMS4wNywzNy4wNGMwLDYuMzYsMCw2LjM2LDAsNi4zNiAgICBjLTcuNzksMC03Ljc5LDAtNy43OSwwYzAtNi4zNiwwLTYuMzYsMC02LjM2SDExLjA3eiIvPiYjeGE7CTwvZz4mI3hhOzwvZz4mI3hhOzwvc3ZnPg==;fillColor=#D4E1F5;" vertex="1" parent="0KH5nl5nT1wfXX2kWhob-84">
          <mxGeometry x="4.25" y="11.5" width="53" height="47" as="geometry" />
        </mxCell>
        <mxCell id="0KH5nl5nT1wfXX2kWhob-87" value="&lt;span style=&quot;font-size: 14px&quot;&gt;&lt;b&gt;Extraction&lt;/b&gt;&lt;/span&gt;" style="text;html=1;resizable=0;autosize=1;align=center;verticalAlign=middle;points=[];fillColor=none;strokeColor=none;rounded=0;" vertex="1" parent="0KH5nl5nT1wfXX2kWhob-84">
          <mxGeometry x="60" y="25" width="80" height="20" as="geometry" />
        </mxCell>
        <mxCell id="0KH5nl5nT1wfXX2kWhob-89" value="" style="group" vertex="1" connectable="0" parent="1">
          <mxGeometry x="810" y="252.5" width="180" height="65" as="geometry" />
        </mxCell>
        <mxCell id="0KH5nl5nT1wfXX2kWhob-90" value="" style="strokeColor=#dddddd;fillColor=#ffffff;shadow=1;strokeWidth=1;rounded=1;absoluteArcSize=1;arcSize=2;fontSize=11;fontColor=#9E9E9E;align=center;html=1;" vertex="1" parent="0KH5nl5nT1wfXX2kWhob-89">
          <mxGeometry width="150" height="65" as="geometry" />
        </mxCell>
        <mxCell id="0KH5nl5nT1wfXX2kWhob-91" value="" style="shape=image;verticalLabelPosition=bottom;labelBackgroundColor=#ffffff;verticalAlign=top;aspect=fixed;imageAspect=0;image=data:image/svg+xml,PHN2ZyB4bWxuczpjYz0iaHR0cDovL2NyZWF0aXZlY29tbW9ucy5vcmcvbnMjIiB4bWxuczpkYz0iaHR0cDovL3B1cmwub3JnL2RjL2VsZW1lbnRzLzEuMS8iIHhtbG5zOmlua3NjYXBlPSJodHRwOi8vd3d3Lmlua3NjYXBlLm9yZy9uYW1lc3BhY2VzL2lua3NjYXBlIiB4bWxuczpyZGY9Imh0dHA6Ly93d3cudzMub3JnLzE5OTkvMDIvMjItcmRmLXN5bnRheC1ucyMiIHhtbG5zOnNvZGlwb2RpPSJodHRwOi8vc29kaXBvZGkuc291cmNlZm9yZ2UubmV0L0RURC9zb2RpcG9kaS0wLmR0ZCIgeG1sbnM6c3ZnPSJodHRwOi8vd3d3LnczLm9yZy8yMDAwL3N2ZyIgeG1sbnM9Imh0dHA6Ly93d3cudzMub3JnLzIwMDAvc3ZnIiB4bWxuczp4bGluaz0iaHR0cDovL3d3dy53My5vcmcvMTk5OS94bGluayIgdmVyc2lvbj0iMS4xIiBpZD0ic3ZnMTA4Mzc5IiBpbmtzY2FwZTp2ZXJzaW9uPSIwLjkyLjMgKDI0MDU1NDYsIDIwMTgtMDMtMTEpIiBzb2RpcG9kaTpkb2NuYW1lPSJ0YWJsZXNfMS5zdmciIHg9IjBweCIgeT0iMHB4IiB2aWV3Qm94PSIwIDAgNTMuNDggNDYuNjciIHN0eWxlPSJlbmFibGUtYmFja2dyb3VuZDpuZXcgMCAwIDUzLjQ4IDQ2LjY3OyIgeG1sOnNwYWNlPSJwcmVzZXJ2ZSI+JiN4YTs8c29kaXBvZGk6bmFtZWR2aWV3IGJvcmRlcmNvbG9yPSIjNjY2NjY2IiBib3JkZXJvcGFjaXR5PSIxIiBmaXQtbWFyZ2luLWJvdHRvbT0iMCIgZml0LW1hcmdpbi1sZWZ0PSIwIiBmaXQtbWFyZ2luLXJpZ2h0PSIwIiBmaXQtbWFyZ2luLXRvcD0iMCIgZ3JpZHRvbGVyYW5jZT0iMTAiIGd1aWRldG9sZXJhbmNlPSIxMCIgaWQ9Im5hbWVkdmlldzEwODM4MSIgaW5rc2NhcGU6Y3VycmVudC1sYXllcj0ic3ZnMTA4Mzc5IiBpbmtzY2FwZTpjeD0iMzUuNjUyNTciIGlua3NjYXBlOmN5PSIzMS4xMTE1NzIiIGlua3NjYXBlOnBhZ2VvcGFjaXR5PSIwIiBpbmtzY2FwZTpwYWdlc2hhZG93PSIyIiBpbmtzY2FwZTp3aW5kb3ctaGVpZ2h0PSIxMDE3IiBpbmtzY2FwZTp3aW5kb3ctbWF4aW1pemVkPSIxIiBpbmtzY2FwZTp3aW5kb3ctd2lkdGg9IjE5MjAiIGlua3NjYXBlOndpbmRvdy14PSItOCIgaW5rc2NhcGU6d2luZG93LXk9Ii04IiBpbmtzY2FwZTp6b29tPSIxMy45MzIxNjkiIG9iamVjdHRvbGVyYW5jZT0iMTAiIHBhZ2Vjb2xvcj0iI2ZmZmZmZiIgc2hvd2dyaWQ9ImZhbHNlIj4mI3hhOwk8L3NvZGlwb2RpOm5hbWVkdmlldz4mI3hhOzxnIGlkPSJnMTA4Mzc3IiB0cmFuc2Zvcm09InRyYW5zbGF0ZSgtMy45NzMzODM3ZS01KSI+JiN4YTsJPHRpdGxlIGlkPSJ0aXRsZTEwODM3MCI+UGFnZS0xPC90aXRsZT4mI3hhOwk8ZyBpZD0ic2hhcGUzOTI5LTEiPiYjeGE7CQk8dGl0bGUgaWQ9InRpdGxlMTA4MzcyIj5UYWJsZXMgIzE8L3RpdGxlPiYjeGE7CQk8cGF0aCBpZD0icGF0aDEwODM3NCIgaW5rc2NhcGU6Y29ubmVjdG9yLWN1cnZhdHVyZT0iMCIgc3R5bGU9ImZpbGw6IzNGNTc2NTsiIGQ9Ik01Mi4zNiwwQzEuMTMsMCwxLjEzLDAsMS4xMywwICAgIEMwLjQ3LDAsMCwwLjQ3LDAsMS4xM2MwLDQ0LjQyLDAsNDQuNDIsMCw0NC40MmMwLDAuNTYsMC40NywxLjEyLDEuMTMsMS4xMmM1MS4yMywwLDUxLjIzLDAsNTEuMjMsMGMwLjU2LDAsMS4xMi0wLjU2LDEuMTItMS4xMiAgICBjMC00NC40MiwwLTQ0LjQyLDAtNDQuNDJDNTMuNDgsMC40Nyw1Mi45MiwwLDUyLjM2LDB6IE0xMi45NSw0My40YzAtNi4zNiwwLTYuMzYsMC02LjM2YzcuOTcsMCw3Ljk3LDAsNy45NywwICAgIGMwLDYuMzYsMCw2LjM2LDAsNi4zNkgxMi45NXogTTIwLjkyLDIwLjExYzAsNi41NSwwLDYuNTUsMCw2LjU1Yy03Ljk3LDAtNy45NywwLTcuOTcsMGMwLTYuNTUsMC02LjU1LDAtNi41NUgyMC45MnogTTEyLjk1LDE4LjI0ICAgIGMwLTYuNjQsMC02LjY0LDAtNi42NGM3Ljk3LDAsNy45NywwLDcuOTcsMGMwLDYuNjQsMCw2LjY0LDAsNi42NEgxMi45NXogTTIwLjkyLDI4LjUzYzAsNi42NCwwLDYuNjQsMCw2LjY0ICAgIGMtNy45NywwLTcuOTcsMC03Ljk3LDBjMC02LjY0LDAtNi42NCwwLTYuNjRIMjAuOTJ6IE0yMi44LDQzLjRjMC02LjM2LDAtNi4zNiwwLTYuMzZjNy44OCwwLDcuODgsMCw3Ljg4LDBjMCw2LjM2LDAsNi4zNiwwLDYuMzYgICAgSDIyLjh6IE0zMC42OCwyMC4xMWMwLDYuNTUsMCw2LjU1LDAsNi41NWMtNy44OCwwLTcuODgsMC03Ljg4LDBjMC02LjU1LDAtNi41NSwwLTYuNTVIMzAuNjh6IE0yMi44LDE4LjI0YzAtNi42NCwwLTYuNjQsMC02LjY0ICAgIGM3Ljg4LDAsNy44OCwwLDcuODgsMGMwLDYuNjQsMCw2LjY0LDAsNi42NEgyMi44eiBNMzAuNjgsMjguNTNjMCw2LjY0LDAsNi42NCwwLDYuNjRjLTcuODgsMC03Ljg4LDAtNy44OCwwYzAtNi42NCwwLTYuNjQsMC02LjY0ICAgIEgzMC42OHogTTMyLjU2LDQzLjRjMC02LjM2LDAtNi4zNiwwLTYuMzZjNy45NywwLDcuOTcsMCw3Ljk3LDBjMCw2LjM2LDAsNi4zNiwwLDYuMzZIMzIuNTZ6IE00MC41MywyMC4xMWMwLDYuNTUsMCw2LjU1LDAsNi41NSAgICBjLTcuOTcsMC03Ljk3LDAtNy45NywwYzAtNi41NSwwLTYuNTUsMC02LjU1SDQwLjUzeiBNMzIuNTYsMTguMjRjMC02LjY0LDAtNi42NCwwLTYuNjRjNy45NywwLDcuOTcsMCw3Ljk3LDAgICAgYzAsNi42NCwwLDYuNjQsMCw2LjY0SDMyLjU2eiBNNDAuNTMsMjguNTNjMCw2LjY0LDAsNi42NCwwLDYuNjRjLTcuOTcsMC03Ljk3LDAtNy45NywwYzAtNi42NCwwLTYuNjQsMC02LjY0SDQwLjUzeiBNNDIuNDEsNDMuNCAgICBjMC02LjM2LDAtNi4zNiwwLTYuMzZjNy43OSwwLDcuNzksMCw3Ljc5LDBjMCw2LjM2LDAsNi4zNiwwLDYuMzZINDIuNDF6IE00Mi40MSwzNS4xN2MwLTYuNjQsMC02LjY0LDAtNi42NGM3Ljc5LDAsNy43OSwwLDcuNzksMCAgICBjMCw2LjY0LDAsNi42NCwwLDYuNjRINDIuNDF6IE00Mi40MSwyNi42NmMwLTYuNTUsMC02LjU1LDAtNi41NWM3Ljc5LDAsNy43OSwwLDcuNzksMGMwLDYuNTUsMCw2LjU1LDAsNi41NUw0Mi40MSwyNi42NnogICAgIE00Mi40MSwxOC4yNGMwLTYuNjQsMC02LjY0LDAtNi42NGM3Ljc5LDAsNy43OSwwLDcuNzksMGMwLDYuNjQsMCw2LjY0LDAsNi42NEg0Mi40MXogTTUwLjIsMy4yN2MwLDYuNDYsMCw2LjQ2LDAsNi40NiAgICBjLTcuNzksMC03Ljc5LDAtNy43OSwwYzAtNi40NiwwLTYuNDYsMC02LjQ2TDUwLjIsMy4yN3ogTTQwLjUzLDMuMjdjMCw2LjQ2LDAsNi40NiwwLDYuNDZjLTcuOTcsMC03Ljk3LDAtNy45NywwICAgIGMwLTYuNDYsMC02LjQ2LDAtNi40Nkw0MC41MywzLjI3eiBNMzAuNjgsMy4yN2MwLDYuNDYsMCw2LjQ2LDAsNi40NmMtNy44OCwwLTcuODgsMC03Ljg4LDBjMC02LjQ2LDAtNi40NiwwLTYuNDZMMzAuNjgsMy4yN3ogICAgIE0yMC45MiwzLjI3YzAsNi40NiwwLDYuNDYsMCw2LjQ2Yy03Ljk3LDAtNy45NywwLTcuOTcsMGMwLTYuNDYsMC02LjQ2LDAtNi40NkwyMC45MiwzLjI3eiBNMTEuMDcsOS43M2MtNy43OSwwLTcuNzksMC03Ljc5LDAgICAgYzAtNi40NiwwLTYuNDYsMC02LjQ2YzcuNzksMCw3Ljc5LDAsNy43OSwwVjkuNzN6IE0xMS4wNywxMS42YzAsNi42NCwwLDYuNjQsMCw2LjY0Yy03Ljc5LDAtNy43OSwwLTcuNzksMGMwLTYuNjQsMC02LjY0LDAtNi42NCAgICBMMTEuMDcsMTEuNnogTTExLjA3LDIwLjExYzAsNi41NSwwLDYuNTUsMCw2LjU1Yy03Ljc5LDAtNy43OSwwLTcuNzksMGMwLTYuNTUsMC02LjU1LDAtNi41NUgxMS4wN3ogTTExLjA3LDI4LjUzICAgIGMwLDYuNjQsMCw2LjY0LDAsNi42NGMtNy43OSwwLTcuNzksMC03Ljc5LDBjMC02LjY0LDAtNi42NCwwLTYuNjRMMTEuMDcsMjguNTN6IE0xMS4wNywzNy4wNGMwLDYuMzYsMCw2LjM2LDAsNi4zNiAgICBjLTcuNzksMC03Ljc5LDAtNy43OSwwYzAtNi4zNiwwLTYuMzYsMC02LjM2SDExLjA3eiIvPiYjeGE7CTwvZz4mI3hhOzwvZz4mI3hhOzwvc3ZnPg==;fillColor=#D4E1F5;" vertex="1" parent="0KH5nl5nT1wfXX2kWhob-89">
          <mxGeometry x="4.25" y="11.5" width="53" height="47" as="geometry" />
        </mxCell>
        <mxCell id="0KH5nl5nT1wfXX2kWhob-92" value="&lt;span style=&quot;font-size: 14px&quot;&gt;&lt;b&gt;DataVault&lt;/b&gt;&lt;/span&gt;" style="text;html=1;resizable=0;autosize=1;align=center;verticalAlign=middle;points=[];fillColor=none;strokeColor=none;rounded=0;" vertex="1" parent="0KH5nl5nT1wfXX2kWhob-89">
          <mxGeometry x="60" y="25" width="80" height="20" as="geometry" />
        </mxCell>
        <mxCell id="0KH5nl5nT1wfXX2kWhob-117" style="edgeStyle=orthogonalEdgeStyle;rounded=0;orthogonalLoop=1;jettySize=auto;html=1;strokeColor=#B5739D;" edge="1" parent="1" source="0KH5nl5nT1wfXX2kWhob-96" target="0KH5nl5nT1wfXX2kWhob-115">
          <mxGeometry relative="1" as="geometry" />
        </mxCell>
        <mxCell id="0KH5nl5nT1wfXX2kWhob-96" value="" style="strokeColor=#dddddd;fillColor=#ffffff;shadow=1;strokeWidth=1;rounded=1;absoluteArcSize=1;arcSize=2;fontSize=11;fontColor=#9E9E9E;align=center;html=1;" vertex="1" parent="1">
          <mxGeometry x="980" y="252.5" width="150" height="65" as="geometry" />
        </mxCell>
        <mxCell id="0KH5nl5nT1wfXX2kWhob-98" value="&lt;span style=&quot;font-size: 14px&quot;&gt;&lt;b&gt;InfoMart&lt;/b&gt;&lt;/span&gt;" style="text;html=1;resizable=0;autosize=1;align=center;verticalAlign=middle;points=[];fillColor=none;strokeColor=none;rounded=0;" vertex="1" parent="1">
          <mxGeometry x="1045" y="277.5" width="70" height="20" as="geometry" />
        </mxCell>
        <mxCell id="0KH5nl5nT1wfXX2kWhob-99" style="edgeStyle=orthogonalEdgeStyle;rounded=0;orthogonalLoop=1;jettySize=auto;html=1;exitX=0.5;exitY=0;exitDx=0;exitDy=0;entryX=0.25;entryY=0;entryDx=0;entryDy=0;strokeColor=#B5739D;" edge="1" parent="1" source="0KH5nl5nT1wfXX2kWhob-80" target="0KH5nl5nT1wfXX2kWhob-85">
          <mxGeometry relative="1" as="geometry" />
        </mxCell>
        <mxCell id="0KH5nl5nT1wfXX2kWhob-100" style="edgeStyle=orthogonalEdgeStyle;rounded=0;orthogonalLoop=1;jettySize=auto;html=1;exitX=0.5;exitY=0;exitDx=0;exitDy=0;entryX=0.25;entryY=0;entryDx=0;entryDy=0;strokeColor=#B5739D;" edge="1" parent="1" source="0KH5nl5nT1wfXX2kWhob-85" target="0KH5nl5nT1wfXX2kWhob-90">
          <mxGeometry relative="1" as="geometry" />
        </mxCell>
        <mxCell id="0KH5nl5nT1wfXX2kWhob-101" style="edgeStyle=orthogonalEdgeStyle;rounded=0;orthogonalLoop=1;jettySize=auto;html=1;exitX=0.5;exitY=0;exitDx=0;exitDy=0;entryX=0.25;entryY=0;entryDx=0;entryDy=0;strokeColor=#B5739D;" edge="1" parent="1" source="0KH5nl5nT1wfXX2kWhob-90" target="0KH5nl5nT1wfXX2kWhob-96">
          <mxGeometry relative="1" as="geometry" />
        </mxCell>
        <mxCell id="0KH5nl5nT1wfXX2kWhob-103" value="" style="rounded=1;absoluteArcSize=1;arcSize=2;html=1;strokeColor=none;gradientColor=none;shadow=0;dashed=0;fontSize=12;fontColor=#000000;align=left;verticalAlign=top;spacing=10;spacingTop=-4;fillColor=#99CCFF;" vertex="1" parent="1">
          <mxGeometry x="200" y="90" width="140" height="480" as="geometry" />
        </mxCell>
        <mxCell id="0KH5nl5nT1wfXX2kWhob-105" style="edgeStyle=orthogonalEdgeStyle;rounded=0;orthogonalLoop=1;jettySize=auto;html=2;strokeColor=#B5739D;" edge="1" parent="1" source="0KH5nl5nT1wfXX2kWhob-68" target="0KH5nl5nT1wfXX2kWhob-103">
          <mxGeometry relative="1" as="geometry">
            <mxPoint x="414.25" y="485" as="sourcePoint" />
            <mxPoint x="255" y="385" as="targetPoint" />
          </mxGeometry>
        </mxCell>
        <mxCell id="0KH5nl5nT1wfXX2kWhob-61" value="" style="shape=image;verticalLabelPosition=bottom;labelBackgroundColor=#ffffff;verticalAlign=top;aspect=fixed;imageAspect=0;image=data:image/svg+xml,PHN2ZyB4bWxuczpkYz0iaHR0cDovL3B1cmwub3JnL2RjL2VsZW1lbnRzLzEuMS8iIHhtbG5zOmNjPSJodHRwOi8vY3JlYXRpdmVjb21tb25zLm9yZy9ucyMiIHhtbG5zOnJkZj0iaHR0cDovL3d3dy53My5vcmcvMTk5OS8wMi8yMi1yZGYtc3ludGF4LW5zIyIgeG1sbnM6c3ZnPSJodHRwOi8vd3d3LnczLm9yZy8yMDAwL3N2ZyIgeG1sbnM9Imh0dHA6Ly93d3cudzMub3JnLzIwMDAvc3ZnIiB4bWxuczpzb2RpcG9kaT0iaHR0cDovL3NvZGlwb2RpLnNvdXJjZWZvcmdlLm5ldC9EVEQvc29kaXBvZGktMC5kdGQiIHhtbG5zOmlua3NjYXBlPSJodHRwOi8vd3d3Lmlua3NjYXBlLm9yZy9uYW1lc3BhY2VzL2lua3NjYXBlIiB2ZXJzaW9uPSIxLjEiIGlkPSJzdmc1Njg2MSIgaW5rc2NhcGU6dmVyc2lvbj0iMC45Mi4zICgyNDA1NTQ2LCAyMDE4LTAzLTExKSIgc29kaXBvZGk6ZG9jbmFtZT0iYXp1cmVfZGF0YV9mYWN0b3J5LnN2ZyIgeD0iMHB4IiB5PSIwcHgiIHZpZXdCb3g9IjAgMCAxMDAuMSA5OS45IiB4bWw6c3BhY2U9InByZXNlcnZlIiB3aWR0aD0iMTAwLjEiIGhlaWdodD0iOTkuOTAwMDAyIj48bWV0YWRhdGEgaWQ9Im1ldGFkYXRhNjgyMyI+PHJkZjpSREY+PGNjOldvcmsgcmRmOmFib3V0PSIiPjxkYzpmb3JtYXQ+aW1hZ2Uvc3ZnK3htbDwvZGM6Zm9ybWF0PjxkYzp0eXBlIHJkZjpyZXNvdXJjZT0iaHR0cDovL3B1cmwub3JnL2RjL2RjbWl0eXBlL1N0aWxsSW1hZ2UiLz48ZGM6dGl0bGUvPjwvY2M6V29yaz48L3JkZjpSREY+PC9tZXRhZGF0YT48ZGVmcyBpZD0iZGVmczY4MjEiLz4mI3hhOzxmaWx0ZXIgaWQ9ImZpbHRlcl8yIj4mI3hhOwk8ZmVHYXVzc2lhbkJsdXIgaWQ9ImZlR2F1c3NpYW5CbHVyNTY4MTAiIHN0ZERldmlhdGlvbj0iMiIvPiYjeGE7PC9maWx0ZXI+JiN4YTs8c29kaXBvZGk6bmFtZWR2aWV3IGJvcmRlcmNvbG9yPSIjNjY2NjY2IiBib3JkZXJvcGFjaXR5PSIxIiBmaXQtbWFyZ2luLWJvdHRvbT0iMCIgZml0LW1hcmdpbi1sZWZ0PSIwIiBmaXQtbWFyZ2luLXJpZ2h0PSIwIiBmaXQtbWFyZ2luLXRvcD0iMCIgZ3JpZHRvbGVyYW5jZT0iMTAiIGd1aWRldG9sZXJhbmNlPSIxMCIgaWQ9Im5hbWVkdmlldzU2ODYzIiBpbmtzY2FwZTpjdXJyZW50LWxheWVyPSJzdmc1Njg2MSIgaW5rc2NhcGU6Y3g9Ii0yMi41MTIwNzIiIGlua3NjYXBlOmN5PSI1Ni44MTcyNzkiIGlua3NjYXBlOnBhZ2VvcGFjaXR5PSIwIiBpbmtzY2FwZTpwYWdlc2hhZG93PSIyIiBpbmtzY2FwZTp3aW5kb3ctaGVpZ2h0PSIxMDE3IiBpbmtzY2FwZTp3aW5kb3ctbWF4aW1pemVkPSIxIiBpbmtzY2FwZTp3aW5kb3ctd2lkdGg9IjE5MjAiIGlua3NjYXBlOndpbmRvdy14PSItOCIgaW5rc2NhcGU6d2luZG93LXk9Ii04IiBpbmtzY2FwZTp6b29tPSIzLjY5Njc5MDciIG9iamVjdHRvbGVyYW5jZT0iMTAiIHBhZ2Vjb2xvcj0iI2ZmZmZmZiIgc2hvd2dyaWQ9ImZhbHNlIj4mI3hhOwk8L3NvZGlwb2RpOm5hbWVkdmlldz4mI3hhOyYjeGE7PHBhdGggaWQ9InBhdGg1NjgyMyIgaW5rc2NhcGU6Y29ubmVjdG9yLWN1cnZhdHVyZT0iMCIgc3R5bGU9ImZpbGw6IzU5YjRkOSIgZD0iTSA5OS45LDU4Ljg2IFYgMzQuNjMgTCA3Mi40Nyw1OC40NiBoIC0wLjYgViAzNC42MyBMIDQ0LjQ0LDU4LjQ2IFYgOC42MSBDIDQ0LjQ0LDQuNCAzNS4wMywwLjIgMjIuNjIsMC4yIDEwLjIxLDAuMiAwLDQuMiAwLDguNjEgViA5OS45IEggMTAwLjEgWiBNIDIyLjYyLDEyLjYxIGMgLTkuMDEsMCAtMTYuMjEsLTIuMiAtMTYuMjEsLTQuNiAwLC0yLjQgNy4yLC00LjYxIDE2LjIxLC00LjYxIDkuMDEsMCAxNi4yMiwyLjAxIDE2LjIyLDQuNjEgLTAuMiwyLjQgLTcuNDEsNC42IC0xNi4yMiw0LjYgeiBNIDY5Ljg3LDgzLjY4IEggNTguODYgViA3Mi42NyBoIDExLjAxIHogbSAtMTkuNDIsMCBIIDM5LjQ0IFYgNzIuNjcgaCAxMS4wMSB6IG0gMjguMDMsMCBWIDcyLjY3IGggMTEuMDEgdiAxMS4wMSB6Ii8+JiN4YTsmI3hhOzxyZWN0IGlkPSJyZWN0NTY4MzEiIHg9IjAiIHk9IjguMDEwMDAwMiIgc3R5bGU9ImZpbGw6IzM5OTljNiIgd2lkdGg9IjIyLjIxOTk5OSIgaGVpZ2h0PSI5MS44ODk5OTkiLz4mI3hhOyYjeGE7PHBhdGggaWQ9InBhdGg1NjgzOSIgaW5rc2NhcGU6Y29ubmVjdG9yLWN1cnZhdHVyZT0iMCIgc3R5bGU9ImZpbGw6I2ZmZmZmZiIgZD0ibSA0NC4yNCw4LjAxIGMgMCw0LjQgLTEwLjAxLDguMDEgLTIyLjIyLDguMDEgQyA5LjgxLDE2LjAyIDAsMTIuNDEgMCw4LjAxIDAsMy42IDEwLjAxLDAgMjIuMjIsMCAzNC40MywwIDQ0LjI0LDMuNCA0NC4yNCw4LjAxIFoiLz4mI3hhOyYjeGE7PHBhdGggaWQ9InBhdGg1Njg0NyIgaW5rc2NhcGU6Y29ubmVjdG9yLWN1cnZhdHVyZT0iMCIgc3R5bGU9ImZpbGw6IzdmYmEwMCIgZD0ibSAzOS44Myw3LjQxIGMgMCwzIC03LjgsNS4yMSAtMTcuNjEsNS4yMSAtOS44MSwwIC0xNy42MiwtMi4yMSAtMTcuNjIsLTUuMjEgMCwtMyA3LjgxLC01LjIgMTcuNjIsLTUuMiA5LjgxLDAgMTcuNjEsMi40IDE3LjYxLDUuMiB6Ii8+JiN4YTsmI3hhOzxwYXRoIGlkPSJwYXRoNTY4NTUiIGlua3NjYXBlOmNvbm5lY3Rvci1jdXJ2YXR1cmU9IjAiIHN0eWxlPSJmaWxsOiNiOGQ0MzIiIGQ9Im0gMzYuMDMsMTAuNjEgYyAyLjQsLTAuOCAzLjYsLTIgMy42LC0zLjIxIDAsLTMgLTcuOCwtNS4yIC0xNy42MSwtNS4yIEMgMTIuMjEsMi4yIDQuNCw0LjYgNC40LDcuNCA0LjYsOC42MSA2LDkuODEgOC4yLDEwLjYxIGMgMy4yMSwtMS4yIDguMjEsLTIgMTQuMDIsLTIgNS42LDAgMTAuNjEsMC44IDEzLjgxLDIgeiIvPiYjeGE7PC9zdmc+;" vertex="1" parent="1">
          <mxGeometry x="230" y="252.5" width="90" height="90" as="geometry" />
        </mxCell>
        <mxCell id="0KH5nl5nT1wfXX2kWhob-56" value="" style="shape=image;verticalLabelPosition=bottom;labelBackgroundColor=#ffffff;verticalAlign=top;aspect=fixed;imageAspect=0;image=data:image/svg+xml,PHN2ZyB4bWxuczpkYz0iaHR0cDovL3B1cmwub3JnL2RjL2VsZW1lbnRzLzEuMS8iIHhtbG5zOmNjPSJodHRwOi8vY3JlYXRpdmVjb21tb25zLm9yZy9ucyMiIHhtbG5zOnJkZj0iaHR0cDovL3d3dy53My5vcmcvMTk5OS8wMi8yMi1yZGYtc3ludGF4LW5zIyIgeG1sbnM6c3ZnPSJodHRwOi8vd3d3LnczLm9yZy8yMDAwL3N2ZyIgeG1sbnM9Imh0dHA6Ly93d3cudzMub3JnLzIwMDAvc3ZnIiB4bWxuczpzb2RpcG9kaT0iaHR0cDovL3NvZGlwb2RpLnNvdXJjZWZvcmdlLm5ldC9EVEQvc29kaXBvZGktMC5kdGQiIHhtbG5zOmlua3NjYXBlPSJodHRwOi8vd3d3Lmlua3NjYXBlLm9yZy9uYW1lc3BhY2VzL2lua3NjYXBlIiB2ZXJzaW9uPSIxLjEiIGlkPSJzdmc1MDMyOSIgaW5rc2NhcGU6dmVyc2lvbj0iMC45Mi4zICgyNDA1NTQ2LCAyMDE4LTAzLTExKSIgc29kaXBvZGk6ZG9jbmFtZT0iYXp1cmUuc3ZnIiB4PSIwcHgiIHk9IjBweCIgdmlld0JveD0iMCAwIDYyLjc2IDQ4LjQ4IiBzdHlsZT0iZW5hYmxlLWJhY2tncm91bmQ6bmV3IDAgMCA2Mi43NiA0OC40ODsiIHhtbDpzcGFjZT0icHJlc2VydmUiPjxtZXRhZGF0YSBpZD0ibWV0YWRhdGExNjgwNyI+PHJkZjpSREY+PGNjOldvcmsgcmRmOmFib3V0PSIiPjxkYzpmb3JtYXQ+aW1hZ2Uvc3ZnK3htbDwvZGM6Zm9ybWF0PjxkYzp0eXBlIHJkZjpyZXNvdXJjZT0iaHR0cDovL3B1cmwub3JnL2RjL2RjbWl0eXBlL1N0aWxsSW1hZ2UiLz48ZGM6dGl0bGUvPjwvY2M6V29yaz48L3JkZjpSREY+PC9tZXRhZGF0YT48ZGVmcyBpZD0iZGVmczE2ODA1Ii8+JiN4YTs8c29kaXBvZGk6bmFtZWR2aWV3IGJvcmRlcmNvbG9yPSIjNjY2NjY2IiBib3JkZXJvcGFjaXR5PSIxIiBmaXQtbWFyZ2luLWJvdHRvbT0iMCIgZml0LW1hcmdpbi1sZWZ0PSIwIiBmaXQtbWFyZ2luLXJpZ2h0PSIwIiBmaXQtbWFyZ2luLXRvcD0iMCIgZ3JpZHRvbGVyYW5jZT0iMTAiIGd1aWRldG9sZXJhbmNlPSIxMCIgaWQ9Im5hbWVkdmlldzUwMzMxIiBpbmtzY2FwZTpjdXJyZW50LWxheWVyPSJzdmc1MDMyOSIgaW5rc2NhcGU6Y3g9IjQ5LjM2MTQ4NiIgaW5rc2NhcGU6Y3k9IjEyLjA3MjQ5NyIgaW5rc2NhcGU6cGFnZW9wYWNpdHk9IjAiIGlua3NjYXBlOnBhZ2VzaGFkb3c9IjIiIGlua3NjYXBlOndpbmRvdy1oZWlnaHQ9IjEwMTciIGlua3NjYXBlOndpbmRvdy1tYXhpbWl6ZWQ9IjEiIGlua3NjYXBlOndpbmRvdy13aWR0aD0iMTkyMCIgaW5rc2NhcGU6d2luZG93LXg9Ii04IiBpbmtzY2FwZTp3aW5kb3cteT0iLTgiIGlua3NjYXBlOnpvb209IjUuOTY3MzU3NyIgb2JqZWN0dG9sZXJhbmNlPSIxMCIgcGFnZWNvbG9yPSIjZmZmZmZmIiBzaG93Z3JpZD0iZmFsc2UiPiYjeGE7CTwvc29kaXBvZGk6bmFtZWR2aWV3PiYjeGE7JiN4YTs8cGF0aCBpZD0icGF0aDUwMzI0IiBpbmtzY2FwZTpjb25uZWN0b3ItY3VydmF0dXJlPSIwIiBzdHlsZT0iZmlsbDojMjA3NUI4OyIgZD0iTTE1LjY4LDQ4LjM2YzAuMDctMC4wNyw2LjQtMS4yMywxNC4wNi0yLjU3ICBjNy42NS0xLjM1LDEzLjk3LTIuNSwxNC4wMy0yLjU2YzAuMTItMC4xMS0wLjc1LTEuMTctMTAuMjItMTIuNDZjLTIuNTItMi45OS00LjYzLTUuNTYtNC43LTUuN2MtMC4wOS0wLjE5LDAuODktMy4wNCwzLjczLTEwLjgzICBjMi4xMS01LjgxLDMuODctMTAuNjUsMy45MS0xMC43NWMwLjAzLTAuMDksMC4xMy0wLjE3LDAuMjItMC4xN2MwLjE5LDAsMjYuMTQsNDQuOTEsMjYuMDUsNDUuMDZjLTAuMDQsMC4wNi0xMC42OCwwLjEtMjMuNjQsMC4xICBDMjUuMjEsNDguNDgsMTUuNiw0OC40MywxNS42OCw0OC4zNnogTTAsNDMuMDFjLTAuMDUtMC4xMywwLjU0LTEuMjksMS40NS0yLjg4YzAuODQtMS40Niw0LjQyLTcuNjYsNy45NS0xMy43N2w2LjQxLTExLjFsOS4wOC03LjYzICBDMjkuODgsMy40NCwzNC4wNCwwLDM0LjEzLDBjMC4xLDAsMC4xMywwLjA5LDAuMDgsMC4yNEMzMy43NCwxLjQ4LDE0LjMsNDIuOTIsMTQuMTMsNDMuMDVjLTAuMTksMC4xMy0xLjg0LDAuMTctNy4xNSwwLjE3ICBDMC45MSw0My4yMiwwLjA3LDQzLjE5LDAsNDMuMDF6Ii8+JiN4YTs8L3N2Zz4=;" vertex="1" parent="1">
          <mxGeometry x="210" y="10" width="78.75" height="60" as="geometry" />
        </mxCell>
        <mxCell id="0KH5nl5nT1wfXX2kWhob-108" value="" style="shape=image;verticalLabelPosition=bottom;labelBackgroundColor=#ffffff;verticalAlign=top;aspect=fixed;imageAspect=0;image=data:image/svg+xml,PHN2ZyB4bWxuczpjYz0iaHR0cDovL2NyZWF0aXZlY29tbW9ucy5vcmcvbnMjIiB4bWxuczpkYz0iaHR0cDovL3B1cmwub3JnL2RjL2VsZW1lbnRzLzEuMS8iIHhtbG5zOmlua3NjYXBlPSJodHRwOi8vd3d3Lmlua3NjYXBlLm9yZy9uYW1lc3BhY2VzL2lua3NjYXBlIiB4bWxuczpyZGY9Imh0dHA6Ly93d3cudzMub3JnLzE5OTkvMDIvMjItcmRmLXN5bnRheC1ucyMiIHhtbG5zOnNvZGlwb2RpPSJodHRwOi8vc29kaXBvZGkuc291cmNlZm9yZ2UubmV0L0RURC9zb2RpcG9kaS0wLmR0ZCIgeG1sbnM6c3ZnPSJodHRwOi8vd3d3LnczLm9yZy8yMDAwL3N2ZyIgeG1sbnM9Imh0dHA6Ly93d3cudzMub3JnLzIwMDAvc3ZnIiB4bWxuczp4bGluaz0iaHR0cDovL3d3dy53My5vcmcvMTk5OS94bGluayIgdmVyc2lvbj0iMS4xIiBpZD0ic3ZnOTY3NTQiIGlua3NjYXBlOnZlcnNpb249IjAuOTIuMyAoMjQwNTU0NiwgMjAxOC0wMy0xMSkiIHNvZGlwb2RpOmRvY25hbWU9ImF6dXJlX3NxbF9kYXRhYmFzZS5zdmciIHg9IjBweCIgeT0iMHB4IiB2aWV3Qm94PSIwIDAgMzEuMSAzMi42NCIgc3R5bGU9ImVuYWJsZS1iYWNrZ3JvdW5kOm5ldyAwIDAgMzEuMSAzMi42NDsiIHhtbDpzcGFjZT0icHJlc2VydmUiPiYjeGE7PHNvZGlwb2RpOm5hbWVkdmlldyBib3JkZXJjb2xvcj0iIzY2NjY2NiIgYm9yZGVyb3BhY2l0eT0iMSIgZml0LW1hcmdpbi1ib3R0b209IjAiIGZpdC1tYXJnaW4tbGVmdD0iMCIgZml0LW1hcmdpbi1yaWdodD0iMCIgZml0LW1hcmdpbi10b3A9IjAiIGdyaWR0b2xlcmFuY2U9IjEwIiBndWlkZXRvbGVyYW5jZT0iMTAiIGlkPSJuYW1lZHZpZXc5Njc1NiIgaW5rc2NhcGU6Y3VycmVudC1sYXllcj0ic3ZnOTY3NTQiIGlua3NjYXBlOmN4PSIyMC43MzI1MjciIGlua3NjYXBlOmN5PSItMS40Njk5NDMiIGlua3NjYXBlOnBhZ2VvcGFjaXR5PSIwIiBpbmtzY2FwZTpwYWdlc2hhZG93PSIyIiBpbmtzY2FwZTp3aW5kb3ctaGVpZ2h0PSIxMDE3IiBpbmtzY2FwZTp3aW5kb3ctbWF4aW1pemVkPSIxIiBpbmtzY2FwZTp3aW5kb3ctd2lkdGg9IjE5MjAiIGlua3NjYXBlOndpbmRvdy14PSItOCIgaW5rc2NhcGU6d2luZG93LXk9Ii04IiBpbmtzY2FwZTp6b29tPSI5LjQyNjIxNzkiIG9iamVjdHRvbGVyYW5jZT0iMTAiIHBhZ2Vjb2xvcj0iI2ZmZmZmZiIgc2hvd2dyaWQ9ImZhbHNlIj4mI3hhOwk8L3NvZGlwb2RpOm5hbWVkdmlldz4mI3hhOzxnIGlkPSJnOTY3NTIiIHRyYW5zZm9ybT0idHJhbnNsYXRlKC0yMC40NTA2LC0wLjc1MDYpIj4mI3hhOwk8dGl0bGUgaWQ9InRpdGxlOTY3MzIiPlBhZ2UtMTwvdGl0bGU+JiN4YTsJPGcgaWQ9Imdyb3VwMzUyMS0xIiB0cmFuc2Zvcm09InRyYW5zbGF0ZSgyMC40NTA2LC0zNS41OTA5KSI+JiN4YTsJCTx0aXRsZSBpZD0idGl0bGU5NjczNCI+QXp1cmUgU1FMIERhdGFiYXNlPC90aXRsZT4mI3hhOwkJPGcgaWQ9InNoYXBlMzUyMi0yIiB0cmFuc2Zvcm09InRyYW5zbGF0ZSg5Ljg1OTUsLTE1LjcyMzgpIj4mI3hhOwkJCTx0aXRsZSBpZD0idGl0bGU5NjczNiI+U2hlZXQuMzUyMjwvdGl0bGU+JiN4YTsJCQk8cGF0aCBpZD0icGF0aDk2NzM4IiBpbmtzY2FwZTpjb25uZWN0b3ItY3VydmF0dXJlPSIwIiBzdHlsZT0iZmlsbDojM0Y1NzY1OyIgZD0iTTAuMzIsNjguNjRjMC4xLDAuMTIsMC4yMSwwLjIsMC4zNCwwLjI2ICAgICBjMC4xMywwLjA2LDAuMjcsMC4wOCwwLjQyLDAuMDhjMC4xNCwwLDAuMjctMC4wMiwwLjM5LTAuMDhjMC4xMy0wLjA2LDAuMjQtMC4xNSwwLjM0LTAuMjdjMC4xLTAuMTIsMC4xOC0wLjI3LDAuMjQtMC40NiAgICAgYzAuMDUtMC4xOSwwLjA5LTAuNCwwLjA5LTAuNjZjMC0wLjIxLTAuMDItMC40MS0wLjA3LTAuNTljLTAuMDQtMC4xOS0wLjEtMC4zNi0wLjE5LTAuNWMtMC4wNy0wLjE0LTAuMTktMC4yNS0wLjMyLTAuMzQgICAgIGMtMC4xMi0wLjA3LTAuMjgtMC4xMi0wLjQ2LTAuMTJjLTAuMTksMC0wLjM2LDAuMDUtMC41LDAuMTJjLTAuMTQsMC4wOS0wLjI1LDAuMTktMC4zNSwwLjMzYy0wLjA4LDAuMTQtMC4xNSwwLjMtMC4xOSwwLjQ5ICAgICBDMC4wMiw2Ny4wOCwwLDY3LjI3LDAsNjcuNDhjMCwwLjI3LDAuMDMsMC41LDAuMDksMC42OVMwLjIzLDY4LjUyLDAuMzIsNjguNjR6Ii8+JiN4YTsJCTwvZz4mI3hhOwkJPGcgaWQ9InNoYXBlMzUyMy00IiB0cmFuc2Zvcm09InRyYW5zbGF0ZSgwLC0zLjgzODUpIj4mI3hhOwkJCTx0aXRsZSBpZD0idGl0bGU5Njc0MSI+U2hlZXQuMzUyMzwvdGl0bGU+JiN4YTsJCQk8cGF0aCBpZD0icGF0aDk2NzQzIiBpbmtzY2FwZTpjb25uZWN0b3ItY3VydmF0dXJlPSIwIiBzdHlsZT0iZmlsbDojM0Y1NzY1OyIgZD0iTTE0LjUzLDYyLjY2YzAuMjUsMCwwLjUsMC4wMiwwLjc1LDAuMDUgICAgIGMxLjItMi40MSwzLjYzLTMuOTksNi4zNi00LjExVjQ0LjU3YzAtMi4yNS00Ljg1LTQuMzktMTAuODMtNC4zOUM0Ljg0LDQwLjE4LDAsNDIuMjIsMCw0NC40NlY2NC43YzAsMi4wMiwzLjk3LDMuOTQsOS4xNSw0LjI4ICAgICBjLTAuMDQtMC4yOC0wLjA3LTAuNTctMC4wNy0wLjg2QzkuMDgsNjUuMTEsMTEuNTIsNjIuNjYsMTQuNTMsNjIuNjZ6IE0xOC40Miw1OC40OWgtMy43NXYtNS44aDEuNzV2NC40M2gyVjU4LjQ5eiBNMTAuODEsNDEuNzMgICAgIGM0LjI2LDAsNy43MSwxLjA1LDcuNzEsMi4zNnMtMy40NSwyLjM2LTcuNzEsMi4zNlMzLjEsNDUuNCwzLjEsNDQuMDlTNi41NSw0MS43MywxMC44MSw0MS43M3ogTTcuNTcsNTcuMTUgICAgIGMtMC4wMywwLjE0LTAuMDgsMC4yOC0wLjE2LDAuNDJjLTAuMDcsMC4xNC0wLjE3LDAuMjctMC4yOSwwLjM5QzcsNTguMDgsNi44NCw1OC4yLDYuNjUsNTguMjljLTAuMTgsMC4xLTAuNDEsMC4xNy0wLjY2LDAuMjIgICAgIEM1LjczLDU4LjU3LDUuNDMsNTguNiw1LjEsNTguNmMtMC4xOSwwLTAuMzYtMC4wMS0wLjUyLTAuMDRjLTAuMTctMC4wMi0wLjMyLTAuMDMtMC40Ni0wLjA3Yy0wLjE0LTAuMDItMC4yNy0wLjA2LTAuMzktMC4wOSAgICAgYy0wLjEyLTAuMDQtMC4yMS0wLjA4LTAuMy0wLjEyVjU2LjdjMC4xLDAuMDYsMC4yMSwwLjE0LDAuMzQsMC4yMWMwLjEyLDAuMDcsMC4yNiwwLjEzLDAuNCwwLjE5YzAuMTQsMC4wNSwwLjI4LDAuMSwwLjQ0LDAuMTMgICAgIGMwLjE1LDAuMDUsMC4yOSwwLjA2LDAuNDQsMC4wNmMwLjEyLDAsMC4yMy0wLjAxLDAuMzEtMC4wNGMwLjA3LTAuMDIsMC4xMy0wLjA1LDAuMTgtMC4wOWMwLjA0LTAuMDQsMC4wOC0wLjA4LDAuMDktMC4xMyAgICAgYzAuMDItMC4wNSwwLjAzLTAuMDksMC4wMy0wLjE0YzAtMC4wOS0wLjAzLTAuMTctMC4wNy0wLjI0Yy0wLjA0LTAuMDYtMC4xLTAuMTItMC4xOC0wLjE3Yy0wLjA5LTAuMDUtMC4xOC0wLjExLTAuMjktMC4xNSAgICAgYy0wLjExLTAuMDUtMC4yNC0wLjA5LTAuMzctMC4xNWMtMC4yNS0wLjA5LTAuNDctMC4yLTAuNjUtMC4zM2MtMC4xOC0wLjEzLTAuMzItMC4yNi0wLjQ0LTAuNDFjLTAuMTEtMC4xNS0wLjE5LTAuMzEtMC4yNC0wLjQ4ICAgICBjLTAuMDUtMC4xNi0wLjA4LTAuMzQtMC4wOC0wLjUyYzAtMC4yOSwwLjA2LTAuNTQsMC4xNy0wLjc3YzAuMTItMC4yMywwLjI4LTAuNDIsMC40OC0wLjU4YzAuMjEtMC4xNiwwLjQ2LTAuMjksMC43NS0wLjM3ICAgICBjMC4yOC0wLjA5LDAuNjEtMC4xMywwLjk2LTAuMTNjMC4yLDAsMC4zNywwLjAxLDAuNTQsMC4wMmMwLjE2LDAuMDIsMC4zMSwwLjAzLDAuNDQsMC4wNmMwLjEzLDAuMDIsMC4yNCwwLjA0LDAuMzUsMC4wNyAgICAgYzAuMSwwLjAzLDAuMiwwLjA1LDAuMjgsMC4wOHYxLjQ3Yy0wLjA5LTAuMDQtMC4xOC0wLjA5LTAuMjktMC4xNGMtMC4xLTAuMDUtMC4yMi0wLjA5LTAuMzQtMC4xMyAgICAgYy0wLjEyLTAuMDQtMC4yNS0wLjA3LTAuMzktMC4wOWMtMC4xNC0wLjAzLTAuMjgtMC4wNC0wLjQyLTAuMDRjLTAuMiwwLTAuMzUsMC4wNC0wLjQ3LDAuMTFjLTAuMTMsMC4wOC0wLjE5LDAuMTctMC4xOSwwLjMgICAgIGMwLDAuMDYsMC4wMiwwLjEyLDAuMDUsMC4xOGMwLjAyLDAuMDUsMC4wNywwLjA5LDAuMTIsMC4xM2MwLjA2LDAuMDUsMC4xNCwwLjEsMC4yMywwLjE0YzAuMSwwLjA2LDAuMjEsMC4xMSwwLjM1LDAuMTYgICAgIGMwLjI0LDAuMDksMC40NiwwLjIsMC42NywwLjMxYzAuMiwwLjExLDAuMzcsMC4yNCwwLjUyLDAuMzljMC4xNSwwLjE0LDAuMjYsMC4zMSwwLjM0LDAuNDljMC4wOCwwLjE4LDAuMTMsMC40LDAuMTMsMC42NCAgICAgQzcuNjIsNTYuODcsNy42LDU3LjAxLDcuNTcsNTcuMTV6IE04LjIxLDU2Ljg1QzguMDcsNTYuNSw4LDU2LjEsOCw1NS42N2MwLTAuNDYsMC4wNy0wLjg4LDAuMjItMS4yNSAgICAgYzAuMTUtMC4zOCwwLjM1LTAuNywwLjYyLTAuOTdjMC4yNi0wLjI4LDAuNTctMC40OSwwLjkzLTAuNjNjMC4zNy0wLjE1LDAuNzgtMC4yMywxLjIxLTAuMjNjMC40MSwwLDAuOCwwLjA3LDEuMTUsMC4yMSAgICAgYzAuMzUsMC4xNCwwLjY1LDAuMzQsMC45MSwwLjZjMC4yNSwwLjI1LDAuNDUsMC41NiwwLjU5LDAuOTNzMC4yMSwwLjc5LDAuMjEsMS4yNWMwLDAuMzMtMC4wMywwLjY0LTAuMTIsMC45MiAgICAgYy0wLjA4LDAuMjktMC4xOSwwLjU1LTAuMzQsMC43OGMtMC4xNCwwLjIzLTAuMzEsMC40My0wLjUsMC42Yy0wLjIsMC4xOC0wLjQxLDAuMzItMC42NCwwLjQybDEuOTUsMS42N2gtMi4yMmwtMS4yOC0xLjM3ICAgICBjLTAuMzctMC4wMy0wLjcyLTAuMTItMS4wNC0wLjI2Yy0wLjMzLTAuMTQtMC42Mi0wLjMzLTAuODYtMC41OUM4LjU1LDU3LjUsOC4zNiw1Ny4yMSw4LjIxLDU2Ljg1eiIvPiYjeGE7CQk8L2c+JiN4YTsJCTxnIGlkPSJzaGFwZTM1MjQtNiIgdHJhbnNmb3JtPSJ0cmFuc2xhdGUoOS44MjgpIj4mI3hhOwkJCTx0aXRsZSBpZD0idGl0bGU5Njc0NiI+U2hlZXQuMzUyNDwvdGl0bGU+JiN4YTsJCQk8cGF0aCBpZD0icGF0aDk2NzQ4IiBpbmtzY2FwZTpjb25uZWN0b3ItY3VydmF0dXJlPSIwIiBzdHlsZT0iZmlsbDojM0Y1NzY1OyIgZD0iTTIxLjI3LDY2LjIzYzAtMS40NS0xLjEzLTIuNjUtMi41Ni0yLjc0ICAgICBjMC4wOC0wLjQzLDAuMTItMC44NiwwLjEyLTEuMjljMC0zLjctMy4wMS02LjcxLTYuNzEtNi43MWMtMi43NiwwLTUuMjIsMS42OS02LjIzLDQuMjRjLTAuMzktMC4xLTAuNzktMC4xNi0xLjE5LTAuMTYgICAgIGMtMi41OSwwLTQuNywyLjExLTQuNyw0LjcxYzAsMi41NSwyLjA0LDQuNjQsNC42Myw0LjdoMTQuMDloMC41MmgtMC4wMkMyMC40LDY4LjY3LDIxLjI3LDY3LjQ5LDIxLjI3LDY2LjIzeiBNMTguNjgsNjguMjIgICAgIEw0LjcsNjguMjNjLTIuMTgsMC0zLjk1LTEuNzctMy45NS0zLjk1czEuNzctMy45NiwzLjk1LTMuOTZjMC40NCwwLDAuODcsMC4wOCwxLjMsMC4yMmwwLjM1LDAuMTNsMC4xMi0wLjM2ICAgICBjMC44Mi0yLjQzLDMuMDktNC4wNyw1LjY1LTQuMDdjMy4yOSwwLDUuOTYsMi42OCw1Ljk2LDUuOTZjMCwwLjUzLTAuMDcsMS4wNi0wLjIxLDEuNThsLTAuMTUsMC41NGwwLjU2LTAuMDcgICAgIGMwLjA4LTAuMDEsMC4xNi0wLjAyLDAuMjQtMC4wMmMxLjExLDAsMiwwLjksMiwyQzIwLjUyLDY3LjI3LDE5LjcxLDY4LjE0LDE4LjY4LDY4LjIyeiIvPiYjeGE7CQk8L2c+JiN4YTsJPC9nPiYjeGE7PC9nPiYjeGE7PC9zdmc+;fillColor=#9AC7BF;" vertex="1" parent="1">
          <mxGeometry x="1060" y="100" width="84.55" height="90" as="geometry" />
        </mxCell>
        <mxCell id="0KH5nl5nT1wfXX2kWhob-109" value="" style="shape=image;verticalLabelPosition=bottom;labelBackgroundColor=#ffffff;verticalAlign=top;aspect=fixed;imageAspect=0;image=data:image/svg+xml,PHN2ZyB4bWxuczpjYz0iaHR0cDovL2NyZWF0aXZlY29tbW9ucy5vcmcvbnMjIiB4bWxuczpkYz0iaHR0cDovL3B1cmwub3JnL2RjL2VsZW1lbnRzLzEuMS8iIHhtbG5zOmlua3NjYXBlPSJodHRwOi8vd3d3Lmlua3NjYXBlLm9yZy9uYW1lc3BhY2VzL2lua3NjYXBlIiB4bWxuczpyZGY9Imh0dHA6Ly93d3cudzMub3JnLzE5OTkvMDIvMjItcmRmLXN5bnRheC1ucyMiIHhtbG5zOnNvZGlwb2RpPSJodHRwOi8vc29kaXBvZGkuc291cmNlZm9yZ2UubmV0L0RURC9zb2RpcG9kaS0wLmR0ZCIgeG1sbnM6c3ZnPSJodHRwOi8vd3d3LnczLm9yZy8yMDAwL3N2ZyIgeG1sbnM9Imh0dHA6Ly93d3cudzMub3JnLzIwMDAvc3ZnIiB4bWxuczp4bGluaz0iaHR0cDovL3d3dy53My5vcmcvMTk5OS94bGluayIgdmVyc2lvbj0iMS4xIiBpZD0ic3ZnMTA4MjM0IiBpbmtzY2FwZTp2ZXJzaW9uPSIwLjkyLjMgKDI0MDU1NDYsIDIwMTgtMDMtMTEpIiBzb2RpcG9kaTpkb2NuYW1lPSJ0YWJsZXMuc3ZnIiB4PSIwcHgiIHk9IjBweCIgdmlld0JveD0iMCAwIDU4Ljc3IDUwLjI0IiBzdHlsZT0iZW5hYmxlLWJhY2tncm91bmQ6bmV3IDAgMCA1OC43NyA1MC4yNDsiIHhtbDpzcGFjZT0icHJlc2VydmUiPiYjeGE7PHNvZGlwb2RpOm5hbWVkdmlldyBib3JkZXJjb2xvcj0iIzY2NjY2NiIgYm9yZGVyb3BhY2l0eT0iMSIgZml0LW1hcmdpbi1ib3R0b209IjAiIGZpdC1tYXJnaW4tbGVmdD0iMCIgZml0LW1hcmdpbi1yaWdodD0iMCIgZml0LW1hcmdpbi10b3A9IjAiIGdyaWR0b2xlcmFuY2U9IjEwIiBndWlkZXRvbGVyYW5jZT0iMTAiIGlkPSJuYW1lZHZpZXcxMDgyMzYiIGlua3NjYXBlOmN1cnJlbnQtbGF5ZXI9InN2ZzEwODIzNCIgaW5rc2NhcGU6Y3g9IjM5LjE3ODcwNSIgaW5rc2NhcGU6Y3k9IjMzLjQ5MjU3NSIgaW5rc2NhcGU6cGFnZW9wYWNpdHk9IjAiIGlua3NjYXBlOnBhZ2VzaGFkb3c9IjIiIGlua3NjYXBlOndpbmRvdy1oZWlnaHQ9IjEwMTciIGlua3NjYXBlOndpbmRvdy1tYXhpbWl6ZWQ9IjEiIGlua3NjYXBlOndpbmRvdy13aWR0aD0iMTkyMCIgaW5rc2NhcGU6d2luZG93LXg9Ii04IiBpbmtzY2FwZTp3aW5kb3cteT0iLTgiIGlua3NjYXBlOnpvb209IjEyLjk0MjU3MyIgb2JqZWN0dG9sZXJhbmNlPSIxMCIgcGFnZWNvbG9yPSIjZmZmZmZmIiBzaG93Z3JpZD0iZmFsc2UiPiYjeGE7CTwvc29kaXBvZGk6bmFtZWR2aWV3PiYjeGE7PGcgaWQ9ImcxMDgyMzIiIHRyYW5zZm9ybT0idHJhbnNsYXRlKDAsMC4wMDMzNDUzMSkiPiYjeGE7CTx0aXRsZSBpZD0idGl0bGUxMDgwNzciPlBhZ2UtMTwvdGl0bGU+JiN4YTsJPGcgaWQ9Imdyb3VwMzg5OC0xIj4mI3hhOwkJPHRpdGxlIGlkPSJ0aXRsZTEwODA3OSI+VGFibGVzPC90aXRsZT4mI3hhOwkJPGcgaWQ9InNoYXBlMzg5OS0yIj4mI3hhOwkJCTx0aXRsZSBpZD0idGl0bGUxMDgwODEiPlNoZWV0LjM4OTk8L3RpdGxlPiYjeGE7CQkJPHBhdGggaWQ9InBhdGgxMDgwODMiIGlua3NjYXBlOmNvbm5lY3Rvci1jdXJ2YXR1cmU9IjAiIHN0eWxlPSJmaWxsOiNFMEUwRTA7IiBkPSJNMCw0Ny45OGMwLDEuMzQsMC45NiwyLjI2LDIuMTQsMi4yNiAgICAgYzU0LjQxLDAsNTQuNDEsMCw1NC40MSwwYzEuMywwLDIuMjItMC45MiwyLjIyLTIuMjZjMC0zOS40LDAtMzkuNCwwLTM5LjRDMCw4LjU4LDAsOC41OCwwLDguNThDMCw0Ny45OCwwLDQ3Ljk4LDAsNDcuOTh6Ii8+JiN4YTsJCTwvZz4mI3hhOwkJPGcgaWQ9InNoYXBlMzkwMC00IiB0cmFuc2Zvcm09InRyYW5zbGF0ZSgwLC00MS42NjM0KSI+JiN4YTsJCQk8dGl0bGUgaWQ9InRpdGxlMTA4MDg2Ij5TaGVldC4zOTAwPC90aXRsZT4mI3hhOwkJCTxwYXRoIGlkPSJwYXRoMTA4MDg4IiBpbmtzY2FwZTpjb25uZWN0b3ItY3VydmF0dXJlPSIwIiBzdHlsZT0iZmlsbDojOERDNjNGOyIgZD0iTTU2LjY2LDQxLjY2Yy01NC41MiwwLTU0LjUyLDAtNTQuNTIsMCAgICAgQzAuOTYsNDEuNjYsMCw0Mi43LDAsNDMuODFjMCw2LjQzLDAsNi40MywwLDYuNDNjNTguNzcsMCw1OC43NywwLDU4Ljc3LDBjMC02LjQzLDAtNi40MywwLTYuNDMgICAgIEM1OC43Nyw0Mi43LDU3Ljg1LDQxLjY2LDU2LjY2LDQxLjY2eiIvPiYjeGE7CQk8L2c+JiN4YTsJCTxnIGlkPSJzaGFwZTM5MDEtNiIgdHJhbnNmb3JtPSJ0cmFuc2xhdGUoMTcuMTQwNywtMjIuMDU3MSkiPiYjeGE7CQkJPHRpdGxlIGlkPSJ0aXRsZTEwODA5MSI+U2hlZXQuMzkwMTwvdGl0bGU+JiN4YTsJCQk8cGF0aCBpZD0icGF0aDEwODA5MyIgaW5rc2NhcGU6Y29ubmVjdG9yLWN1cnZhdHVyZT0iMCIgc3R5bGU9ImZpbGw6I0ZGRkZGRjsiIGQ9Ik0wLDQzLjV2Ni43NGgxMS4wMlY0My41SDB6Ii8+JiN4YTsJCTwvZz4mI3hhOwkJPGcgaWQ9InNoYXBlMzkwMi04IiB0cmFuc2Zvcm09InRyYW5zbGF0ZSgxNy4xNDA3LC0zMC42MzQ4KSI+JiN4YTsJCQk8dGl0bGUgaWQ9InRpdGxlMTA4MDk2Ij5TaGVldC4zOTAyPC90aXRsZT4mI3hhOwkJCTxwYXRoIGlkPSJwYXRoMTA4MDk4IiBpbmtzY2FwZTpjb25uZWN0b3ItY3VydmF0dXJlPSIwIiBzdHlsZT0iZmlsbDojRkZGRkZGOyIgZD0iTTAsNDMuNXY2Ljc0aDExLjAyVjQzLjVIMHoiLz4mI3hhOwkJPC9nPiYjeGE7CQk8ZyBpZD0ic2hhcGUzOTAzLTEwIiB0cmFuc2Zvcm09InRyYW5zbGF0ZSgxNy4xNDA3LC0xMy40NzkzKSI+JiN4YTsJCQk8dGl0bGUgaWQ9InRpdGxlMTA4MTAxIj5TaGVldC4zOTAzPC90aXRsZT4mI3hhOwkJCTxwYXRoIGlkPSJwYXRoMTA4MTAzIiBpbmtzY2FwZTpjb25uZWN0b3ItY3VydmF0dXJlPSIwIiBzdHlsZT0iZmlsbDojRkZGRkZGOyIgZD0iTTAsNDQuMTF2Ni4xM2gxMS4wMnYtNi4xM0gweiIvPiYjeGE7CQk8L2c+JiN4YTsJCTxnIGlkPSJzaGFwZTM5MDQtMTIiIHRyYW5zZm9ybT0idHJhbnNsYXRlKDMwLjYwODQsLTEzLjQ3OTMpIj4mI3hhOwkJCTx0aXRsZSBpZD0idGl0bGUxMDgxMDYiPlNoZWV0LjM5MDQ8L3RpdGxlPiYjeGE7CQkJPHBhdGggaWQ9InBhdGgxMDgxMDgiIGlua3NjYXBlOmNvbm5lY3Rvci1jdXJ2YXR1cmU9IjAiIHN0eWxlPSJmaWxsOiNGRkZGRkY7IiBkPSJNMCw0NC4xMXY2LjEzaDExLjAydi02LjEzSDB6Ii8+JiN4YTsJCTwvZz4mI3hhOwkJPGcgaWQ9InNoYXBlMzkwNS0xNCIgdHJhbnNmb3JtPSJ0cmFuc2xhdGUoMzAuNjA4NCwtMjIuMDU3MSkiPiYjeGE7CQkJPHRpdGxlIGlkPSJ0aXRsZTEwODExMSI+U2hlZXQuMzkwNTwvdGl0bGU+JiN4YTsJCQk8cGF0aCBpZD0icGF0aDEwODExMyIgaW5rc2NhcGU6Y29ubmVjdG9yLWN1cnZhdHVyZT0iMCIgc3R5bGU9ImZpbGw6I0ZGRkZGRjsiIGQ9Ik0wLDQzLjV2Ni43NGgxMS4wMlY0My41SDB6Ii8+JiN4YTsJCTwvZz4mI3hhOwkJPGcgaWQ9InNoYXBlMzkwNi0xNiIgdHJhbnNmb3JtPSJ0cmFuc2xhdGUoMzAuNjA4NCwtMzAuNjM0OCkiPiYjeGE7CQkJPHRpdGxlIGlkPSJ0aXRsZTEwODExNiI+U2hlZXQuMzkwNjwvdGl0bGU+JiN4YTsJCQk8cGF0aCBpZD0icGF0aDEwODExOCIgaW5rc2NhcGU6Y29ubmVjdG9yLWN1cnZhdHVyZT0iMCIgc3R5bGU9ImZpbGw6IzkyRDA1MDsiIGQ9Ik0wLDQzLjV2Ni43NGgxMS4wMlY0My41SDB6Ii8+JiN4YTsJCTwvZz4mI3hhOwkJPGcgaWQ9InNoYXBlMzkwNy0xOCIgdHJhbnNmb3JtPSJ0cmFuc2xhdGUoNC4yODUxNywtMzAuNjM0OCkiPiYjeGE7CQkJPHRpdGxlIGlkPSJ0aXRsZTEwODEyMSI+U2hlZXQuMzkwNzwvdGl0bGU+JiN4YTsJCQk8cGF0aCBpZD0icGF0aDEwODEyMyIgaW5rc2NhcGU6Y29ubmVjdG9yLWN1cnZhdHVyZT0iMCIgc3R5bGU9ImZpbGw6I0ZGRkZGRjsiIGQ9Ik0wLDQzLjV2Ni43NGgxMS4wMlY0My41SDB6Ii8+JiN4YTsJCTwvZz4mI3hhOwkJPGcgaWQ9InNoYXBlMzkwOC0yMCIgdHJhbnNmb3JtPSJ0cmFuc2xhdGUoNC4yODUxNywtMjIuMDU3MSkiPiYjeGE7CQkJPHRpdGxlIGlkPSJ0aXRsZTEwODEyNiI+U2hlZXQuMzkwODwvdGl0bGU+JiN4YTsJCQk8cGF0aCBpZD0icGF0aDEwODEyOCIgaW5rc2NhcGU6Y29ubmVjdG9yLWN1cnZhdHVyZT0iMCIgc3R5bGU9ImZpbGw6I0ZGRkZGRjsiIGQ9Ik0wLDQzLjV2Ni43NGgxMS4wMlY0My41SDB6Ii8+JiN4YTsJCTwvZz4mI3hhOwkJPGcgaWQ9InNoYXBlMzkwOS0yMiIgdHJhbnNmb3JtPSJ0cmFuc2xhdGUoNC4yODUxNywtMTMuNDc5MykiPiYjeGE7CQkJPHRpdGxlIGlkPSJ0aXRsZTEwODEzMSI+U2hlZXQuMzkwOTwvdGl0bGU+JiN4YTsJCQk8cGF0aCBpZD0icGF0aDEwODEzMyIgaW5rc2NhcGU6Y29ubmVjdG9yLWN1cnZhdHVyZT0iMCIgc3R5bGU9ImZpbGw6IzhEQzYzRjsiIGQ9Ik0wLDQ0LjExdjYuMTNoMTEuMDJ2LTYuMTNIMHoiLz4mI3hhOwkJPC9nPiYjeGE7CQk8ZyBpZD0ic2hhcGUzOTEwLTI0IiB0cmFuc2Zvcm09InRyYW5zbGF0ZSg0LjI4NTE3LC00LjI4ODg4KSI+JiN4YTsJCQk8dGl0bGUgaWQ9InRpdGxlMTA4MTM2Ij5TaGVldC4zOTEwPC90aXRsZT4mI3hhOwkJCTxwYXRoIGlkPSJwYXRoMTA4MTM4IiBpbmtzY2FwZTpjb25uZWN0b3ItY3VydmF0dXJlPSIwIiBzdHlsZT0iZmlsbDojRkZGRkZGOyIgZD0iTTAsNDMuNXY2Ljc0aDExLjAyVjQzLjVIMHoiLz4mI3hhOwkJPC9nPiYjeGE7CQk8ZyBpZD0ic2hhcGUzOTExLTI2IiB0cmFuc2Zvcm09InRyYW5zbGF0ZSgxNy4xNDA3LC00LjI4ODg4KSI+JiN4YTsJCQk8dGl0bGUgaWQ9InRpdGxlMTA4MTQxIj5TaGVldC4zOTExPC90aXRsZT4mI3hhOwkJCTxwYXRoIGlkPSJwYXRoMTA4MTQzIiBpbmtzY2FwZTpjb25uZWN0b3ItY3VydmF0dXJlPSIwIiBzdHlsZT0iZmlsbDojRkZGRkZGOyIgZD0iTTAsNDMuNXY2Ljc0aDExLjAyVjQzLjVIMHoiLz4mI3hhOwkJPC9nPiYjeGE7CQk8ZyBpZD0ic2hhcGUzOTEyLTI4IiB0cmFuc2Zvcm09InRyYW5zbGF0ZSgzMC42MDg0LC00LjI4ODg4KSI+JiN4YTsJCQk8dGl0bGUgaWQ9InRpdGxlMTA4MTQ2Ij5TaGVldC4zOTEyPC90aXRsZT4mI3hhOwkJCTxwYXRoIGlkPSJwYXRoMTA4MTQ4IiBpbmtzY2FwZTpjb25uZWN0b3ItY3VydmF0dXJlPSIwIiBzdHlsZT0iZmlsbDojRkZGRkZGOyIgZD0iTTAsNDMuNXY2Ljc0aDExLjAyVjQzLjVIMHoiLz4mI3hhOwkJPC9nPiYjeGE7CQk8ZyBpZD0ic2hhcGUzOTEzLTMwIiB0cmFuc2Zvcm09InRyYW5zbGF0ZSg0My40NjM5LC0xMy40NzkzKSI+JiN4YTsJCQk8dGl0bGUgaWQ9InRpdGxlMTA4MTUxIj5TaGVldC4zOTEzPC90aXRsZT4mI3hhOwkJCTxwYXRoIGlkPSJwYXRoMTA4MTUzIiBpbmtzY2FwZTpjb25uZWN0b3ItY3VydmF0dXJlPSIwIiBzdHlsZT0iZmlsbDojRkZGRkZGOyIgZD0iTTAsNDQuMTF2Ni4xM2gxMS4wMnYtNi4xM0gweiIvPiYjeGE7CQk8L2c+JiN4YTsJCTxnIGlkPSJzaGFwZTM5MTQtMzIiIHRyYW5zZm9ybT0idHJhbnNsYXRlKDQzLjQ2MzksLTIyLjA1NzEpIj4mI3hhOwkJCTx0aXRsZSBpZD0idGl0bGUxMDgxNTYiPlNoZWV0LjM5MTQ8L3RpdGxlPiYjeGE7CQkJPHBhdGggaWQ9InBhdGgxMDgxNTgiIGlua3NjYXBlOmNvbm5lY3Rvci1jdXJ2YXR1cmU9IjAiIHN0eWxlPSJmaWxsOiNGRkZGRkY7IiBkPSJNMCw0My41djYuNzRoMTEuMDJWNDMuNUgweiIvPiYjeGE7CQk8L2c+JiN4YTsJCTxnIGlkPSJzaGFwZTM5MTUtMzQiIHRyYW5zZm9ybT0idHJhbnNsYXRlKDQzLjQ2MzksLTMwLjYzNDgpIj4mI3hhOwkJCTx0aXRsZSBpZD0idGl0bGUxMDgxNjEiPlNoZWV0LjM5MTU8L3RpdGxlPiYjeGE7CQkJPHBhdGggaWQ9InBhdGgxMDgxNjMiIGlua3NjYXBlOmNvbm5lY3Rvci1jdXJ2YXR1cmU9IjAiIHN0eWxlPSJmaWxsOiM5MkQwNTA7IiBkPSJNMCw0My41djYuNzRoMTEuMDJWNDMuNUgweiIvPiYjeGE7CQk8L2c+JiN4YTsJCTxnIGlkPSJzaGFwZTM5MTYtMzYiIHRyYW5zZm9ybT0idHJhbnNsYXRlKDQzLjQ2MzksLTQuMjg4ODgpIj4mI3hhOwkJCTx0aXRsZSBpZD0idGl0bGUxMDgxNjYiPlNoZWV0LjM5MTY8L3RpdGxlPiYjeGE7CQkJPHBhdGggaWQ9InBhdGgxMDgxNjgiIGlua3NjYXBlOmNvbm5lY3Rvci1jdXJ2YXR1cmU9IjAiIHN0eWxlPSJmaWxsOiNGRkZGRkY7IiBkPSJNMCw0My41djYuNzRoMTEuMDJWNDMuNUgweiIvPiYjeGE7CQk8L2c+JiN4YTsJCTxnIGlkPSJzaGFwZTM5MTctMzgiIHRyYW5zZm9ybT0idHJhbnNsYXRlKDEuODM2NSkiPiYjeGE7CQkJPHRpdGxlIGlkPSJ0aXRsZTEwODE3MSI+U2hlZXQuMzkxNzwvdGl0bGU+JiN4YTsJCQk8cGF0aCBpZD0icGF0aDEwODE3MyIgaW5rc2NhcGU6Y29ubmVjdG9yLWN1cnZhdHVyZT0iMCIgc3R5bGU9ImZpbGw6IzFDNDI3RjsiIGQ9Ik0wLjE1LDUwLjI0YzAuMTIsMCwwLjIzLDAsMC40NiwwICAgICBjMi40OSwwLDIuNDksMCwyLjQ5LDBjMC4xMSwwLDAuMTEsMCwwLjExLDBjLTIuODMsMC0yLjgzLDAtMi44MywwQzAuMjcsNTAuMjQsMC4yNyw1MC4yNCwwLjE1LDUwLjI0eiBNNDkuNTksMCAgICAgQzAuNjEsMCwwLjYxLDAsMC42MSwwQzAuMzgsMCwwLjI3LDAsMCwwLjE1QzAuMTUsMC4xNSwwLjI3LDAsMC4zOCwwQzQ5LjU5LDAsNDkuNTksMCw0OS41OSwwTDQ5LjU5LDB6Ii8+JiN4YTsJCTwvZz4mI3hhOwkJPGcgaWQ9InNoYXBlMzkxOC00MCI+JiN4YTsJCQk8dGl0bGUgaWQ9InRpdGxlMTA4MTc2Ij5TaGVldC4zOTE4PC90aXRsZT4mI3hhOwkJCTxwYXRoIGlkPSJwYXRoMTA4MTc4IiBpbmtzY2FwZTpjb25uZWN0b3ItY3VydmF0dXJlPSIwIiBzdHlsZT0iZmlsbDojRTNFM0UzOyIgZD0iTTQuMzYsMzcuMDNjMC02LjY2LDAtNi42NiwwLTYuNjYgICAgIGMxMC43OSwwLDEwLjc5LDAsMTAuNzksMGMwLDYuNjYsMCw2LjY2LDAsNi42NkM0LjM2LDM3LjAzLDQuMzYsMzcuMDMsNC4zNiwzNy4wM3ogTTQuMzYsMjguMjJjMC02LjY2LDAtNi42NiwwLTYuNjYgICAgIGMxMC43OSwwLDEwLjc5LDAsMTAuNzksMGMwLDYuNjYsMCw2LjY2LDAsNi42NkM0LjM2LDI4LjIyLDQuMzYsMjguMjIsNC4zNiwyOC4yMnogTTQuMzYsMTkuNDFjMC02LjY2LDAtNi42NiwwLTYuNjYgICAgIGMxMC43OSwwLDEwLjc5LDAsMTAuNzksMGMwLDYuNjYsMCw2LjY2LDAsNi42NkM0LjM2LDE5LjQxLDQuMzYsMTkuNDEsNC4zNiwxOS40MXogTTE3LjQxLDE5LjQxYzAtNi42NiwwLTYuNjYsMC02LjY2ICAgICBjMTAuNzksMCwxMC43OSwwLDEwLjc5LDBjMCw2LjY2LDAsNi42NiwwLDYuNjZDMTcuNDEsMTkuNDEsMTcuNDEsMTkuNDEsMTcuNDEsMTkuNDF6IE00Mi44NSw4LjU4QzAsOC41OCwwLDguNTgsMCw4LjU4ICAgICBjMCwyLjAzLDAsMi4wMywwLDIuMDNjMCwzLjk0LDAsMy45NCwwLDMuOTRjMCwzMy4zMiwwLDMzLjMyLDAsMzMuMzJjMCwxLjE4LDAuODQsMi4xNCwxLjkxLDIuMzdjMC4xMiwwLDAuMTIsMCwwLjIzLDAgICAgIGMyLjgsMCwyLjgsMCwyLjgsMGM0LjAxLTQuNCw0LjAxLTQuNCw0LjAxLTQuNGMtNC41OSwwLTQuNTksMC00LjU5LDBjMC02LjY3LDAtNi42NywwLTYuNjdjMTAuNTYsMCwxMC41NiwwLDEwLjU2LDAgICAgIGMyLjQ5LTIuNiwyLjQ5LTIuNiwyLjQ5LTIuNmMwLTYuMiwwLTYuMiwwLTYuMmM1LjYyLDAsNS42MiwwLDUuNjIsMGMxLjk5LTIuMTUsMS45OS0yLjE1LDEuOTktMi4xNWMtNy42MSwwLTcuNjEsMC03LjYxLDAgICAgIGMwLTYuNjYsMC02LjY2LDAtNi42NmMxMC43OSwwLDEwLjc5LDAsMTAuNzksMGMwLDMuMSwwLDMuMSwwLDMuMWMyLjIyLTIuMzcsMi4yMi0yLjM3LDIuMjItMi4zN2MwLTAuNzMsMC0wLjczLDAtMC43MyAgICAgYzAuNjEsMCwwLjYxLDAsMC42MSwwYzEuOTktMi4xNSwxLjk5LTIuMTUsMS45OS0yLjE1Yy0yLjYsMC0yLjYsMC0yLjYsMGMwLTYuNjYsMC02LjY2LDAtNi42NmM4LjU3LDAsOC41NywwLDguNTcsMCAgICAgQzQyLjg1LDguNTgsNDIuODUsOC41OCw0Mi44NSw4LjU4eiIvPiYjeGE7CQk8L2c+JiN4YTsJCTxnIGlkPSJzaGFwZTM5MTktNDIiIHRyYW5zZm9ybT0idHJhbnNsYXRlKDAsLTQxLjY2MzQpIj4mI3hhOwkJCTx0aXRsZSBpZD0idGl0bGUxMDgxODEiPlNoZWV0LjM5MTk8L3RpdGxlPiYjeGE7CQkJPHBhdGggaWQ9InBhdGgxMDgxODMiIGlua3NjYXBlOmNvbm5lY3Rvci1jdXJ2YXR1cmU9IjAiIHN0eWxlPSJmaWxsOiM5OUNDNTM7IiBkPSJNNTEuNDIsNDEuNjZjLTQ5LjI4LDAtNDkuMjgsMC00OS4yOCwwICAgICBjLTAuMTEsMC0wLjIzLDAuMTItMC4zNCwwLjEyQzAuNzMsNDIuMDEsMCw0Mi45MywwLDQzLjkyYzAsNi4zMiwwLDYuMzIsMCw2LjMyYzQzLjE2LDAsNDMuMTYsMCw0My4xNiwwICAgICBDNTEuNDIsNDEuNjYsNTEuNDIsNDEuNjYsNTEuNDIsNDEuNjZ6Ii8+JiN4YTsJCTwvZz4mI3hhOwkJPGcgaWQ9InNoYXBlMzkyMC00NCIgdHJhbnNmb3JtPSJ0cmFuc2xhdGUoMTcuMTQwNywtMjIuMDU3MSkiPiYjeGE7CQkJPHRpdGxlIGlkPSJ0aXRsZTEwODE4NiI+U2hlZXQuMzkyMDwvdGl0bGU+JiN4YTsJCQk8cGF0aCBpZD0icGF0aDEwODE4OCIgaW5rc2NhcGU6Y29ubmVjdG9yLWN1cnZhdHVyZT0iMCIgc3R5bGU9ImZpbGw6I0ZGRkZGRjsiIGQ9Ik0xMS4wMiw0My41SDB2Ni43NGg3LjgxbDMuMjEtMy42VjQzLjV6Ii8+JiN4YTsJCTwvZz4mI3hhOwkJPGcgaWQ9InNoYXBlMzkyMS00NiIgdHJhbnNmb3JtPSJ0cmFuc2xhdGUoMTcuMTQwNywtMzAuNjM0OCkiPiYjeGE7CQkJPHRpdGxlIGlkPSJ0aXRsZTEwODE5MSI+U2hlZXQuMzkyMTwvdGl0bGU+JiN4YTsJCQk8cGF0aCBpZD0icGF0aDEwODE5MyIgaW5rc2NhcGU6Y29ubmVjdG9yLWN1cnZhdHVyZT0iMCIgc3R5bGU9ImZpbGw6IzkyRDA1MDsiIGQ9Ik0wLDQzLjV2Ni43NGgxMS4wMlY0My41SDB6Ii8+JiN4YTsJCTwvZz4mI3hhOwkJPGcgaWQ9InNoYXBlMzkyMi00OCIgdHJhbnNmb3JtPSJ0cmFuc2xhdGUoMTcuMTQwNywtMTMuNDc5MykiPiYjeGE7CQkJPHRpdGxlIGlkPSJ0aXRsZTEwODE5NiI+U2hlZXQuMzkyMjwvdGl0bGU+JiN4YTsJCQk8cGF0aCBpZD0icGF0aDEwODE5OCIgaW5rc2NhcGU6Y29ubmVjdG9yLWN1cnZhdHVyZT0iMCIgc3R5bGU9ImZpbGw6I0ZGRkZGRjsiIGQ9Ik02LjEyLDQ0LjExSDB2Ni4xM0w2LjEyLDQ0LjExeiIvPiYjeGE7CQk8L2c+JiN4YTsJCTxnIGlkPSJzaGFwZTM5MjMtNTAiIHRyYW5zZm9ybT0idHJhbnNsYXRlKDMwLjYwODQsLTI3LjU3MTQpIj4mI3hhOwkJCTx0aXRsZSBpZD0idGl0bGUxMDgyMDEiPlNoZWV0LjM5MjM8L3RpdGxlPiYjeGE7CQkJPHBhdGggaWQ9InBhdGgxMDgyMDMiIGlua3NjYXBlOmNvbm5lY3Rvci1jdXJ2YXR1cmU9IjAiIHN0eWxlPSJmaWxsOiNGRkZGRkY7IiBkPSJNMC42MSw0OS4wMkgwdjEuMjJMMC42MSw0OS4wMnoiLz4mI3hhOwkJPC9nPiYjeGE7CQk8ZyBpZD0ic2hhcGUzOTI0LTUyIiB0cmFuc2Zvcm09InRyYW5zbGF0ZSgzMC42MDg0LC0zMC42MzQ4KSI+JiN4YTsJCQk8dGl0bGUgaWQ9InRpdGxlMTA4MjA2Ij5TaGVldC4zOTI0PC90aXRsZT4mI3hhOwkJCTxwYXRoIGlkPSJwYXRoMTA4MjA4IiBpbmtzY2FwZTpjb25uZWN0b3ItY3VydmF0dXJlPSIwIiBzdHlsZT0iZmlsbDojOTJEMDUwOyIgZD0iTTguNTcsNDMuNUgwdjYuNzRoMi42NEw4LjU3LDQzLjV6Ii8+JiN4YTsJCTwvZz4mI3hhOwkJPGcgaWQ9InNoYXBlMzkyNS01NCIgdHJhbnNmb3JtPSJ0cmFuc2xhdGUoNC4yODUxNywtMzAuNjM0OCkiPiYjeGE7CQkJPHRpdGxlIGlkPSJ0aXRsZTEwODIxMSI+U2hlZXQuMzkyNTwvdGl0bGU+JiN4YTsJCQk8cGF0aCBpZD0icGF0aDEwODIxMyIgaW5rc2NhcGU6Y29ubmVjdG9yLWN1cnZhdHVyZT0iMCIgc3R5bGU9ImZpbGw6IzkyRDA1MDsiIGQ9Ik0wLDQzLjV2Ni43NGgxMS4wMlY0My41SDB6Ii8+JiN4YTsJCTwvZz4mI3hhOwkJPGcgaWQ9InNoYXBlMzkyNi01NiIgdHJhbnNmb3JtPSJ0cmFuc2xhdGUoNC4yODUxNywtMjIuMDU3MSkiPiYjeGE7CQkJPHRpdGxlIGlkPSJ0aXRsZTEwODIxNiI+U2hlZXQuMzkyNjwvdGl0bGU+JiN4YTsJCQk8cGF0aCBpZD0icGF0aDEwODIxOCIgaW5rc2NhcGU6Y29ubmVjdG9yLWN1cnZhdHVyZT0iMCIgc3R5bGU9ImZpbGw6I0ZGRkZGRjsiIGQ9Ik0wLDQzLjV2Ni43NGgxMS4wMlY0My41SDB6Ii8+JiN4YTsJCTwvZz4mI3hhOwkJPGcgaWQ9InNoYXBlMzkyNy01OCIgdHJhbnNmb3JtPSJ0cmFuc2xhdGUoNC4yODUxNywtMTMuNDc5MykiPiYjeGE7CQkJPHRpdGxlIGlkPSJ0aXRsZTEwODIyMSI+U2hlZXQuMzkyNzwvdGl0bGU+JiN4YTsJCQk8cGF0aCBpZD0icGF0aDEwODIyMyIgaW5rc2NhcGU6Y29ubmVjdG9yLWN1cnZhdHVyZT0iMCIgc3R5bGU9ImZpbGw6I0ZGRkZGRjsiIGQ9Ik0wLDQ0LjExdjYuMTNoMTEuMDJ2LTYuMTNIMHoiLz4mI3hhOwkJPC9nPiYjeGE7CQk8ZyBpZD0ic2hhcGUzOTI4LTYwIiB0cmFuc2Zvcm09InRyYW5zbGF0ZSg0LjIxODc1LC00LjI4ODg4KSI+JiN4YTsJCQk8dGl0bGUgaWQ9InRpdGxlMTA4MjI2Ij5TaGVldC4zOTI4PC90aXRsZT4mI3hhOwkJCTxwYXRoIGlkPSJwYXRoMTA4MjI4IiBpbmtzY2FwZTpjb25uZWN0b3ItY3VydmF0dXJlPSIwIiBzdHlsZT0iZmlsbDojRkZGRkZGOyIgZD0iTTEwLjQxLDQzLjVIMHY2Ljc0aDQuNTFMMTAuNDEsNDMuNXoiLz4mI3hhOwkJPC9nPiYjeGE7CTwvZz4mI3hhOzwvZz4mI3hhOzwvc3ZnPg==;fillColor=#FFE599;" vertex="1" parent="1">
          <mxGeometry x="986" y="263" width="59" height="50" as="geometry" />
        </mxCell>
        <mxCell id="0KH5nl5nT1wfXX2kWhob-125" style="edgeStyle=orthogonalEdgeStyle;rounded=0;orthogonalLoop=1;jettySize=auto;html=1;entryX=0;entryY=0.5;entryDx=0;entryDy=0;strokeColor=#B5739D;" edge="1" parent="1" source="0KH5nl5nT1wfXX2kWhob-110" target="0KH5nl5nT1wfXX2kWhob-123">
          <mxGeometry relative="1" as="geometry">
            <Array as="points">
              <mxPoint x="404" y="135" />
            </Array>
          </mxGeometry>
        </mxCell>
        <mxCell id="0KH5nl5nT1wfXX2kWhob-110" value="" style="shape=image;verticalLabelPosition=bottom;labelBackgroundColor=#ffffff;verticalAlign=top;aspect=fixed;imageAspect=0;image=data:image/svg+xml,PHN2ZyB4bWxuczpjYz0iaHR0cDovL2NyZWF0aXZlY29tbW9ucy5vcmcvbnMjIiB4bWxuczpkYz0iaHR0cDovL3B1cmwub3JnL2RjL2VsZW1lbnRzLzEuMS8iIHhtbG5zOmlua3NjYXBlPSJodHRwOi8vd3d3Lmlua3NjYXBlLm9yZy9uYW1lc3BhY2VzL2lua3NjYXBlIiB4bWxuczpyZGY9Imh0dHA6Ly93d3cudzMub3JnLzE5OTkvMDIvMjItcmRmLXN5bnRheC1ucyMiIHhtbG5zOnNvZGlwb2RpPSJodHRwOi8vc29kaXBvZGkuc291cmNlZm9yZ2UubmV0L0RURC9zb2RpcG9kaS0wLmR0ZCIgeG1sbnM6c3ZnPSJodHRwOi8vd3d3LnczLm9yZy8yMDAwL3N2ZyIgeG1sbnM9Imh0dHA6Ly93d3cudzMub3JnLzIwMDAvc3ZnIiB4bWxuczp4bGluaz0iaHR0cDovL3d3dy53My5vcmcvMTk5OS94bGluayIgdmVyc2lvbj0iMS4xIiBpZD0ic3ZnNzc5MjQiIGlua3NjYXBlOnZlcnNpb249IjAuOTIuMyAoMjQwNTU0NiwgMjAxOC0wMy0xMSkiIHNvZGlwb2RpOmRvY25hbWU9ImRhdGFfcGlwZWxpbmVzLnN2ZyIgeD0iMHB4IiB5PSIwcHgiIHZpZXdCb3g9IjAgMCA2Mi4zNyA0MC40MiIgc3R5bGU9ImVuYWJsZS1iYWNrZ3JvdW5kOm5ldyAwIDAgNjIuMzcgNDAuNDI7IiB4bWw6c3BhY2U9InByZXNlcnZlIj4mI3hhOzxzb2RpcG9kaTpuYW1lZHZpZXcgYm9yZGVyY29sb3I9IiM2NjY2NjYiIGJvcmRlcm9wYWNpdHk9IjEiIGZpdC1tYXJnaW4tYm90dG9tPSIwIiBmaXQtbWFyZ2luLWxlZnQ9IjAiIGZpdC1tYXJnaW4tcmlnaHQ9IjAiIGZpdC1tYXJnaW4tdG9wPSIwIiBncmlkdG9sZXJhbmNlPSIxMCIgZ3VpZGV0b2xlcmFuY2U9IjEwIiBpZD0ibmFtZWR2aWV3Nzc5MjYiIGlua3NjYXBlOmN1cnJlbnQtbGF5ZXI9InN2Zzc3OTI0IiBpbmtzY2FwZTpjeD0iNDUuMjI3NTg0IiBpbmtzY2FwZTpjeT0iMjAuMzQ0ODU2IiBpbmtzY2FwZTpwYWdlb3BhY2l0eT0iMCIgaW5rc2NhcGU6cGFnZXNoYWRvdz0iMiIgaW5rc2NhcGU6d2luZG93LWhlaWdodD0iMTAxNyIgaW5rc2NhcGU6d2luZG93LW1heGltaXplZD0iMSIgaW5rc2NhcGU6d2luZG93LXdpZHRoPSIxOTIwIiBpbmtzY2FwZTp3aW5kb3cteD0iLTgiIGlua3NjYXBlOndpbmRvdy15PSItOCIgaW5rc2NhcGU6em9vbT0iMTEuMzc2MzExIiBvYmplY3R0b2xlcmFuY2U9IjEwIiBwYWdlY29sb3I9IiNmZmZmZmYiIHNob3dncmlkPSJmYWxzZSI+JiN4YTsJPC9zb2RpcG9kaTpuYW1lZHZpZXc+JiN4YTs8ZyBpZD0iZzc3OTIyIj4mI3hhOwk8dGl0bGUgaWQ9InRpdGxlNzc5MDIiPlBhZ2UtMTwvdGl0bGU+JiN4YTsJPGcgaWQ9Imdyb3VwNTAwMS0xIj4mI3hhOwkJPHRpdGxlIGlkPSJ0aXRsZTc3OTA0Ij5EYXRhIFBpcGVsaW5lcy40OTQ8L3RpdGxlPiYjeGE7CQk8ZyBpZD0ic2hhcGU1MDAyLTIiIHRyYW5zZm9ybT0idHJhbnNsYXRlKDkuMjAwOTgsLTQuNTg4MDYpIj4mI3hhOwkJCTx0aXRsZSBpZD0idGl0bGU3NzkwNiI+U2hlZXQuNTAwMjwvdGl0bGU+JiN4YTsJCQk8cGF0aCBpZD0icGF0aDc3OTA4IiBpbmtzY2FwZTpjb25uZWN0b3ItY3VydmF0dXJlPSIwIiBzdHlsZT0iZmlsbDojMDA3MDhFOyIgZD0iTTAsOS4yMXYzMS4yMWg0Ny41NFY5LjIxSDB6Ii8+JiN4YTsJCTwvZz4mI3hhOwkJPGcgaWQ9InNoYXBlNTAwMy00Ij4mI3hhOwkJCTx0aXRsZSBpZD0idGl0bGU3NzkxMSI+U2hlZXQuNTAwMzwvdGl0bGU+JiN4YTsJCQk8cGF0aCBpZD0icGF0aDc3OTEzIiBpbmtzY2FwZTpjb25uZWN0b3ItY3VydmF0dXJlPSIwIiBzdHlsZT0iZmlsbDojMDA5MEI3OyIgZD0iTTAsNS44NUMwLDM0LjYsMCwzNC42LDAsMzQuNiAgICAgYzAsMy41MSwyLjM2LDUuODIsNS44OCw1LjgyYzMuMTYsMCw1Ljg4LTIuMzEsNS44OC01LjgyYzAtMjguNzUsMC0yOC43NSwwLTI4Ljc1QzExLjc2LDIuNzUsOS4wNCwwLDUuODgsMEMyLjM2LDAsMCwyLjc1LDAsNS44NSAgICAgeiIvPiYjeGE7CQk8L2c+JiN4YTsJCTxnIGlkPSJzaGFwZTUwMDQtNiIgdHJhbnNmb3JtPSJ0cmFuc2xhdGUoNTEuMTE2NikiPiYjeGE7CQkJPHRpdGxlIGlkPSJ0aXRsZTc3OTE2Ij5TaGVldC41MDA0PC90aXRsZT4mI3hhOwkJCTxwYXRoIGlkPSJwYXRoNzc5MTgiIGlua3NjYXBlOmNvbm5lY3Rvci1jdXJ2YXR1cmU9IjAiIHN0eWxlPSJmaWxsOiMwMDkwQjc7IiBkPSJNMCw1Ljg1QzAsMzQuNiwwLDM0LjYsMCwzNC42ICAgICBjMCwzLjUxLDIuNjUsNS44Miw1LjYyLDUuODJjMy4wMSwwLDUuNjMtMi4zMSw1LjYzLTUuODJjMC0yOC43NSwwLTI4Ljc1LDAtMjguNzVDMTEuMjUsMi43NSw4LjYzLDAsNS42MiwwQzIuNjUsMCwwLDIuNzUsMCw1Ljg1ICAgICB6Ii8+JiN4YTsJCTwvZz4mI3hhOwk8L2c+JiN4YTs8L2c+JiN4YTs8L3N2Zz4=;fillColor=#FFE599;" vertex="1" parent="1">
          <mxGeometry x="383.35" y="203" width="66.65" height="43" as="geometry" />
        </mxCell>
        <mxCell id="0KH5nl5nT1wfXX2kWhob-126" style="edgeStyle=orthogonalEdgeStyle;rounded=0;orthogonalLoop=1;jettySize=auto;html=1;entryX=0.75;entryY=1;entryDx=0;entryDy=0;strokeColor=#B5739D;" edge="1" parent="1" source="0KH5nl5nT1wfXX2kWhob-111" target="0KH5nl5nT1wfXX2kWhob-122">
          <mxGeometry relative="1" as="geometry" />
        </mxCell>
        <mxCell id="0KH5nl5nT1wfXX2kWhob-111" value="" style="shape=image;verticalLabelPosition=bottom;labelBackgroundColor=#ffffff;verticalAlign=top;aspect=fixed;imageAspect=0;image=data:image/svg+xml,PHN2ZyB4bWxuczpjYz0iaHR0cDovL2NyZWF0aXZlY29tbW9ucy5vcmcvbnMjIiB4bWxuczpkYz0iaHR0cDovL3B1cmwub3JnL2RjL2VsZW1lbnRzLzEuMS8iIHhtbG5zOmlua3NjYXBlPSJodHRwOi8vd3d3Lmlua3NjYXBlLm9yZy9uYW1lc3BhY2VzL2lua3NjYXBlIiB4bWxuczpyZGY9Imh0dHA6Ly93d3cudzMub3JnLzE5OTkvMDIvMjItcmRmLXN5bnRheC1ucyMiIHhtbG5zOnNvZGlwb2RpPSJodHRwOi8vc29kaXBvZGkuc291cmNlZm9yZ2UubmV0L0RURC9zb2RpcG9kaS0wLmR0ZCIgeG1sbnM6c3ZnPSJodHRwOi8vd3d3LnczLm9yZy8yMDAwL3N2ZyIgeG1sbnM9Imh0dHA6Ly93d3cudzMub3JnLzIwMDAvc3ZnIiB4bWxuczp4bGluaz0iaHR0cDovL3d3dy53My5vcmcvMTk5OS94bGluayIgdmVyc2lvbj0iMS4xIiBpZD0ic3ZnNzc5MjQiIGlua3NjYXBlOnZlcnNpb249IjAuOTIuMyAoMjQwNTU0NiwgMjAxOC0wMy0xMSkiIHNvZGlwb2RpOmRvY25hbWU9ImRhdGFfcGlwZWxpbmVzLnN2ZyIgeD0iMHB4IiB5PSIwcHgiIHZpZXdCb3g9IjAgMCA2Mi4zNyA0MC40MiIgc3R5bGU9ImVuYWJsZS1iYWNrZ3JvdW5kOm5ldyAwIDAgNjIuMzcgNDAuNDI7IiB4bWw6c3BhY2U9InByZXNlcnZlIj4mI3hhOzxzb2RpcG9kaTpuYW1lZHZpZXcgYm9yZGVyY29sb3I9IiM2NjY2NjYiIGJvcmRlcm9wYWNpdHk9IjEiIGZpdC1tYXJnaW4tYm90dG9tPSIwIiBmaXQtbWFyZ2luLWxlZnQ9IjAiIGZpdC1tYXJnaW4tcmlnaHQ9IjAiIGZpdC1tYXJnaW4tdG9wPSIwIiBncmlkdG9sZXJhbmNlPSIxMCIgZ3VpZGV0b2xlcmFuY2U9IjEwIiBpZD0ibmFtZWR2aWV3Nzc5MjYiIGlua3NjYXBlOmN1cnJlbnQtbGF5ZXI9InN2Zzc3OTI0IiBpbmtzY2FwZTpjeD0iNDUuMjI3NTg0IiBpbmtzY2FwZTpjeT0iMjAuMzQ0ODU2IiBpbmtzY2FwZTpwYWdlb3BhY2l0eT0iMCIgaW5rc2NhcGU6cGFnZXNoYWRvdz0iMiIgaW5rc2NhcGU6d2luZG93LWhlaWdodD0iMTAxNyIgaW5rc2NhcGU6d2luZG93LW1heGltaXplZD0iMSIgaW5rc2NhcGU6d2luZG93LXdpZHRoPSIxOTIwIiBpbmtzY2FwZTp3aW5kb3cteD0iLTgiIGlua3NjYXBlOndpbmRvdy15PSItOCIgaW5rc2NhcGU6em9vbT0iMTEuMzc2MzExIiBvYmplY3R0b2xlcmFuY2U9IjEwIiBwYWdlY29sb3I9IiNmZmZmZmYiIHNob3dncmlkPSJmYWxzZSI+JiN4YTsJPC9zb2RpcG9kaTpuYW1lZHZpZXc+JiN4YTs8ZyBpZD0iZzc3OTIyIj4mI3hhOwk8dGl0bGUgaWQ9InRpdGxlNzc5MDIiPlBhZ2UtMTwvdGl0bGU+JiN4YTsJPGcgaWQ9Imdyb3VwNTAwMS0xIj4mI3hhOwkJPHRpdGxlIGlkPSJ0aXRsZTc3OTA0Ij5EYXRhIFBpcGVsaW5lcy40OTQ8L3RpdGxlPiYjeGE7CQk8ZyBpZD0ic2hhcGU1MDAyLTIiIHRyYW5zZm9ybT0idHJhbnNsYXRlKDkuMjAwOTgsLTQuNTg4MDYpIj4mI3hhOwkJCTx0aXRsZSBpZD0idGl0bGU3NzkwNiI+U2hlZXQuNTAwMjwvdGl0bGU+JiN4YTsJCQk8cGF0aCBpZD0icGF0aDc3OTA4IiBpbmtzY2FwZTpjb25uZWN0b3ItY3VydmF0dXJlPSIwIiBzdHlsZT0iZmlsbDojMDA3MDhFOyIgZD0iTTAsOS4yMXYzMS4yMWg0Ny41NFY5LjIxSDB6Ii8+JiN4YTsJCTwvZz4mI3hhOwkJPGcgaWQ9InNoYXBlNTAwMy00Ij4mI3hhOwkJCTx0aXRsZSBpZD0idGl0bGU3NzkxMSI+U2hlZXQuNTAwMzwvdGl0bGU+JiN4YTsJCQk8cGF0aCBpZD0icGF0aDc3OTEzIiBpbmtzY2FwZTpjb25uZWN0b3ItY3VydmF0dXJlPSIwIiBzdHlsZT0iZmlsbDojMDA5MEI3OyIgZD0iTTAsNS44NUMwLDM0LjYsMCwzNC42LDAsMzQuNiAgICAgYzAsMy41MSwyLjM2LDUuODIsNS44OCw1LjgyYzMuMTYsMCw1Ljg4LTIuMzEsNS44OC01LjgyYzAtMjguNzUsMC0yOC43NSwwLTI4Ljc1QzExLjc2LDIuNzUsOS4wNCwwLDUuODgsMEMyLjM2LDAsMCwyLjc1LDAsNS44NSAgICAgeiIvPiYjeGE7CQk8L2c+JiN4YTsJCTxnIGlkPSJzaGFwZTUwMDQtNiIgdHJhbnNmb3JtPSJ0cmFuc2xhdGUoNTEuMTE2NikiPiYjeGE7CQkJPHRpdGxlIGlkPSJ0aXRsZTc3OTE2Ij5TaGVldC41MDA0PC90aXRsZT4mI3hhOwkJCTxwYXRoIGlkPSJwYXRoNzc5MTgiIGlua3NjYXBlOmNvbm5lY3Rvci1jdXJ2YXR1cmU9IjAiIHN0eWxlPSJmaWxsOiMwMDkwQjc7IiBkPSJNMCw1Ljg1QzAsMzQuNiwwLDM0LjYsMCwzNC42ICAgICBjMCwzLjUxLDIuNjUsNS44Miw1LjYyLDUuODJjMy4wMSwwLDUuNjMtMi4zMSw1LjYzLTUuODJjMC0yOC43NSwwLTI4Ljc1LDAtMjguNzVDMTEuMjUsMi43NSw4LjYzLDAsNS42MiwwQzIuNjUsMCwwLDIuNzUsMCw1Ljg1ICAgICB6Ii8+JiN4YTsJCTwvZz4mI3hhOwk8L2c+JiN4YTs8L2c+JiN4YTs8L3N2Zz4=;fillColor=#FFE599;" vertex="1" parent="1">
          <mxGeometry x="578.0000000000001" y="204" width="62" height="40" as="geometry" />
        </mxCell>
        <mxCell id="0KH5nl5nT1wfXX2kWhob-127" style="edgeStyle=orthogonalEdgeStyle;rounded=0;orthogonalLoop=1;jettySize=auto;html=1;exitX=0.5;exitY=0;exitDx=0;exitDy=0;entryX=1;entryY=0.5;entryDx=0;entryDy=0;strokeColor=#B5739D;" edge="1" parent="1" source="0KH5nl5nT1wfXX2kWhob-112" target="0KH5nl5nT1wfXX2kWhob-122">
          <mxGeometry relative="1" as="geometry" />
        </mxCell>
        <mxCell id="0KH5nl5nT1wfXX2kWhob-112" value="" style="shape=image;verticalLabelPosition=bottom;labelBackgroundColor=#ffffff;verticalAlign=top;aspect=fixed;imageAspect=0;image=data:image/svg+xml,PHN2ZyB4bWxuczpjYz0iaHR0cDovL2NyZWF0aXZlY29tbW9ucy5vcmcvbnMjIiB4bWxuczpkYz0iaHR0cDovL3B1cmwub3JnL2RjL2VsZW1lbnRzLzEuMS8iIHhtbG5zOmlua3NjYXBlPSJodHRwOi8vd3d3Lmlua3NjYXBlLm9yZy9uYW1lc3BhY2VzL2lua3NjYXBlIiB4bWxuczpyZGY9Imh0dHA6Ly93d3cudzMub3JnLzE5OTkvMDIvMjItcmRmLXN5bnRheC1ucyMiIHhtbG5zOnNvZGlwb2RpPSJodHRwOi8vc29kaXBvZGkuc291cmNlZm9yZ2UubmV0L0RURC9zb2RpcG9kaS0wLmR0ZCIgeG1sbnM6c3ZnPSJodHRwOi8vd3d3LnczLm9yZy8yMDAwL3N2ZyIgeG1sbnM9Imh0dHA6Ly93d3cudzMub3JnLzIwMDAvc3ZnIiB4bWxuczp4bGluaz0iaHR0cDovL3d3dy53My5vcmcvMTk5OS94bGluayIgdmVyc2lvbj0iMS4xIiBpZD0ic3ZnNzc5MjQiIGlua3NjYXBlOnZlcnNpb249IjAuOTIuMyAoMjQwNTU0NiwgMjAxOC0wMy0xMSkiIHNvZGlwb2RpOmRvY25hbWU9ImRhdGFfcGlwZWxpbmVzLnN2ZyIgeD0iMHB4IiB5PSIwcHgiIHZpZXdCb3g9IjAgMCA2Mi4zNyA0MC40MiIgc3R5bGU9ImVuYWJsZS1iYWNrZ3JvdW5kOm5ldyAwIDAgNjIuMzcgNDAuNDI7IiB4bWw6c3BhY2U9InByZXNlcnZlIj4mI3hhOzxzb2RpcG9kaTpuYW1lZHZpZXcgYm9yZGVyY29sb3I9IiM2NjY2NjYiIGJvcmRlcm9wYWNpdHk9IjEiIGZpdC1tYXJnaW4tYm90dG9tPSIwIiBmaXQtbWFyZ2luLWxlZnQ9IjAiIGZpdC1tYXJnaW4tcmlnaHQ9IjAiIGZpdC1tYXJnaW4tdG9wPSIwIiBncmlkdG9sZXJhbmNlPSIxMCIgZ3VpZGV0b2xlcmFuY2U9IjEwIiBpZD0ibmFtZWR2aWV3Nzc5MjYiIGlua3NjYXBlOmN1cnJlbnQtbGF5ZXI9InN2Zzc3OTI0IiBpbmtzY2FwZTpjeD0iNDUuMjI3NTg0IiBpbmtzY2FwZTpjeT0iMjAuMzQ0ODU2IiBpbmtzY2FwZTpwYWdlb3BhY2l0eT0iMCIgaW5rc2NhcGU6cGFnZXNoYWRvdz0iMiIgaW5rc2NhcGU6d2luZG93LWhlaWdodD0iMTAxNyIgaW5rc2NhcGU6d2luZG93LW1heGltaXplZD0iMSIgaW5rc2NhcGU6d2luZG93LXdpZHRoPSIxOTIwIiBpbmtzY2FwZTp3aW5kb3cteD0iLTgiIGlua3NjYXBlOndpbmRvdy15PSItOCIgaW5rc2NhcGU6em9vbT0iMTEuMzc2MzExIiBvYmplY3R0b2xlcmFuY2U9IjEwIiBwYWdlY29sb3I9IiNmZmZmZmYiIHNob3dncmlkPSJmYWxzZSI+JiN4YTsJPC9zb2RpcG9kaTpuYW1lZHZpZXc+JiN4YTs8ZyBpZD0iZzc3OTIyIj4mI3hhOwk8dGl0bGUgaWQ9InRpdGxlNzc5MDIiPlBhZ2UtMTwvdGl0bGU+JiN4YTsJPGcgaWQ9Imdyb3VwNTAwMS0xIj4mI3hhOwkJPHRpdGxlIGlkPSJ0aXRsZTc3OTA0Ij5EYXRhIFBpcGVsaW5lcy40OTQ8L3RpdGxlPiYjeGE7CQk8ZyBpZD0ic2hhcGU1MDAyLTIiIHRyYW5zZm9ybT0idHJhbnNsYXRlKDkuMjAwOTgsLTQuNTg4MDYpIj4mI3hhOwkJCTx0aXRsZSBpZD0idGl0bGU3NzkwNiI+U2hlZXQuNTAwMjwvdGl0bGU+JiN4YTsJCQk8cGF0aCBpZD0icGF0aDc3OTA4IiBpbmtzY2FwZTpjb25uZWN0b3ItY3VydmF0dXJlPSIwIiBzdHlsZT0iZmlsbDojMDA3MDhFOyIgZD0iTTAsOS4yMXYzMS4yMWg0Ny41NFY5LjIxSDB6Ii8+JiN4YTsJCTwvZz4mI3hhOwkJPGcgaWQ9InNoYXBlNTAwMy00Ij4mI3hhOwkJCTx0aXRsZSBpZD0idGl0bGU3NzkxMSI+U2hlZXQuNTAwMzwvdGl0bGU+JiN4YTsJCQk8cGF0aCBpZD0icGF0aDc3OTEzIiBpbmtzY2FwZTpjb25uZWN0b3ItY3VydmF0dXJlPSIwIiBzdHlsZT0iZmlsbDojMDA5MEI3OyIgZD0iTTAsNS44NUMwLDM0LjYsMCwzNC42LDAsMzQuNiAgICAgYzAsMy41MSwyLjM2LDUuODIsNS44OCw1LjgyYzMuMTYsMCw1Ljg4LTIuMzEsNS44OC01LjgyYzAtMjguNzUsMC0yOC43NSwwLTI4Ljc1QzExLjc2LDIuNzUsOS4wNCwwLDUuODgsMEMyLjM2LDAsMCwyLjc1LDAsNS44NSAgICAgeiIvPiYjeGE7CQk8L2c+JiN4YTsJCTxnIGlkPSJzaGFwZTUwMDQtNiIgdHJhbnNmb3JtPSJ0cmFuc2xhdGUoNTEuMTE2NikiPiYjeGE7CQkJPHRpdGxlIGlkPSJ0aXRsZTc3OTE2Ij5TaGVldC41MDA0PC90aXRsZT4mI3hhOwkJCTxwYXRoIGlkPSJwYXRoNzc5MTgiIGlua3NjYXBlOmNvbm5lY3Rvci1jdXJ2YXR1cmU9IjAiIHN0eWxlPSJmaWxsOiMwMDkwQjc7IiBkPSJNMCw1Ljg1QzAsMzQuNiwwLDM0LjYsMCwzNC42ICAgICBjMCwzLjUxLDIuNjUsNS44Miw1LjYyLDUuODJjMy4wMSwwLDUuNjMtMi4zMSw1LjYzLTUuODJjMC0yOC43NSwwLTI4Ljc1LDAtMjguNzVDMTEuMjUsMi43NSw4LjYzLDAsNS42MiwwQzIuNjUsMCwwLDIuNzUsMCw1Ljg1ICAgICB6Ii8+JiN4YTsJCTwvZz4mI3hhOwk8L2c+JiN4YTs8L2c+JiN4YTs8L3N2Zz4=;fillColor=#FFE599;" vertex="1" parent="1">
          <mxGeometry x="748.0000000000001" y="203" width="62" height="40" as="geometry" />
        </mxCell>
        <mxCell id="0KH5nl5nT1wfXX2kWhob-113" value="&lt;font style=&quot;font-size: 14px&quot;&gt;&lt;b&gt;Azure Data Factory&lt;/b&gt;&lt;br&gt;&lt;/font&gt;" style="text;html=1;resizable=0;autosize=1;align=center;verticalAlign=middle;points=[];fillColor=none;strokeColor=none;rounded=0;" vertex="1" parent="1">
          <mxGeometry x="200" y="352.5" width="140" height="20" as="geometry" />
        </mxCell>
        <mxCell id="0KH5nl5nT1wfXX2kWhob-114" value="&lt;font&gt;&lt;b style=&quot;text-align: left&quot;&gt;&lt;font style=&quot;font-size: 24px&quot;&gt;saazs-v-pwrbidev&lt;/font&gt;&lt;/b&gt;&lt;br&gt;&lt;/font&gt;" style="text;html=1;resizable=0;autosize=1;align=center;verticalAlign=middle;points=[];fillColor=none;strokeColor=none;rounded=0;" vertex="1" parent="1">
          <mxGeometry x="825" y="120" width="220" height="20" as="geometry" />
        </mxCell>
        <mxCell id="0KH5nl5nT1wfXX2kWhob-115" value="" style="shape=image;verticalLabelPosition=bottom;labelBackgroundColor=#ffffff;verticalAlign=top;aspect=fixed;imageAspect=0;image=data:image/svg+xml,PHN2ZyB4bWxuczpkYz0iaHR0cDovL3B1cmwub3JnL2RjL2VsZW1lbnRzLzEuMS8iIHhtbG5zOmNjPSJodHRwOi8vY3JlYXRpdmVjb21tb25zLm9yZy9ucyMiIHhtbG5zOnJkZj0iaHR0cDovL3d3dy53My5vcmcvMTk5OS8wMi8yMi1yZGYtc3ludGF4LW5zIyIgeG1sbnM6c3ZnPSJodHRwOi8vd3d3LnczLm9yZy8yMDAwL3N2ZyIgeG1sbnM9Imh0dHA6Ly93d3cudzMub3JnLzIwMDAvc3ZnIiB4bWxuczpzb2RpcG9kaT0iaHR0cDovL3NvZGlwb2RpLnNvdXJjZWZvcmdlLm5ldC9EVEQvc29kaXBvZGktMC5kdGQiIHhtbG5zOmlua3NjYXBlPSJodHRwOi8vd3d3Lmlua3NjYXBlLm9yZy9uYW1lc3BhY2VzL2lua3NjYXBlIiB2ZXJzaW9uPSIxLjEiIGlkPSJzdmc5MTExMCIgaW5rc2NhcGU6dmVyc2lvbj0iMC45Mi4zICgyNDA1NTQ2LCAyMDE4LTAzLTExKSIgc29kaXBvZGk6ZG9jbmFtZT0icG93ZXJfYmkuc3ZnIiB4PSIwcHgiIHk9IjBweCIgdmlld0JveD0iMCAwIDUwLjg1IDM4LjA3IiB4bWw6c3BhY2U9InByZXNlcnZlIiB3aWR0aD0iNTAuODQ5OTk4IiBoZWlnaHQ9IjM4LjA3Ij48bWV0YWRhdGEgaWQ9Im1ldGFkYXRhMTgwNjYiPjxyZGY6UkRGPjxjYzpXb3JrIHJkZjphYm91dD0iIj48ZGM6Zm9ybWF0PmltYWdlL3N2Zyt4bWw8L2RjOmZvcm1hdD48ZGM6dHlwZSByZGY6cmVzb3VyY2U9Imh0dHA6Ly9wdXJsLm9yZy9kYy9kY21pdHlwZS9TdGlsbEltYWdlIi8+PGRjOnRpdGxlLz48L2NjOldvcms+PC9yZGY6UkRGPjwvbWV0YWRhdGE+PGRlZnMgaWQ9ImRlZnMxODA2NCIvPiYjeGE7PGZpbHRlciBpZD0iZmlsdGVyXzIiPiYjeGE7CTxmZUdhdXNzaWFuQmx1ciBpZD0iZmVHYXVzc2lhbkJsdXI5MTA0MyIgc3RkRGV2aWF0aW9uPSIyIi8+JiN4YTs8L2ZpbHRlcj4mI3hhOzxzb2RpcG9kaTpuYW1lZHZpZXcgYm9yZGVyY29sb3I9IiM2NjY2NjYiIGJvcmRlcm9wYWNpdHk9IjEiIGZpdC1tYXJnaW4tYm90dG9tPSIwIiBmaXQtbWFyZ2luLWxlZnQ9IjAiIGZpdC1tYXJnaW4tcmlnaHQ9IjAiIGZpdC1tYXJnaW4tdG9wPSIwIiBncmlkdG9sZXJhbmNlPSIxMCIgZ3VpZGV0b2xlcmFuY2U9IjEwIiBpZD0ibmFtZWR2aWV3OTExMTIiIGlua3NjYXBlOmN1cnJlbnQtbGF5ZXI9InN2ZzkxMTEwIiBpbmtzY2FwZTpjeD0iLTMxLjA3MjI0OCIgaW5rc2NhcGU6Y3k9IjE4LjI0MDY4NiIgaW5rc2NhcGU6cGFnZW9wYWNpdHk9IjAiIGlua3NjYXBlOnBhZ2VzaGFkb3c9IjIiIGlua3NjYXBlOndpbmRvdy1oZWlnaHQ9IjEwMTciIGlua3NjYXBlOndpbmRvdy1tYXhpbWl6ZWQ9IjEiIGlua3NjYXBlOndpbmRvdy13aWR0aD0iMTkyMCIgaW5rc2NhcGU6d2luZG93LXg9Ii04IiBpbmtzY2FwZTp3aW5kb3cteT0iLTgiIGlua3NjYXBlOnpvb209IjEwLjA5NTE0NiIgb2JqZWN0dG9sZXJhbmNlPSIxMCIgcGFnZWNvbG9yPSIjZmZmZmZmIiBzaG93Z3JpZD0iZmFsc2UiPiYjeGE7CTwvc29kaXBvZGk6bmFtZWR2aWV3PiYjeGE7JiN4YTsmI3hhOzxwYXRoIGlkPSJwYXRoOTEwNTgiIGlua3NjYXBlOmNvbm5lY3Rvci1jdXJ2YXR1cmU9IjAiIHN0eWxlPSJmaWxsOiNlZGJkMTEiIGQ9Ik0gNDQuODUsMzIuOTUgSCA0My44MyBWIDMwLjkgaCAxLjAyIGMgMi4xOCwwIDMuOTUsLTEuNzcgMy45NSwtMy45NSBWIDYgQyA0OC44LDMuODIgNDcuMDMsMi4wNSA0NC44NSwyLjA1IEggNiBDIDMuODIsMi4wNSAyLjA1LDMuODIgMi4wNSw2IHYgMjAuOTUgYyAwLjAxLDIuMTggMS43NywzLjk0IDMuOTUsMy45NCBoIDEuMDIgdiAyLjA1IEggNiBjIC0zLjMxLDAgLTUuOTksLTIuNjggLTYsLTUuOTkgViA2IEMgMCwyLjY5IDIuNjksMCA2LDAgaCAzOC44NSBjIDMuMzEsMCA2LDIuNjkgNiw2IHYgMjAuOTUgYyAtMC4wMSwzLjMxIC0yLjY5LDUuOTkgLTYsNS45OSB6Ii8+JiN4YTsmI3hhOyYjeGE7PHBhdGggaWQ9InBhdGg5MTA2OCIgaW5rc2NhcGU6Y29ubmVjdG9yLWN1cnZhdHVyZT0iMCIgc3R5bGU9ImZpbGw6I2VkYmQxMSIgZD0ibSAxMi4yOSwyNi4wOCBjIDEuNTQsMCAyLjc5LDEuMjQgMi43OSwyLjc4IDAsMCAwLDAuMDEgMCwwLjAxIHYgNi40MSBjIDAsMS41NCAtMS4yNCwyLjc5IC0yLjc4LDIuNzkgMCwwIC0wLjAxLDAgLTAuMDEsMCAtMS41NCwwIC0yLjc4LC0xLjI1IC0yLjc4LC0yLjc5IDAsMCAwLDAgMCwwIHYgLTYuNDEgYyAwLC0xLjU0IDEuMjQsLTIuNzkgMi43OCwtMi43OSAwLDAgMCwwIDAsMCB6Ii8+JiN4YTsmI3hhOyYjeGE7PHBhdGggaWQ9InBhdGg5MTA3OCIgaW5rc2NhcGU6Y29ubmVjdG9yLWN1cnZhdHVyZT0iMCIgc3R5bGU9ImZpbGw6I2VkYmQxMSIgZD0ibSAyMS4wNSwzOC4wNiBjIC0xLjUzLDAgLTIuNzgsLTEuMjUgLTIuNzgsLTIuNzggViAxOC44MSBjIDAsLTEuNTQgMS4yNSwtMi43OCAyLjc5LC0yLjc4IDEuNTQsMCAyLjc4LDEuMjUgMi43OCwyLjc4IHYgMTYuNDcgYyAwLDEuNTQgLTEuMjQsMi43OSAtMi43OCwyLjc5IDAsMCAtMC4wMSwwIC0wLjAxLDAgeiIvPiYjeGE7JiN4YTsmI3hhOyYjeGE7PHBhdGggaWQ9InBhdGg5MTA5MCIgaW5rc2NhcGU6Y29ubmVjdG9yLWN1cnZhdHVyZT0iMCIgc3R5bGU9ImZpbGw6I2VkYmQxMSIgZD0ibSAzOC41NSwzNy45OSBjIC0xLjU0LDAgLTIuNzgsLTEuMjUgLTIuNzgsLTIuNzkgMCwwIDAsMCAwLDAgViAxMS44NyBjIDAsLTEuNTQgMS4yNSwtMi43OCAyLjc5LC0yLjc4IDEuNTQsMCAyLjc4LDEuMjUgMi43OCwyLjc4IFYgMzUuMiBjIDAsMS41NCAtMS4yNCwyLjc5IC0yLjc4LDIuNzkgMCwwIC0wLjAxLDAgLTAuMDEsMCB6Ii8+JiN4YTsmI3hhOyYjeGE7JiN4YTs8cGF0aCBpZD0icGF0aDkxMTAyIiBpbmtzY2FwZTpjb25uZWN0b3ItY3VydmF0dXJlPSIwIiBzdHlsZT0iZmlsbDojZWRiZDExIiBkPSJtIDI5LjgsMzguMDcgYyAtMS41NCwwIC0yLjc4LC0xLjI1IC0yLjc4LC0yLjc5IDAsMCAwLDAgMCwwIFYgMjMuMDQgYyAwLC0xLjU0IDEuMjUsLTIuNzkgMi43OCwtMi43OSAxLjU0LDAgMi43OSwxLjI1IDIuNzksMi43OSB2IDAgMTIuMjQgYyAwLDEuNTQgLTEuMjQsMi43OSAtMi43OCwyLjc5IDAsMCAtMC4wMSwwIC0wLjAxLDAgeiIvPiYjeGE7JiN4YTs8L3N2Zz4=;fillColor=#66B2FF;" vertex="1" parent="1">
          <mxGeometry x="994.5" y="419.84" width="121" height="90.16" as="geometry" />
        </mxCell>
        <mxCell id="0KH5nl5nT1wfXX2kWhob-119" value="&lt;b&gt;&lt;font style=&quot;font-size: 24px&quot;&gt;Power BI&lt;/font&gt;&lt;/b&gt;" style="text;html=1;resizable=0;autosize=1;align=center;verticalAlign=middle;points=[];fillColor=none;strokeColor=none;rounded=0;" vertex="1" parent="1">
          <mxGeometry x="995.5" y="520" width="120" height="20" as="geometry" />
        </mxCell>
        <mxCell id="0KH5nl5nT1wfXX2kWhob-120" value="" style="group" vertex="1" connectable="0" parent="1">
          <mxGeometry x="450" y="100" width="190" height="65" as="geometry" />
        </mxCell>
        <mxCell id="0KH5nl5nT1wfXX2kWhob-121" value="" style="strokeColor=#dddddd;fillColor=#ffffff;shadow=1;strokeWidth=1;rounded=1;absoluteArcSize=1;arcSize=2;fontSize=11;fontColor=#9E9E9E;align=center;html=1;" vertex="1" parent="0KH5nl5nT1wfXX2kWhob-120">
          <mxGeometry y="-1.5" width="180" height="60" as="geometry" />
        </mxCell>
        <mxCell id="0KH5nl5nT1wfXX2kWhob-122" value="" style="strokeColor=#dddddd;fillColor=#ffffff;shadow=1;strokeWidth=1;rounded=1;absoluteArcSize=1;arcSize=2;fontSize=11;fontColor=#9E9E9E;align=center;html=1;" vertex="1" parent="0KH5nl5nT1wfXX2kWhob-120">
          <mxGeometry width="180" height="65" as="geometry" />
        </mxCell>
        <mxCell id="0KH5nl5nT1wfXX2kWhob-123" value="" style="shape=image;verticalLabelPosition=bottom;labelBackgroundColor=#ffffff;verticalAlign=top;aspect=fixed;imageAspect=0;image=data:image/svg+xml,PHN2ZyB4bWxuczpjYz0iaHR0cDovL2NyZWF0aXZlY29tbW9ucy5vcmcvbnMjIiB4bWxuczpkYz0iaHR0cDovL3B1cmwub3JnL2RjL2VsZW1lbnRzLzEuMS8iIHhtbG5zOmlua3NjYXBlPSJodHRwOi8vd3d3Lmlua3NjYXBlLm9yZy9uYW1lc3BhY2VzL2lua3NjYXBlIiB4bWxuczpyZGY9Imh0dHA6Ly93d3cudzMub3JnLzE5OTkvMDIvMjItcmRmLXN5bnRheC1ucyMiIHhtbG5zOnNvZGlwb2RpPSJodHRwOi8vc29kaXBvZGkuc291cmNlZm9yZ2UubmV0L0RURC9zb2RpcG9kaS0wLmR0ZCIgeG1sbnM6c3ZnPSJodHRwOi8vd3d3LnczLm9yZy8yMDAwL3N2ZyIgeG1sbnM9Imh0dHA6Ly93d3cudzMub3JnLzIwMDAvc3ZnIiB4bWxuczp4bGluaz0iaHR0cDovL3d3dy53My5vcmcvMTk5OS94bGluayIgdmVyc2lvbj0iMS4xIiBpZD0ic3ZnMTA4Mzc5IiBpbmtzY2FwZTp2ZXJzaW9uPSIwLjkyLjMgKDI0MDU1NDYsIDIwMTgtMDMtMTEpIiBzb2RpcG9kaTpkb2NuYW1lPSJ0YWJsZXNfMS5zdmciIHg9IjBweCIgeT0iMHB4IiB2aWV3Qm94PSIwIDAgNTMuNDggNDYuNjciIHN0eWxlPSJlbmFibGUtYmFja2dyb3VuZDpuZXcgMCAwIDUzLjQ4IDQ2LjY3OyIgeG1sOnNwYWNlPSJwcmVzZXJ2ZSI+JiN4YTs8c29kaXBvZGk6bmFtZWR2aWV3IGJvcmRlcmNvbG9yPSIjNjY2NjY2IiBib3JkZXJvcGFjaXR5PSIxIiBmaXQtbWFyZ2luLWJvdHRvbT0iMCIgZml0LW1hcmdpbi1sZWZ0PSIwIiBmaXQtbWFyZ2luLXJpZ2h0PSIwIiBmaXQtbWFyZ2luLXRvcD0iMCIgZ3JpZHRvbGVyYW5jZT0iMTAiIGd1aWRldG9sZXJhbmNlPSIxMCIgaWQ9Im5hbWVkdmlldzEwODM4MSIgaW5rc2NhcGU6Y3VycmVudC1sYXllcj0ic3ZnMTA4Mzc5IiBpbmtzY2FwZTpjeD0iMzUuNjUyNTciIGlua3NjYXBlOmN5PSIzMS4xMTE1NzIiIGlua3NjYXBlOnBhZ2VvcGFjaXR5PSIwIiBpbmtzY2FwZTpwYWdlc2hhZG93PSIyIiBpbmtzY2FwZTp3aW5kb3ctaGVpZ2h0PSIxMDE3IiBpbmtzY2FwZTp3aW5kb3ctbWF4aW1pemVkPSIxIiBpbmtzY2FwZTp3aW5kb3ctd2lkdGg9IjE5MjAiIGlua3NjYXBlOndpbmRvdy14PSItOCIgaW5rc2NhcGU6d2luZG93LXk9Ii04IiBpbmtzY2FwZTp6b29tPSIxMy45MzIxNjkiIG9iamVjdHRvbGVyYW5jZT0iMTAiIHBhZ2Vjb2xvcj0iI2ZmZmZmZiIgc2hvd2dyaWQ9ImZhbHNlIj4mI3hhOwk8L3NvZGlwb2RpOm5hbWVkdmlldz4mI3hhOzxnIGlkPSJnMTA4Mzc3IiB0cmFuc2Zvcm09InRyYW5zbGF0ZSgtMy45NzMzODM3ZS01KSI+JiN4YTsJPHRpdGxlIGlkPSJ0aXRsZTEwODM3MCI+UGFnZS0xPC90aXRsZT4mI3hhOwk8ZyBpZD0ic2hhcGUzOTI5LTEiPiYjeGE7CQk8dGl0bGUgaWQ9InRpdGxlMTA4MzcyIj5UYWJsZXMgIzE8L3RpdGxlPiYjeGE7CQk8cGF0aCBpZD0icGF0aDEwODM3NCIgaW5rc2NhcGU6Y29ubmVjdG9yLWN1cnZhdHVyZT0iMCIgc3R5bGU9ImZpbGw6IzNGNTc2NTsiIGQ9Ik01Mi4zNiwwQzEuMTMsMCwxLjEzLDAsMS4xMywwICAgIEMwLjQ3LDAsMCwwLjQ3LDAsMS4xM2MwLDQ0LjQyLDAsNDQuNDIsMCw0NC40MmMwLDAuNTYsMC40NywxLjEyLDEuMTMsMS4xMmM1MS4yMywwLDUxLjIzLDAsNTEuMjMsMGMwLjU2LDAsMS4xMi0wLjU2LDEuMTItMS4xMiAgICBjMC00NC40MiwwLTQ0LjQyLDAtNDQuNDJDNTMuNDgsMC40Nyw1Mi45MiwwLDUyLjM2LDB6IE0xMi45NSw0My40YzAtNi4zNiwwLTYuMzYsMC02LjM2YzcuOTcsMCw3Ljk3LDAsNy45NywwICAgIGMwLDYuMzYsMCw2LjM2LDAsNi4zNkgxMi45NXogTTIwLjkyLDIwLjExYzAsNi41NSwwLDYuNTUsMCw2LjU1Yy03Ljk3LDAtNy45NywwLTcuOTcsMGMwLTYuNTUsMC02LjU1LDAtNi41NUgyMC45MnogTTEyLjk1LDE4LjI0ICAgIGMwLTYuNjQsMC02LjY0LDAtNi42NGM3Ljk3LDAsNy45NywwLDcuOTcsMGMwLDYuNjQsMCw2LjY0LDAsNi42NEgxMi45NXogTTIwLjkyLDI4LjUzYzAsNi42NCwwLDYuNjQsMCw2LjY0ICAgIGMtNy45NywwLTcuOTcsMC03Ljk3LDBjMC02LjY0LDAtNi42NCwwLTYuNjRIMjAuOTJ6IE0yMi44LDQzLjRjMC02LjM2LDAtNi4zNiwwLTYuMzZjNy44OCwwLDcuODgsMCw3Ljg4LDBjMCw2LjM2LDAsNi4zNiwwLDYuMzYgICAgSDIyLjh6IE0zMC42OCwyMC4xMWMwLDYuNTUsMCw2LjU1LDAsNi41NWMtNy44OCwwLTcuODgsMC03Ljg4LDBjMC02LjU1LDAtNi41NSwwLTYuNTVIMzAuNjh6IE0yMi44LDE4LjI0YzAtNi42NCwwLTYuNjQsMC02LjY0ICAgIGM3Ljg4LDAsNy44OCwwLDcuODgsMGMwLDYuNjQsMCw2LjY0LDAsNi42NEgyMi44eiBNMzAuNjgsMjguNTNjMCw2LjY0LDAsNi42NCwwLDYuNjRjLTcuODgsMC03Ljg4LDAtNy44OCwwYzAtNi42NCwwLTYuNjQsMC02LjY0ICAgIEgzMC42OHogTTMyLjU2LDQzLjRjMC02LjM2LDAtNi4zNiwwLTYuMzZjNy45NywwLDcuOTcsMCw3Ljk3LDBjMCw2LjM2LDAsNi4zNiwwLDYuMzZIMzIuNTZ6IE00MC41MywyMC4xMWMwLDYuNTUsMCw2LjU1LDAsNi41NSAgICBjLTcuOTcsMC03Ljk3LDAtNy45NywwYzAtNi41NSwwLTYuNTUsMC02LjU1SDQwLjUzeiBNMzIuNTYsMTguMjRjMC02LjY0LDAtNi42NCwwLTYuNjRjNy45NywwLDcuOTcsMCw3Ljk3LDAgICAgYzAsNi42NCwwLDYuNjQsMCw2LjY0SDMyLjU2eiBNNDAuNTMsMjguNTNjMCw2LjY0LDAsNi42NCwwLDYuNjRjLTcuOTcsMC03Ljk3LDAtNy45NywwYzAtNi42NCwwLTYuNjQsMC02LjY0SDQwLjUzeiBNNDIuNDEsNDMuNCAgICBjMC02LjM2LDAtNi4zNiwwLTYuMzZjNy43OSwwLDcuNzksMCw3Ljc5LDBjMCw2LjM2LDAsNi4zNiwwLDYuMzZINDIuNDF6IE00Mi40MSwzNS4xN2MwLTYuNjQsMC02LjY0LDAtNi42NGM3Ljc5LDAsNy43OSwwLDcuNzksMCAgICBjMCw2LjY0LDAsNi42NCwwLDYuNjRINDIuNDF6IE00Mi40MSwyNi42NmMwLTYuNTUsMC02LjU1LDAtNi41NWM3Ljc5LDAsNy43OSwwLDcuNzksMGMwLDYuNTUsMCw2LjU1LDAsNi41NUw0Mi40MSwyNi42NnogICAgIE00Mi40MSwxOC4yNGMwLTYuNjQsMC02LjY0LDAtNi42NGM3Ljc5LDAsNy43OSwwLDcuNzksMGMwLDYuNjQsMCw2LjY0LDAsNi42NEg0Mi40MXogTTUwLjIsMy4yN2MwLDYuNDYsMCw2LjQ2LDAsNi40NiAgICBjLTcuNzksMC03Ljc5LDAtNy43OSwwYzAtNi40NiwwLTYuNDYsMC02LjQ2TDUwLjIsMy4yN3ogTTQwLjUzLDMuMjdjMCw2LjQ2LDAsNi40NiwwLDYuNDZjLTcuOTcsMC03Ljk3LDAtNy45NywwICAgIGMwLTYuNDYsMC02LjQ2LDAtNi40Nkw0MC41MywzLjI3eiBNMzAuNjgsMy4yN2MwLDYuNDYsMCw2LjQ2LDAsNi40NmMtNy44OCwwLTcuODgsMC03Ljg4LDBjMC02LjQ2LDAtNi40NiwwLTYuNDZMMzAuNjgsMy4yN3ogICAgIE0yMC45MiwzLjI3YzAsNi40NiwwLDYuNDYsMCw2LjQ2Yy03Ljk3LDAtNy45NywwLTcuOTcsMGMwLTYuNDYsMC02LjQ2LDAtNi40NkwyMC45MiwzLjI3eiBNMTEuMDcsOS43M2MtNy43OSwwLTcuNzksMC03Ljc5LDAgICAgYzAtNi40NiwwLTYuNDYsMC02LjQ2YzcuNzksMCw3Ljc5LDAsNy43OSwwVjkuNzN6IE0xMS4wNywxMS42YzAsNi42NCwwLDYuNjQsMCw2LjY0Yy03Ljc5LDAtNy43OSwwLTcuNzksMGMwLTYuNjQsMC02LjY0LDAtNi42NCAgICBMMTEuMDcsMTEuNnogTTExLjA3LDIwLjExYzAsNi41NSwwLDYuNTUsMCw2LjU1Yy03Ljc5LDAtNy43OSwwLTcuNzksMGMwLTYuNTUsMC02LjU1LDAtNi41NUgxMS4wN3ogTTExLjA3LDI4LjUzICAgIGMwLDYuNjQsMCw2LjY0LDAsNi42NGMtNy43OSwwLTcuNzksMC03Ljc5LDBjMC02LjY0LDAtNi42NCwwLTYuNjRMMTEuMDcsMjguNTN6IE0xMS4wNywzNy4wNGMwLDYuMzYsMCw2LjM2LDAsNi4zNiAgICBjLTcuNzksMC03Ljc5LDAtNy43OSwwYzAtNi4zNiwwLTYuMzYsMC02LjM2SDExLjA3eiIvPiYjeGE7CTwvZz4mI3hhOzwvZz4mI3hhOzwvc3ZnPg==;fillColor=#D4E1F5;" vertex="1" parent="0KH5nl5nT1wfXX2kWhob-120">
          <mxGeometry x="4.25" y="11.5" width="53" height="47" as="geometry" />
        </mxCell>
        <mxCell id="0KH5nl5nT1wfXX2kWhob-124" value="&lt;span style=&quot;font-size: 14px&quot;&gt;&lt;b&gt;Pipeline Run&amp;nbsp;&lt;br&gt;Metrics&lt;/b&gt;&lt;/span&gt;" style="text;html=1;resizable=0;autosize=1;align=center;verticalAlign=middle;points=[];fillColor=none;strokeColor=none;rounded=0;" vertex="1" parent="0KH5nl5nT1wfXX2kWhob-120">
          <mxGeometry x="70" y="20" width="100" height="30" as="geometry" />
        </mxCell>
        <mxCell id="0KH5nl5nT1wfXX2kWhob-128" value="&lt;font style=&quot;font-size: 18px&quot;&gt;Meta Driven Pipelines ie. driven through configuration&lt;br&gt;1 Pipe = Many Loads&lt;br&gt;&lt;/font&gt;" style="text;html=1;resizable=0;autosize=1;align=center;verticalAlign=middle;points=[];fillColor=none;strokeColor=none;rounded=0;" vertex="1" parent="1">
          <mxGeometry x="340" y="530" width="440" height="40" as="geometry" />
        </mxCell>
      </root>
    </mxGraphModel>
  </diagram>
</mxfile>
